<svg width="16" height="17" viewBox="0 0 16 17" fill="none" xmlns="http://www.w3.org/2000/svg">
<path d="M16 8.49722C15.9994 7.02784 15.5941 5.58702 14.8286 4.33279C14.0631 3.07855 12.967 2.05937 11.6605 1.38704C10.3539 0.714716 8.88746 0.415226 7.42192 0.521406C5.95638 0.627586 4.54839 1.13534 3.35241 1.98897C2.15642 2.84261 1.21863 4.00915 0.641926 5.36063C0.065221 6.7121 -0.12813 8.19631 0.0830833 9.65043C0.294297 11.1046 0.901922 12.4724 1.83929 13.6039C2.77666 14.7355 4.00756 15.587 5.39698 16.0651C5.50932 16.0074 5.60568 15.9228 5.67751 15.8189C5.74935 15.7149 5.79446 15.5949 5.80884 15.4694C5.80884 15.0294 5.79914 13.8977 5.79914 13.8977C5.52003 13.9388 5.2382 13.9585 4.9561 13.9567C4.55777 13.9818 4.16228 13.8747 3.83111 13.6519C3.49995 13.4291 3.25167 13.1032 3.12485 12.7247C2.95036 12.2805 2.63426 11.9063 2.22551 11.6599C2.01871 11.5262 1.97118 11.3686 2.21054 11.3246C3.31581 11.1178 3.5983 12.5707 4.33661 12.803C4.84693 12.9619 5.39887 12.9178 5.87745 12.6798C5.94585 12.2665 6.17407 11.8967 6.51282 11.6502C4.63492 11.4742 3.52085 10.8222 2.94534 9.77937L2.88373 9.66322L2.73854 9.33234L2.69542 9.21355C2.50866 8.62815 2.41947 8.01599 2.43142 7.40164C2.41341 6.97912 2.48221 6.55741 2.63356 6.16252C2.78491 5.76764 3.01562 5.40798 3.31141 5.10575C3.06976 4.34663 3.11933 3.52475 3.45045 2.80018C3.45045 2.80018 4.26356 2.6321 5.79914 3.72593C7.14039 3.36772 8.54859 3.34084 9.90253 3.6476C10.5467 3.22345 11.7268 2.62154 12.202 2.79049C12.5196 3.45443 12.5798 4.21256 12.3709 4.91831C13.0425 5.63453 13.4035 6.58739 13.375 7.56884C13.373 8.12366 13.3038 8.6762 13.1691 9.21441L13.1004 9.44937C13.1004 9.44937 13.0608 9.56026 13.0177 9.66674L12.9667 9.78288C12.4096 10.9999 11.2674 11.4549 9.42207 11.6432C10.0205 12.0181 10.1912 12.488 10.1912 13.7552C10.1912 15.0224 10.1745 15.1975 10.178 15.4905C10.1955 15.6117 10.2402 15.7272 10.3088 15.8286C10.3774 15.93 10.468 16.0144 10.574 16.0757C12.1562 15.5368 13.5301 14.5163 14.5032 13.1572C15.4762 11.7982 15.9996 10.1687 16 8.49722Z" fill="#1C1C1C"/>
</svg>
