<svg width="16" height="17" viewBox="0 0 16 17" fill="none" xmlns="http://www.w3.org/2000/svg">
<path fill-rule="evenodd" clip-rule="evenodd" d="M2.63997 0.5H13.36C14.818 0.5 16 1.68196 16 3.13997V13.86C16 15.318 14.818 16.5 13.36 16.5H2.63997C1.18196 16.5 0 15.318 0 13.86V3.13997C0 1.68196 1.18196 0.5 2.63997 0.5ZM8.68521 14.1012H8.68609L8.68521 14.1038V14.1012ZM6.36731 14.1012H8.68521V10.4017C8.68521 9.45041 8.85065 8.48242 10.0756 8.48242C11.2803 8.48242 11.2803 9.62993 11.2803 10.4677V14.0994H13.6017V10.0004C13.6017 8.14979 13.2638 6.43733 10.8166 6.43733C10.3752 6.422 9.93798 6.52598 9.55081 6.73831C9.16363 6.95063 8.84089 7.26344 8.61657 7.64379H8.58665V6.62124H6.36731V14.1012ZM2.58071 14.1012H4.90213H4.90389V6.62124H2.58071V14.1012ZM2.99683 5.37226C3.21889 5.52024 3.47985 5.59904 3.7467 5.59869C4.10426 5.59799 4.44694 5.45546 4.69952 5.20238C4.95211 4.9493 5.09397 4.60635 5.09397 4.24879C5.09379 3.98194 5.01448 3.72113 4.86606 3.49936C4.71765 3.2776 4.50679 3.10483 4.26017 3.00291C4.01355 2.90099 3.74225 2.8745 3.48057 2.9268C3.2189 2.97909 2.97861 3.10782 2.7901 3.2967C2.6016 3.48557 2.47334 3.72611 2.42156 3.98789C2.36977 4.24967 2.39679 4.52092 2.49919 4.76734C2.60159 5.01376 2.77478 5.22428 2.99683 5.37226Z" fill="#1C1C1C"/>
</svg>
