<svg width="1980" height="860" viewBox="0 0 1980 860" fill="none" xmlns="http://www.w3.org/2000/svg">
<mask id="mask0_903_24942" style="mask-type:alpha" maskUnits="userSpaceOnUse" x="-20" y="0" width="2000" height="860">
<rect x="-19.5" y="0.5" width="1999" height="859" fill="white" stroke="#EAEAEB"/>
</mask>
<g mask="url(#mask0_903_24942)">
<rect width="66.8284" height="66.8284" transform="matrix(0.869981 0.493085 -0.869981 0.493085 -8.37231 -65.749)" fill="white" stroke="#EAEAEB"/>
<rect width="66.8284" height="66.8284" transform="matrix(0.869981 0.493085 -0.869981 0.493085 107.907 -65.7485)" fill="white" stroke="#EAEAEB"/>
<rect width="66.8284" height="66.8284" transform="matrix(0.869981 0.493085 -0.869981 0.493085 49.7684 -32.7959)" fill="white" stroke="#EAEAEB"/>
<rect width="66.8284" height="66.8284" transform="matrix(0.869981 0.493085 -0.869981 0.493085 -8.37231 0.157715)" fill="white" stroke="#EAEAEB"/>
<rect width="66.8284" height="66.8284" transform="matrix(0.869981 0.493085 -0.869981 0.493085 224.187 -65.7488)" fill="white" stroke="#EAEAEB"/>
<rect width="66.8284" height="66.8284" transform="matrix(0.869981 0.493085 -0.869981 0.493085 166.048 -32.7959)" fill="white" stroke="#EAEAEB"/>
<rect width="66.8284" height="66.8284" transform="matrix(0.869981 0.493085 -0.869981 0.493085 107.907 0.157959)" fill="white" stroke="#EAEAEB"/>
<rect width="66.8284" height="66.8284" transform="matrix(0.869981 0.493085 -0.869981 0.493085 49.7683 33.1096)" fill="white" stroke="#EAEAEB"/>
<rect width="66.8284" height="66.8284" transform="matrix(0.869981 0.493085 -0.869981 0.493085 -8.37231 66.0613)" fill="white" stroke="#EAEAEB"/>
<rect width="66.8284" height="66.8284" transform="matrix(0.869981 0.493085 -0.869981 0.493085 340.465 -65.749)" fill="white" stroke="#EAEAEB"/>
<rect width="66.8284" height="66.8284" transform="matrix(0.869981 0.493085 -0.869981 0.493085 282.324 -32.7964)" fill="white" stroke="#EAEAEB"/>
<rect width="66.8284" height="66.8284" transform="matrix(0.869981 0.493085 -0.869981 0.493085 224.187 0.158203)" fill="white" stroke="#EAEAEB"/>
<rect width="66.8284" height="66.8284" transform="matrix(0.869981 0.493085 -0.869981 0.493085 166.048 33.1099)" fill="white" stroke="#EAEAEB"/>
<rect width="66.8284" height="66.8284" transform="matrix(0.869981 0.493085 -0.869981 0.493085 107.907 66.0615)" fill="white" stroke="#EAEAEB"/>
<rect width="66.8284" height="66.8284" transform="matrix(0.869981 0.493085 -0.869981 0.493085 49.7686 99.0134)" fill="white" stroke="#EAEAEB"/>
<rect width="66.8284" height="66.8284" transform="matrix(0.869981 0.493085 -0.869981 0.493085 -8.37231 131.965)" fill="white" stroke="#EAEAEB"/>
<rect width="66.8284" height="66.8284" transform="matrix(0.869981 0.493085 -0.869981 0.493085 456.746 -65.749)" fill="white" stroke="#EAEAEB"/>
<rect width="66.8284" height="66.8284" transform="matrix(0.869981 0.493085 -0.869981 0.493085 398.606 -32.7964)" fill="white" stroke="#EAEAEB"/>
<rect width="66.8284" height="66.8284" transform="matrix(0.869981 0.493085 -0.869981 0.493085 340.466 0.157715)" fill="white" stroke="#EAEAEB"/>
<rect width="66.8284" height="66.8284" transform="matrix(0.869981 0.493085 -0.869981 0.493085 282.325 33.1099)" fill="white" stroke="#EAEAEB"/>
<rect width="66.8284" height="66.8284" transform="matrix(0.869981 0.493085 -0.869981 0.493085 224.187 66.0618)" fill="white" stroke="#EAEAEB"/>
<rect width="66.8284" height="66.8284" transform="matrix(0.869981 0.493085 -0.869981 0.493085 166.047 99.0134)" fill="white" stroke="#EAEAEB"/>
<rect width="66.8284" height="66.8284" transform="matrix(0.869981 0.493085 -0.869981 0.493085 107.907 131.965)" fill="white" stroke="#EAEAEB"/>
<rect width="66.8284" height="66.8284" transform="matrix(0.869981 0.493085 -0.869981 0.493085 49.7682 164.917)" fill="white" stroke="#EAEAEB"/>
<rect width="66.8284" height="66.8284" transform="matrix(0.869981 0.493085 -0.869981 0.493085 -8.37231 197.869)" fill="white" stroke="#EAEAEB"/>
<rect width="66.8284" height="66.8284" transform="matrix(0.869981 0.493085 -0.869981 0.493085 573.023 -65.7485)" fill="white" stroke="#EAEAEB"/>
<rect width="66.8284" height="66.8284" transform="matrix(0.869981 0.493085 -0.869981 0.493085 514.882 -32.7964)" fill="white" stroke="#EAEAEB"/>
<rect width="66.8284" height="66.8284" transform="matrix(0.869981 0.493085 -0.869981 0.493085 456.746 0.157959)" fill="white" stroke="#EAEAEB"/>
<rect width="66.8284" height="66.8284" transform="matrix(0.869981 0.493085 -0.869981 0.493085 398.607 33.1099)" fill="white" stroke="#EAEAEB"/>
<rect width="66.8284" height="66.8284" transform="matrix(0.869981 0.493085 -0.869981 0.493085 340.466 66.0618)" fill="white" stroke="#EAEAEB"/>
<rect width="66.8284" height="66.8284" transform="matrix(0.869981 0.493085 -0.869981 0.493085 282.325 99.0134)" fill="white" stroke="#EAEAEB"/>
<rect width="66.8284" height="66.8284" transform="matrix(0.869981 0.493085 -0.869981 0.493085 224.187 131.965)" fill="white" stroke="#EAEAEB"/>
<rect width="66.8284" height="66.8284" transform="matrix(0.869981 0.493085 -0.869981 0.493085 166.048 164.917)" fill="white" stroke="#EAEAEB"/>
<rect width="66.8284" height="66.8284" transform="matrix(0.869981 0.493085 -0.869981 0.493085 107.907 197.868)" fill="white" stroke="#EAEAEB"/>
<rect width="66.8284" height="66.8284" transform="matrix(0.869981 0.493085 -0.869981 0.493085 49.7686 230.821)" fill="white" stroke="#EAEAEB"/>
<rect width="66.8284" height="66.8284" transform="matrix(0.869981 0.493085 -0.869981 0.493085 -8.37231 263.775)" fill="white" stroke="#EAEAEB"/>
<rect width="66.8284" height="66.8284" transform="matrix(0.869981 0.493085 -0.869981 0.493085 689.3 -65.7485)" fill="white" stroke="#EAEAEB"/>
<rect width="66.8284" height="66.8284" transform="matrix(0.869981 0.493085 -0.869981 0.493085 631.165 -32.7964)" fill="white" stroke="#EAEAEB"/>
<rect width="66.8284" height="66.8284" transform="matrix(0.869981 0.493085 -0.869981 0.493085 573.025 0.157959)" fill="white" stroke="#EAEAEB"/>
<rect width="66.8284" height="66.8284" transform="matrix(0.869981 0.493085 -0.869981 0.493085 514.883 33.1101)" fill="white" stroke="#EAEAEB"/>
<rect width="66.8284" height="66.8284" transform="matrix(0.869981 0.493085 -0.869981 0.493085 456.746 66.0615)" fill="white" stroke="#EAEAEB"/>
<rect width="66.8284" height="66.8284" transform="matrix(0.869981 0.493085 -0.869981 0.493085 398.607 99.0132)" fill="white" stroke="#EAEAEB"/>
<rect width="66.8284" height="66.8284" transform="matrix(0.869981 0.493085 -0.869981 0.493085 340.466 131.965)" fill="white" stroke="#EAEAEB"/>
<rect width="66.8284" height="66.8284" transform="matrix(0.869981 0.493085 -0.869981 0.493085 282.325 164.917)" fill="white" stroke="#EAEAEB"/>
<rect width="66.8284" height="66.8284" transform="matrix(0.869981 0.493085 -0.869981 0.493085 224.187 197.869)" fill="white" stroke="#EAEAEB"/>
<rect width="66.8284" height="66.8284" transform="matrix(0.869981 0.493085 -0.869981 0.493085 166.048 230.821)" fill="white" stroke="#EAEAEB"/>
<rect width="66.8284" height="66.8284" transform="matrix(0.869981 0.493085 -0.869981 0.493085 107.906 263.775)" fill="white" stroke="#EAEAEB"/>
<rect width="66.8284" height="66.8284" transform="matrix(0.869981 0.493085 -0.869981 0.493085 49.7689 296.727)" fill="white" stroke="#EAEAEB"/>
<rect width="66.8284" height="66.8284" transform="matrix(0.869981 0.493085 -0.869981 0.493085 -8.37231 329.68)" fill="white" stroke="#EAEAEB"/>
<rect width="66.8284" height="66.8284" transform="matrix(0.869981 0.493085 -0.869981 0.493085 805.583 -65.7473)" fill="white" stroke="#EAEAEB"/>
<rect width="66.8284" height="66.8284" transform="matrix(0.869981 0.493085 -0.869981 0.493085 747.441 -32.7959)" fill="white" stroke="#EAEAEB"/>
<rect width="66.8284" height="66.8284" transform="matrix(0.869981 0.493085 -0.869981 0.493085 689.3 0.158936)" fill="white" stroke="#EAEAEB"/>
<rect width="66.8284" height="66.8284" transform="matrix(0.869981 0.493085 -0.869981 0.493085 631.166 33.1099)" fill="white" stroke="#EAEAEB"/>
<rect width="66.8284" height="66.8284" transform="matrix(0.869981 0.493085 -0.869981 0.493085 573.025 66.0618)" fill="white" stroke="#EAEAEB"/>
<rect width="66.8284" height="66.8284" transform="matrix(0.869981 0.493085 -0.869981 0.493085 514.884 99.0134)" fill="white" stroke="#EAEAEB"/>
<rect width="66.8284" height="66.8284" transform="matrix(0.869981 0.493085 -0.869981 0.493085 456.746 131.965)" fill="white" stroke="#EAEAEB"/>
<rect width="66.8284" height="66.8284" transform="matrix(0.869981 0.493085 -0.869981 0.493085 398.607 164.917)" fill="white" stroke="#EAEAEB"/>
<rect width="66.8284" height="66.8284" transform="matrix(0.869981 0.493085 -0.869981 0.493085 340.465 197.868)" fill="white" stroke="#EAEAEB"/>
<rect width="66.8284" height="66.8284" transform="matrix(0.869981 0.493085 -0.869981 0.493085 282.324 230.821)" fill="white" stroke="#EAEAEB"/>
<rect width="66.8284" height="66.8284" transform="matrix(0.869981 0.493085 -0.869981 0.493085 224.188 263.776)" fill="white" stroke="#EAEAEB"/>
<rect width="66.8284" height="66.8284" transform="matrix(0.869981 0.493085 -0.869981 0.493085 166.048 296.727)" fill="white" stroke="#EAEAEB"/>
<rect width="66.8284" height="66.8284" transform="matrix(0.869981 0.493085 -0.869981 0.493085 107.907 329.679)" fill="white" stroke="#EAEAEB"/>
<rect width="66.8284" height="66.8284" transform="matrix(0.869981 0.493085 -0.869981 0.493085 49.7684 362.631)" fill="white" stroke="#EAEAEB"/>
<rect width="66.8284" height="66.8284" transform="matrix(0.869981 0.493085 -0.869981 0.493085 -8.37231 395.583)" fill="white" stroke="#EAEAEB"/>
<rect width="66.8284" height="66.8284" transform="matrix(0.869981 0.493085 -0.869981 0.493085 921.859 -65.7478)" fill="white" stroke="#EAEAEB"/>
<rect width="66.8284" height="66.8284" transform="matrix(0.869981 0.493085 -0.869981 0.493085 863.724 -32.7959)" fill="white" stroke="#EAEAEB"/>
<rect width="66.8284" height="66.8284" transform="matrix(0.869981 0.493085 -0.869981 0.493085 805.583 0.158936)" fill="white" stroke="#EAEAEB"/>
<rect width="66.8284" height="66.8284" transform="matrix(0.869981 0.493085 -0.869981 0.493085 747.442 33.1108)" fill="white" stroke="#EAEAEB"/>
<rect width="66.8284" height="66.8284" transform="matrix(0.869981 0.493085 -0.869981 0.493085 689.301 66.062)" fill="white" stroke="#EAEAEB"/>
<rect width="66.8284" height="66.8284" transform="matrix(0.869981 0.493085 -0.869981 0.493085 631.166 99.0134)" fill="white" stroke="#EAEAEB"/>
<rect width="66.8284" height="66.8284" transform="matrix(0.869981 0.493085 -0.869981 0.493085 573.025 131.965)" fill="white" stroke="#EAEAEB"/>
<rect width="66.8284" height="66.8284" transform="matrix(0.869981 0.493085 -0.869981 0.493085 514.883 164.917)" fill="white" stroke="#EAEAEB"/>
<rect width="66.8284" height="66.8284" transform="matrix(0.869981 0.493085 -0.869981 0.493085 456.746 197.869)" fill="white" stroke="#EAEAEB"/>
<rect width="66.8284" height="66.8284" transform="matrix(0.869981 0.493085 -0.869981 0.493085 398.607 230.82)" fill="white" stroke="#EAEAEB"/>
<rect width="66.8284" height="66.8284" transform="matrix(0.869981 0.493085 -0.869981 0.493085 340.466 263.775)" fill="white" stroke="#EAEAEB"/>
<rect width="66.8284" height="66.8284" transform="matrix(0.869981 0.493085 -0.869981 0.493085 282.325 296.728)" fill="white" stroke="#EAEAEB"/>
<rect width="66.8284" height="66.8284" transform="matrix(0.869981 0.493085 -0.869981 0.493085 166.048 362.632)" fill="white" stroke="#EAEAEB"/>
<rect width="66.8284" height="66.8284" transform="matrix(0.869981 0.493085 -0.869981 0.493085 107.906 395.583)" fill="white" stroke="#EAEAEB"/>
<rect width="66.8284" height="66.8284" transform="matrix(0.869981 0.493085 -0.869981 0.493085 49.7684 428.534)" fill="white" stroke="#EAEAEB"/>
<rect width="66.8284" height="66.8284" transform="matrix(0.869981 0.493085 -0.869981 0.493085 -8.37231 461.488)" fill="white" stroke="#EAEAEB"/>
<rect width="66.8284" height="66.8284" transform="matrix(0.869981 0.493085 -0.869981 0.493085 1038.14 -65.748)" fill="white" stroke="#EAEAEB"/>
<rect width="66.8284" height="66.8284" transform="matrix(0.869981 0.493085 -0.869981 0.493085 980.001 -32.7959)" fill="white" stroke="#EAEAEB"/>
<rect width="66.8284" height="66.8284" transform="matrix(0.869981 0.493085 -0.869981 0.493085 921.859 0.158936)" fill="white" stroke="#EAEAEB"/>
<rect width="66.8284" height="66.8284" transform="matrix(0.869981 0.493085 -0.869981 0.493085 863.724 33.1101)" fill="white" stroke="#EAEAEB"/>
<rect width="66.8284" height="66.8284" transform="matrix(0.869981 0.493085 -0.869981 0.493085 805.583 66.062)" fill="white" stroke="#EAEAEB"/>
<rect width="66.8284" height="66.8284" transform="matrix(0.869981 0.493085 -0.869981 0.493085 747.442 99.0137)" fill="white" stroke="#EAEAEB"/>
<rect width="66.8284" height="66.8284" transform="matrix(0.869981 0.493085 -0.869981 0.493085 689.301 131.965)" fill="white" stroke="#EAEAEB"/>
<rect width="66.8284" height="66.8284" transform="matrix(0.869981 0.493085 -0.869981 0.493085 631.166 164.917)" fill="white" stroke="#EAEAEB"/>
<rect width="66.8284" height="66.8284" transform="matrix(0.869981 0.493085 -0.869981 0.493085 573.025 197.868)" fill="white" stroke="#EAEAEB"/>
<rect width="66.8284" height="66.8284" transform="matrix(0.869981 0.493085 -0.869981 0.493085 514.884 230.82)" fill="white" stroke="#EAEAEB"/>
<rect width="66.8284" height="66.8284" transform="matrix(0.869981 0.493085 -0.869981 0.493085 456.746 263.776)" fill="white" stroke="#EAEAEB"/>
<rect width="66.8284" height="66.8284" transform="matrix(0.869981 0.493085 -0.869981 0.493085 398.607 296.728)" fill="white" stroke="#EAEAEB"/>
<rect width="66.8284" height="66.8284" transform="matrix(0.869981 0.493085 -0.869981 0.493085 340.465 329.679)" fill="white" stroke="#EAEAEB"/>
<rect width="66.8284" height="66.8284" transform="matrix(0.869981 0.493085 -0.869981 0.493085 282.324 362.632)" fill="white" stroke="#EAEAEB"/>
<rect width="66.8284" height="66.8284" transform="matrix(0.869981 0.493085 -0.869981 0.493085 224.188 395.583)" fill="white" stroke="#EAEAEB"/>
<rect width="66.8284" height="66.8284" transform="matrix(0.869981 0.493085 -0.869981 0.493085 166.048 428.534)" fill="white" stroke="#EAEAEB"/>
<rect width="66.8284" height="66.8284" transform="matrix(0.869981 0.493085 -0.869981 0.493085 107.907 461.489)" fill="white" stroke="#EAEAEB"/>
<rect width="66.8284" height="66.8284" transform="matrix(0.869981 0.493085 -0.869981 0.493085 49.7686 494.44)" fill="white" stroke="#EAEAEB"/>
<rect width="66.8284" height="66.8284" transform="matrix(0.869981 0.493085 -0.869981 0.493085 -8.37231 527.393)" fill="white" stroke="#EAEAEB"/>
<rect width="66.8284" height="66.8284" transform="matrix(0.869981 0.493085 -0.869981 0.493085 1154.42 -65.7483)" fill="white" stroke="#EAEAEB"/>
<rect width="66.8284" height="66.8284" transform="matrix(0.869981 0.493085 -0.869981 0.493085 1096.28 -32.7959)" fill="white" stroke="#EAEAEB"/>
<rect width="66.8284" height="66.8284" transform="matrix(0.869981 0.493085 -0.869981 0.493085 1038.14 0.15918)" fill="white" stroke="#EAEAEB"/>
<rect width="66.8284" height="66.8284" transform="matrix(0.869981 0.493085 -0.869981 0.493085 980.001 33.1106)" fill="white" stroke="#EAEAEB"/>
<rect width="66.8284" height="66.8284" transform="matrix(0.869981 0.493085 -0.869981 0.493085 921.859 66.0623)" fill="white" stroke="#EAEAEB"/>
<rect width="66.8284" height="66.8284" transform="matrix(0.869981 0.493085 -0.869981 0.493085 863.725 99.0137)" fill="white" stroke="#EAEAEB"/>
<rect width="66.8284" height="66.8284" transform="matrix(0.869981 0.493085 -0.869981 0.493085 805.583 131.966)" fill="white" stroke="#EAEAEB"/>
<rect width="66.8284" height="66.8284" transform="matrix(0.869981 0.493085 -0.869981 0.493085 747.443 164.917)" fill="white" stroke="#EAEAEB"/>
<rect width="66.8284" height="66.8284" transform="matrix(0.869981 0.493085 -0.869981 0.493085 689.301 197.868)" fill="white" stroke="#EAEAEB"/>
<rect width="66.8284" height="66.8284" transform="matrix(0.869981 0.493085 -0.869981 0.493085 631.166 230.821)" fill="white" stroke="#EAEAEB"/>
<rect width="66.8284" height="66.8284" transform="matrix(0.869981 0.493085 -0.869981 0.493085 573.024 263.776)" fill="white" stroke="#EAEAEB"/>
<rect width="66.8284" height="66.8284" transform="matrix(0.869981 0.493085 -0.869981 0.493085 514.883 296.727)" fill="white" stroke="#EAEAEB"/>
<rect width="66.8284" height="66.8284" transform="matrix(0.869981 0.493085 -0.869981 0.493085 456.746 329.679)" fill="white" stroke="#EAEAEB"/>
<rect width="66.8284" height="66.8284" transform="matrix(0.869981 0.493085 -0.869981 0.493085 398.607 362.631)" fill="white" stroke="#EAEAEB"/>
<rect width="66.8284" height="66.8284" transform="matrix(0.869981 0.493085 -0.869981 0.493085 340.466 395.583)" fill="white" stroke="#EAEAEB"/>
<rect width="66.8284" height="66.8284" transform="matrix(0.869981 0.493085 -0.869981 0.493085 282.325 428.535)" fill="white" stroke="#EAEAEB"/>
<rect width="66.8284" height="66.8284" transform="matrix(0.869981 0.493085 -0.869981 0.493085 224.187 461.487)" fill="white" stroke="#EAEAEB"/>
<rect width="66.8284" height="66.8284" transform="matrix(0.869981 0.493085 -0.869981 0.493085 166.048 494.44)" fill="white" stroke="#EAEAEB"/>
<rect width="66.8284" height="66.8284" transform="matrix(0.869981 0.493085 -0.869981 0.493085 107.907 527.393)" fill="white" stroke="#EAEAEB"/>
<rect width="66.8284" height="66.8284" transform="matrix(0.869981 0.493085 -0.869981 0.493085 49.7687 560.345)" fill="white" stroke="#EAEAEB"/>
<rect width="66.8284" height="66.8284" transform="matrix(0.869981 0.493085 -0.869981 0.493085 -8.37231 593.296)" fill="white" stroke="#EAEAEB"/>
<rect width="66.8284" height="66.8284" transform="matrix(0.869981 0.493085 -0.869981 0.493085 1270.7 -65.748)" fill="white" stroke="#EAEAEB"/>
<rect width="66.8284" height="66.8284" transform="matrix(0.869981 0.493085 -0.869981 0.493085 1212.56 -32.7959)" fill="white" stroke="#EAEAEB"/>
<rect width="66.8284" height="66.8284" transform="matrix(0.869981 0.493085 -0.869981 0.493085 1154.42 0.158936)" fill="white" stroke="#EAEAEB"/>
<rect width="66.8284" height="66.8284" transform="matrix(0.869981 0.493085 -0.869981 0.493085 1096.28 33.1104)" fill="white" stroke="#EAEAEB"/>
<rect width="66.8284" height="66.8284" transform="matrix(0.869981 0.493085 -0.869981 0.493085 1038.14 66.062)" fill="white" stroke="#EAEAEB"/>
<rect width="66.8284" height="66.8284" transform="matrix(0.869981 0.493085 -0.869981 0.493085 980.001 99.0142)" fill="white" stroke="#EAEAEB"/>
<rect width="66.8284" height="66.8284" transform="matrix(0.869981 0.493085 -0.869981 0.493085 921.859 131.966)" fill="white" stroke="#EAEAEB"/>
<rect width="66.8284" height="66.8284" transform="matrix(0.869981 0.493085 -0.869981 0.493085 863.724 164.917)" fill="white" stroke="#EAEAEB"/>
<rect width="66.8284" height="66.8284" transform="matrix(0.869981 0.493085 -0.869981 0.493085 805.583 197.869)" fill="white" stroke="#EAEAEB"/>
<rect width="66.8284" height="66.8284" transform="matrix(0.869981 0.493085 -0.869981 0.493085 747.442 230.82)" fill="white" stroke="#EAEAEB"/>
<rect width="66.8284" height="66.8284" transform="matrix(0.869981 0.493085 -0.869981 0.493085 689.301 263.776)" fill="white" stroke="#EAEAEB"/>
<rect width="66.8284" height="66.8284" transform="matrix(0.869981 0.493085 -0.869981 0.493085 631.166 296.728)" fill="white" stroke="#EAEAEB"/>
<rect width="66.8284" height="66.8284" transform="matrix(0.869981 0.493085 -0.869981 0.493085 573.025 329.679)" fill="white" stroke="#EAEAEB"/>
<rect width="66.8284" height="66.8284" transform="matrix(0.869981 0.493085 -0.869981 0.493085 514.883 362.631)" fill="white" stroke="#EAEAEB"/>
<rect width="66.8284" height="66.8284" transform="matrix(0.869981 0.493085 -0.869981 0.493085 456.746 395.583)" fill="white" stroke="#EAEAEB"/>
<rect width="66.8284" height="66.8284" transform="matrix(0.869981 0.493085 -0.869981 0.493085 398.607 428.535)" fill="white" stroke="#EAEAEB"/>
<rect width="66.8284" height="66.8284" transform="matrix(0.869981 0.493085 -0.869981 0.493085 340.466 461.488)" fill="white" stroke="#EAEAEB"/>
<rect width="66.8284" height="66.8284" transform="matrix(0.869981 0.493085 -0.869981 0.493085 282.325 494.44)" fill="white" stroke="#EAEAEB"/>
<rect width="66.8284" height="66.8284" transform="matrix(0.869981 0.493085 -0.869981 0.493085 224.187 527.393)" fill="white" stroke="#EAEAEB"/>
<rect width="66.8284" height="66.8284" transform="matrix(0.869981 0.493085 -0.869981 0.493085 166.048 560.345)" fill="white" stroke="#EAEAEB"/>
<rect width="66.8284" height="66.8284" transform="matrix(0.869981 0.493085 -0.869981 0.493085 107.906 593.297)" fill="white" stroke="#EAEAEB"/>
<rect width="66.8284" height="66.8284" transform="matrix(0.869981 0.493085 -0.869981 0.493085 49.7687 626.249)" fill="white" stroke="#EAEAEB"/>
<rect width="66.8284" height="66.8284" transform="matrix(0.869981 0.493085 -0.869981 0.493085 -8.37231 659.2)" fill="white" stroke="#EAEAEB"/>
<rect width="66.8284" height="66.8284" transform="matrix(0.869981 0.493085 -0.869981 0.493085 1386.98 -65.7485)" fill="white" stroke="#EAEAEB"/>
<rect width="66.8284" height="66.8284" transform="matrix(0.869981 0.493085 -0.869981 0.493085 1328.84 -32.7959)" fill="white" stroke="#EAEAEB"/>
<rect width="66.8284" height="66.8284" transform="matrix(0.869981 0.493085 -0.869981 0.493085 1270.7 0.158447)" fill="white" stroke="#EAEAEB"/>
<rect width="66.8284" height="66.8284" transform="matrix(0.869981 0.493085 -0.869981 0.493085 1212.56 33.1106)" fill="white" stroke="#EAEAEB"/>
<rect width="66.8284" height="66.8284" transform="matrix(0.869981 0.493085 -0.869981 0.493085 1154.42 66.0623)" fill="white" stroke="#EAEAEB"/>
<rect width="66.8284" height="66.8284" transform="matrix(0.869981 0.493085 -0.869981 0.493085 1096.28 99.0142)" fill="white" stroke="#EAEAEB"/>
<rect width="66.8284" height="66.8284" transform="matrix(0.869981 0.493085 -0.869981 0.493085 1038.14 131.966)" fill="white" stroke="#EAEAEB"/>
<rect width="66.8284" height="66.8284" transform="matrix(0.869981 0.493085 -0.869981 0.493085 980.001 164.918)" fill="white" stroke="#EAEAEB"/>
<rect width="66.8284" height="66.8284" transform="matrix(0.869981 0.493085 -0.869981 0.493085 921.859 197.869)" fill="white" stroke="#EAEAEB"/>
<rect width="66.8284" height="66.8284" transform="matrix(0.869981 0.493085 -0.869981 0.493085 863.724 230.821)" fill="white" stroke="#EAEAEB"/>
<rect width="66.8284" height="66.8284" transform="matrix(0.869981 0.493085 -0.869981 0.493085 805.583 263.776)" fill="white" stroke="#EAEAEB"/>
<rect width="66.8284" height="66.8284" transform="matrix(0.869981 0.493085 -0.869981 0.493085 747.442 296.728)" fill="white" stroke="#EAEAEB"/>
<rect width="66.8284" height="66.8284" transform="matrix(0.869981 0.493085 -0.869981 0.493085 689.301 329.679)" fill="white" stroke="#EAEAEB"/>
<rect width="66.8284" height="66.8284" transform="matrix(0.869981 0.493085 -0.869981 0.493085 631.166 362.631)" fill="white" stroke="#EAEAEB"/>
<rect width="66.8284" height="66.8284" transform="matrix(0.869981 0.493085 -0.869981 0.493085 573.025 395.583)" fill="white" stroke="#EAEAEB"/>
<rect width="66.8284" height="66.8284" transform="matrix(0.869981 0.493085 -0.869981 0.493085 514.883 428.534)" fill="white" stroke="#EAEAEB"/>
<rect width="66.8284" height="66.8284" transform="matrix(0.869981 0.493085 -0.869981 0.493085 456.746 461.488)" fill="white" stroke="#EAEAEB"/>
<rect width="66.8284" height="66.8284" transform="matrix(0.869981 0.493085 -0.869981 0.493085 398.607 494.44)" fill="white" stroke="#EAEAEB"/>
<rect width="66.8284" height="66.8284" transform="matrix(0.869981 0.493085 -0.869981 0.493085 340.466 527.393)" fill="white" stroke="#EAEAEB"/>
<rect width="66.8284" height="66.8284" transform="matrix(0.869981 0.493085 -0.869981 0.493085 282.324 560.345)" fill="white" stroke="#EAEAEB"/>
<rect width="66.8284" height="66.8284" transform="matrix(0.869981 0.493085 -0.869981 0.493085 224.187 593.297)" fill="white" stroke="#EAEAEB"/>
<rect width="66.8284" height="66.8284" transform="matrix(0.869981 0.493085 -0.869981 0.493085 166.048 626.248)" fill="white" stroke="#EAEAEB"/>
<rect width="66.8284" height="66.8284" transform="matrix(0.869981 0.493085 -0.869981 0.493085 107.907 659.201)" fill="white" stroke="#EAEAEB"/>
<rect width="66.8284" height="66.8284" transform="matrix(0.869981 0.493085 -0.869981 0.493085 49.7687 692.152)" fill="white" stroke="#EAEAEB"/>
<rect width="66.8284" height="66.8284" transform="matrix(0.869981 0.493085 -0.869981 0.493085 -8.37231 725.104)" fill="white" stroke="#EAEAEB"/>
<rect width="66.8284" height="66.8284" transform="matrix(0.869981 0.493085 -0.869981 0.493085 1503.26 -65.7485)" fill="white" stroke="#EAEAEB"/>
<rect width="66.8284" height="66.8284" transform="matrix(0.869981 0.493085 -0.869981 0.493085 1445.12 -32.7959)" fill="white" stroke="#EAEAEB"/>
<rect width="66.8284" height="66.8284" transform="matrix(0.869981 0.493085 -0.869981 0.493085 1386.98 0.158203)" fill="white" stroke="#EAEAEB"/>
<rect width="66.8284" height="66.8284" transform="matrix(0.869981 0.493085 -0.869981 0.493085 1328.84 33.1104)" fill="white" stroke="#EAEAEB"/>
<rect width="66.8284" height="66.8284" transform="matrix(0.869981 0.493085 -0.869981 0.493085 1270.7 66.0618)" fill="white" stroke="#EAEAEB"/>
<rect width="66.8284" height="66.8284" transform="matrix(0.869981 0.493085 -0.869981 0.493085 1212.56 99.0139)" fill="white" stroke="#EAEAEB"/>
<rect width="66.8284" height="66.8284" transform="matrix(0.869981 0.493085 -0.869981 0.493085 1154.42 131.966)" fill="white" stroke="#EAEAEB"/>
<rect width="66.8284" height="66.8284" transform="matrix(0.869981 0.493085 -0.869981 0.493085 1096.28 164.917)" fill="white" stroke="#EAEAEB"/>
<rect width="66.8284" height="66.8284" transform="matrix(0.869981 0.493085 -0.869981 0.493085 1038.14 197.87)" fill="white" stroke="#EAEAEB"/>
<rect width="66.8284" height="66.8284" transform="matrix(0.869981 0.493085 -0.869981 0.493085 980.001 230.821)" fill="white" stroke="#EAEAEB"/>
<rect width="66.8284" height="66.8284" transform="matrix(0.869981 0.493085 -0.869981 0.493085 921.86 263.776)" fill="white" stroke="#EAEAEB"/>
<rect width="66.8284" height="66.8284" transform="matrix(0.869981 0.493085 -0.869981 0.493085 863.725 296.728)" fill="white" stroke="#EAEAEB"/>
<rect width="66.8284" height="66.8284" transform="matrix(0.869981 0.493085 -0.869981 0.493085 805.584 329.679)" fill="white" stroke="#EAEAEB"/>
<rect width="66.8284" height="66.8284" transform="matrix(0.869981 0.493085 -0.869981 0.493085 747.443 362.631)" fill="white" stroke="#EAEAEB"/>
<rect width="66.8284" height="66.8284" transform="matrix(0.869981 0.493085 -0.869981 0.493085 689.301 395.583)" fill="white" stroke="#EAEAEB"/>
<rect width="66.8284" height="66.8284" transform="matrix(0.869981 0.493085 -0.869981 0.493085 631.166 428.535)" fill="white" stroke="#EAEAEB"/>
<rect width="66.8284" height="66.8284" transform="matrix(0.869981 0.493085 -0.869981 0.493085 573.024 461.487)" fill="white" stroke="#EAEAEB"/>
<rect width="66.8284" height="66.8284" transform="matrix(0.869981 0.493085 -0.869981 0.493085 514.884 494.44)" fill="white" stroke="#EAEAEB"/>
<rect width="66.8284" height="66.8284" transform="matrix(0.869981 0.493085 -0.869981 0.493085 456.746 527.393)" fill="white" stroke="#EAEAEB"/>
<rect width="66.8284" height="66.8284" transform="matrix(0.869981 0.493085 -0.869981 0.493085 398.607 560.345)" fill="white" stroke="#EAEAEB"/>
<rect width="66.8284" height="66.8284" transform="matrix(0.869981 0.493085 -0.869981 0.493085 340.466 593.297)" fill="white" stroke="#EAEAEB"/>
<rect width="66.8284" height="66.8284" transform="matrix(0.869981 0.493085 -0.869981 0.493085 282.324 626.249)" fill="white" stroke="#EAEAEB"/>
<rect width="66.8284" height="66.8284" transform="matrix(0.869981 0.493085 -0.869981 0.493085 224.187 659.2)" fill="white" stroke="#EAEAEB"/>
<rect width="66.8284" height="66.8284" transform="matrix(0.869981 0.493085 -0.869981 0.493085 166.048 692.152)" fill="white" stroke="#EAEAEB"/>
<rect width="66.8284" height="66.8284" transform="matrix(0.869981 0.493085 -0.869981 0.493085 107.907 725.104)" fill="white" stroke="#EAEAEB"/>
<rect width="66.8284" height="66.8284" transform="matrix(0.869981 0.493085 -0.869981 0.493085 49.7687 758.056)" fill="white" stroke="#EAEAEB"/>
<rect width="66.8284" height="66.8284" transform="matrix(0.869981 0.493085 -0.869981 0.493085 -8.37231 791.008)" fill="white" stroke="#EAEAEB"/>
<rect width="66.8284" height="66.8284" transform="matrix(0.869981 0.493085 -0.869981 0.493085 1619.53 -65.7485)" fill="white" stroke="#EAEAEB"/>
<rect width="66.8284" height="66.8284" transform="matrix(0.869981 0.493085 -0.869981 0.493085 1561.4 -32.7959)" fill="white" stroke="#EAEAEB"/>
<rect width="66.8284" height="66.8284" transform="matrix(0.869981 0.493085 -0.869981 0.493085 1503.26 0.158936)" fill="white" stroke="#EAEAEB"/>
<rect width="66.8284" height="66.8284" transform="matrix(0.869981 0.493085 -0.869981 0.493085 1445.12 33.1096)" fill="white" stroke="#EAEAEB"/>
<rect width="66.8284" height="66.8284" transform="matrix(0.869981 0.493085 -0.869981 0.493085 1386.98 66.0615)" fill="white" stroke="#EAEAEB"/>
<rect width="66.8284" height="66.8284" transform="matrix(0.869981 0.493085 -0.869981 0.493085 1328.84 99.0137)" fill="white" stroke="#EAEAEB"/>
<rect width="66.8284" height="66.8284" transform="matrix(0.869981 0.493085 -0.869981 0.493085 1270.7 131.965)" fill="white" stroke="#EAEAEB"/>
<rect width="66.8284" height="66.8284" transform="matrix(0.869981 0.493085 -0.869981 0.493085 1212.56 164.917)" fill="white" stroke="#EAEAEB"/>
<rect width="66.8284" height="66.8284" transform="matrix(0.869981 0.493085 -0.869981 0.493085 1154.42 197.87)" fill="white" stroke="#EAEAEB"/>
<rect width="66.8284" height="66.8284" transform="matrix(0.869981 0.493085 -0.869981 0.493085 1096.28 230.821)" fill="white" stroke="#EAEAEB"/>
<rect width="66.8284" height="66.8284" transform="matrix(0.869981 0.493085 -0.869981 0.493085 1038.14 263.776)" fill="white" stroke="#EAEAEB"/>
<rect width="66.8284" height="66.8284" transform="matrix(0.869981 0.493085 -0.869981 0.493085 980 296.729)" fill="white" stroke="#EAEAEB"/>
<rect width="66.8284" height="66.8284" transform="matrix(0.869981 0.493085 -0.869981 0.493085 921.86 329.679)" fill="white" stroke="#EAEAEB"/>
<rect width="66.8284" height="66.8284" transform="matrix(0.869981 0.493085 -0.869981 0.493085 863.725 362.631)" fill="white" stroke="#EAEAEB"/>
<rect width="66.8284" height="66.8284" transform="matrix(0.869981 0.493085 -0.869981 0.493085 805.583 395.583)" fill="white" stroke="#EAEAEB"/>
<rect width="66.8284" height="66.8284" transform="matrix(0.869981 0.493085 -0.869981 0.493085 747.442 428.534)" fill="white" stroke="#EAEAEB"/>
<rect width="66.8284" height="66.8284" transform="matrix(0.869981 0.493085 -0.869981 0.493085 689.301 461.487)" fill="white" stroke="#EAEAEB"/>
<rect width="66.8284" height="66.8284" transform="matrix(0.869981 0.493085 -0.869981 0.493085 631.166 494.441)" fill="white" stroke="#EAEAEB"/>
<rect width="66.8284" height="66.8284" transform="matrix(0.869981 0.493085 -0.869981 0.493085 573.024 527.393)" fill="white" stroke="#EAEAEB"/>
<rect width="66.8284" height="66.8284" transform="matrix(0.869981 0.493085 -0.869981 0.493085 514.883 560.345)" fill="white" stroke="#EAEAEB"/>
<rect width="66.8284" height="66.8284" transform="matrix(0.869981 0.493085 -0.869981 0.493085 456.746 593.297)" fill="white" stroke="#EAEAEB"/>
<rect width="66.8284" height="66.8284" transform="matrix(0.869981 0.493085 -0.869981 0.493085 398.607 626.248)" fill="white" stroke="#EAEAEB"/>
<rect width="66.8284" height="66.8284" transform="matrix(0.869981 0.493085 -0.869981 0.493085 340.465 659.201)" fill="white" stroke="#EAEAEB"/>
<rect width="66.8284" height="66.8284" transform="matrix(0.869981 0.493085 -0.869981 0.493085 282.325 692.152)" fill="white" stroke="#EAEAEB"/>
<rect width="66.8284" height="66.8284" transform="matrix(0.869981 0.493085 -0.869981 0.493085 224.187 725.104)" fill="white" stroke="#EAEAEB"/>
<rect width="66.8284" height="66.8284" transform="matrix(0.869981 0.493085 -0.869981 0.493085 166.048 758.056)" fill="white" stroke="#EAEAEB"/>
<rect width="66.8284" height="66.8284" transform="matrix(0.869981 0.493085 -0.869981 0.493085 107.907 791.007)" fill="white" stroke="#EAEAEB"/>
<rect width="66.8284" height="66.8284" transform="matrix(0.869981 0.493085 -0.869981 0.493085 49.7683 823.962)" fill="white" stroke="#EAEAEB"/>
<rect width="66.8284" height="66.8284" transform="matrix(0.869981 0.493085 -0.869981 0.493085 -8.37231 856.918)" fill="white" stroke="#EAEAEB"/>
<rect width="66.8284" height="66.8284" transform="matrix(0.869981 0.493085 -0.869981 0.493085 1735.81 -65.749)" fill="white" stroke="#EAEAEB"/>
<rect width="66.8284" height="66.8284" transform="matrix(0.869981 0.493085 -0.869981 0.493085 1677.67 -32.7959)" fill="white" stroke="#EAEAEB"/>
<rect width="66.8284" height="66.8284" transform="matrix(0.869981 0.493085 -0.869981 0.493085 1619.53 0.158203)" fill="white" stroke="#EAEAEB"/>
<rect width="66.8284" height="66.8284" transform="matrix(0.869981 0.493085 -0.869981 0.493085 1561.4 33.1099)" fill="white" stroke="#EAEAEB"/>
<rect width="66.8284" height="66.8284" transform="matrix(0.869981 0.493085 -0.869981 0.493085 1503.26 66.062)" fill="white" stroke="#EAEAEB"/>
<rect width="66.8284" height="66.8284" transform="matrix(0.869981 0.493085 -0.869981 0.493085 1445.12 99.0134)" fill="white" stroke="#EAEAEB"/>
<rect width="66.8284" height="66.8284" transform="matrix(0.869981 0.493085 -0.869981 0.493085 1386.98 131.965)" fill="white" stroke="#EAEAEB"/>
<rect width="66.8284" height="66.8284" transform="matrix(0.869981 0.493085 -0.869981 0.493085 1328.84 164.917)" fill="white" stroke="#EAEAEB"/>
<rect width="66.8284" height="66.8284" transform="matrix(0.869981 0.493085 -0.869981 0.493085 1270.7 197.869)" fill="white" stroke="#EAEAEB"/>
<rect width="66.8284" height="66.8284" transform="matrix(0.869981 0.493085 -0.869981 0.493085 1212.56 230.821)" fill="white" stroke="#EAEAEB"/>
<rect width="66.8284" height="66.8284" transform="matrix(0.869981 0.493085 -0.869981 0.493085 1154.42 263.776)" fill="white" stroke="#EAEAEB"/>
<rect width="66.8284" height="66.8284" transform="matrix(0.869981 0.493085 -0.869981 0.493085 1096.28 296.728)" fill="white" stroke="#EAEAEB"/>
<rect width="66.8284" height="66.8284" transform="matrix(0.869981 0.493085 -0.869981 0.493085 1038.14 329.68)" fill="white" stroke="#EAEAEB"/>
<rect width="66.8284" height="66.8284" transform="matrix(0.869981 0.493085 -0.869981 0.493085 980.001 362.632)" fill="white" stroke="#EAEAEB"/>
<rect width="66.8284" height="66.8284" transform="matrix(0.869981 0.493085 -0.869981 0.493085 921.86 395.582)" fill="white" stroke="#EAEAEB"/>
<rect width="66.8284" height="66.8284" transform="matrix(0.869981 0.493085 -0.869981 0.493085 863.724 428.535)" fill="white" stroke="#EAEAEB"/>
<rect width="66.8284" height="66.8284" transform="matrix(0.869981 0.493085 -0.869981 0.493085 805.584 461.487)" fill="white" stroke="#EAEAEB"/>
<rect width="66.8284" height="66.8284" transform="matrix(0.869981 0.493085 -0.869981 0.493085 747.443 494.44)" fill="white" stroke="#EAEAEB"/>
<rect width="66.8284" height="66.8284" transform="matrix(0.869981 0.493085 -0.869981 0.493085 689.301 527.393)" fill="white" stroke="#EAEAEB"/>
<rect width="66.8284" height="66.8284" transform="matrix(0.869981 0.493085 -0.869981 0.493085 631.166 560.346)" fill="white" stroke="#EAEAEB"/>
<rect width="66.8284" height="66.8284" transform="matrix(0.869981 0.493085 -0.869981 0.493085 573.024 593.297)" fill="white" stroke="#EAEAEB"/>
<rect width="66.8284" height="66.8284" transform="matrix(0.869981 0.493085 -0.869981 0.493085 514.883 626.248)" fill="white" stroke="#EAEAEB"/>
<rect width="66.8284" height="66.8284" transform="matrix(0.869981 0.493085 -0.869981 0.493085 456.746 659.2)" fill="white" stroke="#EAEAEB"/>
<rect width="66.8284" height="66.8284" transform="matrix(0.869981 0.493085 -0.869981 0.493085 398.607 692.152)" fill="white" stroke="#EAEAEB"/>
<rect width="66.8284" height="66.8284" transform="matrix(0.869981 0.493085 -0.869981 0.493085 340.466 725.104)" fill="white" stroke="#EAEAEB"/>
<rect width="66.8284" height="66.8284" transform="matrix(0.869981 0.493085 -0.869981 0.493085 282.324 758.055)" fill="white" stroke="#EAEAEB"/>
<rect width="66.8284" height="66.8284" transform="matrix(0.869981 0.493085 -0.869981 0.493085 224.187 791.007)" fill="white" stroke="#EAEAEB"/>
<rect width="66.8284" height="66.8284" transform="matrix(0.869981 0.493085 -0.869981 0.493085 166.047 823.962)" fill="white" stroke="#EAEAEB"/>
<rect width="66.8284" height="66.8284" transform="matrix(0.869981 0.493085 -0.869981 0.493085 107.906 856.918)" fill="white" stroke="#EAEAEB"/>
<rect width="66.8284" height="66.8284" transform="matrix(0.869981 0.493085 -0.869981 0.493085 1852.09 -65.7493)" fill="white" stroke="#EAEAEB"/>
<rect width="66.8284" height="66.8284" transform="matrix(0.869981 0.493085 -0.869981 0.493085 1793.95 -32.7959)" fill="white" stroke="#EAEAEB"/>
<rect width="66.8284" height="66.8284" transform="matrix(0.869981 0.493085 -0.869981 0.493085 1735.81 0.157715)" fill="white" stroke="#EAEAEB"/>
<rect width="66.8284" height="66.8284" transform="matrix(0.869981 0.493085 -0.869981 0.493085 1677.67 33.1091)" fill="white" stroke="#EAEAEB"/>
<rect width="66.8284" height="66.8284" transform="matrix(0.869981 0.493085 -0.869981 0.493085 1619.53 66.0618)" fill="white" stroke="#EAEAEB"/>
<rect width="66.8284" height="66.8284" transform="matrix(0.869981 0.493085 -0.869981 0.493085 1561.4 99.0127)" fill="white" stroke="#EAEAEB"/>
<rect width="66.8284" height="66.8284" transform="matrix(0.869981 0.493085 -0.869981 0.493085 1503.26 131.966)" fill="white" stroke="#EAEAEB"/>
<rect width="66.8284" height="66.8284" transform="matrix(0.869981 0.493085 -0.869981 0.493085 1445.12 164.917)" fill="white" stroke="#EAEAEB"/>
<rect width="66.8284" height="66.8284" transform="matrix(0.869981 0.493085 -0.869981 0.493085 1386.98 197.869)" fill="white" stroke="#EAEAEB"/>
<rect width="66.8284" height="66.8284" transform="matrix(0.869981 0.493085 -0.869981 0.493085 1328.84 230.821)" fill="white" stroke="#EAEAEB"/>
<rect width="66.8284" height="66.8284" transform="matrix(0.869981 0.493085 -0.869981 0.493085 1270.7 263.776)" fill="white" stroke="#EAEAEB"/>
<rect width="66.8284" height="66.8284" transform="matrix(0.869981 0.493085 -0.869981 0.493085 1212.56 296.728)" fill="white" stroke="#EAEAEB"/>
<rect width="66.8284" height="66.8284" transform="matrix(0.869981 0.493085 -0.869981 0.493085 1154.42 329.679)" fill="white" stroke="#EAEAEB"/>
<rect width="66.8284" height="66.8284" transform="matrix(0.869981 0.493085 -0.869981 0.493085 1096.28 362.631)" fill="white" stroke="#EAEAEB"/>
<rect width="66.8284" height="66.8284" transform="matrix(0.869981 0.493085 -0.869981 0.493085 1038.14 395.583)" fill="white" stroke="#EAEAEB"/>
<rect width="66.8284" height="66.8284" transform="matrix(0.869981 0.493085 -0.869981 0.493085 980.001 428.534)" fill="white" stroke="#EAEAEB"/>
<rect width="66.8284" height="66.8284" transform="matrix(0.869981 0.493085 -0.869981 0.493085 921.859 461.487)" fill="white" stroke="#EAEAEB"/>
<rect width="66.8284" height="66.8284" transform="matrix(0.869981 0.493085 -0.869981 0.493085 863.725 494.441)" fill="white" stroke="#EAEAEB"/>
<rect width="66.8284" height="66.8284" transform="matrix(0.869981 0.493085 -0.869981 0.493085 805.583 527.393)" fill="white" stroke="#EAEAEB"/>
<rect width="66.8284" height="66.8284" transform="matrix(0.869981 0.493085 -0.869981 0.493085 747.442 560.345)" fill="white" stroke="#EAEAEB"/>
<rect width="66.8284" height="66.8284" transform="matrix(0.869981 0.493085 -0.869981 0.493085 689.301 593.296)" fill="white" stroke="#EAEAEB"/>
<rect width="66.8284" height="66.8284" transform="matrix(0.869981 0.493085 -0.869981 0.493085 631.166 626.249)" fill="white" stroke="#EAEAEB"/>
<rect width="66.8284" height="66.8284" transform="matrix(0.869981 0.493085 -0.869981 0.493085 573.024 659.2)" fill="white" stroke="#EAEAEB"/>
<rect width="66.8284" height="66.8284" transform="matrix(0.869981 0.493085 -0.869981 0.493085 514.883 692.152)" fill="white" stroke="#EAEAEB"/>
<rect width="66.8284" height="66.8284" transform="matrix(0.869981 0.493085 -0.869981 0.493085 456.746 725.104)" fill="white" stroke="#EAEAEB"/>
<rect width="66.8284" height="66.8284" transform="matrix(0.869981 0.493085 -0.869981 0.493085 398.607 758.056)" fill="white" stroke="#EAEAEB"/>
<rect width="66.8284" height="66.8284" transform="matrix(0.869981 0.493085 -0.869981 0.493085 340.465 791.006)" fill="white" stroke="#EAEAEB"/>
<rect width="66.8284" height="66.8284" transform="matrix(0.869981 0.493085 -0.869981 0.493085 282.325 823.962)" fill="white" stroke="#EAEAEB"/>
<rect width="66.8284" height="66.8284" transform="matrix(0.869981 0.493085 -0.869981 0.493085 224.187 856.918)" fill="white" stroke="#EAEAEB"/>
<rect width="66.8284" height="66.8284" transform="matrix(0.869981 0.493085 -0.869981 0.493085 1968.37 -65.749)" fill="white" stroke="#EAEAEB"/>
<rect width="66.8284" height="66.8284" transform="matrix(0.869981 0.493085 -0.869981 0.493085 1910.24 -32.7959)" fill="white" stroke="#EAEAEB"/>
<rect width="66.8284" height="66.8284" transform="matrix(0.869981 0.493085 -0.869981 0.493085 1852.09 0.157227)" fill="white" stroke="#EAEAEB"/>
<rect width="66.8284" height="66.8284" transform="matrix(0.869981 0.493085 -0.869981 0.493085 1793.95 33.1101)" fill="white" stroke="#EAEAEB"/>
<rect width="66.8284" height="66.8284" transform="matrix(0.869981 0.493085 -0.869981 0.493085 1735.81 66.0615)" fill="white" stroke="#EAEAEB"/>
<rect width="66.8284" height="66.8284" transform="matrix(0.869981 0.493085 -0.869981 0.493085 1677.67 99.0137)" fill="white" stroke="#EAEAEB"/>
<rect width="66.8284" height="66.8284" transform="matrix(0.869981 0.493085 -0.869981 0.493085 1619.53 131.965)" fill="white" stroke="#EAEAEB"/>
<rect width="66.8284" height="66.8284" transform="matrix(0.869981 0.493085 -0.869981 0.493085 1561.4 164.917)" fill="white" stroke="#EAEAEB"/>
<rect width="66.8284" height="66.8284" transform="matrix(0.869981 0.493085 -0.869981 0.493085 1503.26 197.869)" fill="white" stroke="#EAEAEB"/>
<rect width="66.8284" height="66.8284" transform="matrix(0.869981 0.493085 -0.869981 0.493085 1445.12 230.821)" fill="white" stroke="#EAEAEB"/>
<rect width="66.8284" height="66.8284" transform="matrix(0.869981 0.493085 -0.869981 0.493085 1386.98 263.776)" fill="white" stroke="#EAEAEB"/>
<rect width="66.8284" height="66.8284" transform="matrix(0.869981 0.493085 -0.869981 0.493085 1328.84 296.728)" fill="white" stroke="#EAEAEB"/>
<rect width="66.8284" height="66.8284" transform="matrix(0.869981 0.493085 -0.869981 0.493085 1270.7 329.679)" fill="white" stroke="#EAEAEB"/>
<rect width="66.8284" height="66.8284" transform="matrix(0.869981 0.493085 -0.869981 0.493085 1212.56 362.631)" fill="white" stroke="#EAEAEB"/>
<rect width="66.8284" height="66.8284" transform="matrix(0.869981 0.493085 -0.869981 0.493085 1154.42 395.583)" fill="white" stroke="#EAEAEB"/>
<rect width="66.8284" height="66.8284" transform="matrix(0.869981 0.493085 -0.869981 0.493085 1096.28 428.534)" fill="white" stroke="#EAEAEB"/>
<rect width="66.8284" height="66.8284" transform="matrix(0.869981 0.493085 -0.869981 0.493085 1038.14 461.487)" fill="white" stroke="#EAEAEB"/>
<rect width="66.8284" height="66.8284" transform="matrix(0.869981 0.493085 -0.869981 0.493085 980.001 494.44)" fill="white" stroke="#EAEAEB"/>
<rect width="66.8284" height="66.8284" transform="matrix(0.869981 0.493085 -0.869981 0.493085 921.859 527.394)" fill="white" stroke="#EAEAEB"/>
<rect width="66.8284" height="66.8284" transform="matrix(0.869981 0.493085 -0.869981 0.493085 863.725 560.345)" fill="white" stroke="#EAEAEB"/>
<rect width="66.8284" height="66.8284" transform="matrix(0.869981 0.493085 -0.869981 0.493085 805.584 593.296)" fill="white" stroke="#EAEAEB"/>
<rect width="66.8284" height="66.8284" transform="matrix(0.869981 0.493085 -0.869981 0.493085 747.442 626.248)" fill="white" stroke="#EAEAEB"/>
<rect width="66.8284" height="66.8284" transform="matrix(0.869981 0.493085 -0.869981 0.493085 689.301 659.2)" fill="white" stroke="#EAEAEB"/>
<rect width="66.8284" height="66.8284" transform="matrix(0.869981 0.493085 -0.869981 0.493085 631.166 692.153)" fill="white" stroke="#EAEAEB"/>
<rect width="66.8284" height="66.8284" transform="matrix(0.869981 0.493085 -0.869981 0.493085 573.024 725.104)" fill="white" stroke="#EAEAEB"/>
<rect width="66.8284" height="66.8284" transform="matrix(0.869981 0.493085 -0.869981 0.493085 514.883 758.056)" fill="white" stroke="#EAEAEB"/>
<rect width="66.8284" height="66.8284" transform="matrix(0.869981 0.493085 -0.869981 0.493085 456.746 791.007)" fill="white" stroke="#EAEAEB"/>
<rect width="66.8284" height="66.8284" transform="matrix(0.869981 0.493085 -0.869981 0.493085 398.607 823.962)" fill="white" stroke="#EAEAEB"/>
<rect width="66.8284" height="66.8284" transform="matrix(0.869981 0.493085 -0.869981 0.493085 340.465 856.918)" fill="white" stroke="#EAEAEB"/>
<rect width="66.8284" height="66.8284" transform="matrix(0.869981 0.493085 -0.869981 0.493085 1968.37 0.157715)" fill="white" stroke="#EAEAEB"/>
<rect width="66.8284" height="66.8284" transform="matrix(0.869981 0.493085 -0.869981 0.493085 1910.24 33.1101)" fill="white" stroke="#EAEAEB"/>
<rect width="66.8284" height="66.8284" transform="matrix(0.869981 0.493085 -0.869981 0.493085 1852.09 66.0605)" fill="white" stroke="#EAEAEB"/>
<rect width="66.8284" height="66.8284" transform="matrix(0.869981 0.493085 -0.869981 0.493085 1793.95 99.0137)" fill="white" stroke="#EAEAEB"/>
<rect width="66.8284" height="66.8284" transform="matrix(0.869981 0.493085 -0.869981 0.493085 1735.81 131.965)" fill="white" stroke="#EAEAEB"/>
<rect width="66.8284" height="66.8284" transform="matrix(0.869981 0.493085 -0.869981 0.493085 1677.67 164.917)" fill="white" stroke="#EAEAEB"/>
<rect width="66.8284" height="66.8284" transform="matrix(0.869981 0.493085 -0.869981 0.493085 1619.53 197.869)" fill="white" stroke="#EAEAEB"/>
<rect width="66.8284" height="66.8284" transform="matrix(0.869981 0.493085 -0.869981 0.493085 1561.4 230.82)" fill="white" stroke="#EAEAEB"/>
<rect width="66.8284" height="66.8284" transform="matrix(0.869981 0.493085 -0.869981 0.493085 1503.26 263.776)" fill="white" stroke="#EAEAEB"/>
<rect width="66.8284" height="66.8284" transform="matrix(0.869981 0.493085 -0.869981 0.493085 1445.12 296.727)" fill="white" stroke="#EAEAEB"/>
<rect width="66.8284" height="66.8284" transform="matrix(0.869981 0.493085 -0.869981 0.493085 1386.98 329.679)" fill="white" stroke="#EAEAEB"/>
<rect width="66.8284" height="66.8284" transform="matrix(0.869981 0.493085 -0.869981 0.493085 1328.84 362.631)" fill="white" stroke="#EAEAEB"/>
<rect width="66.8284" height="66.8284" transform="matrix(0.869981 0.493085 -0.869981 0.493085 1270.7 395.583)" fill="white" stroke="#EAEAEB"/>
<rect width="66.8284" height="66.8284" transform="matrix(0.869981 0.493085 -0.869981 0.493085 1212.56 428.534)" fill="white" stroke="#EAEAEB"/>
<rect width="66.8284" height="66.8284" transform="matrix(0.869981 0.493085 -0.869981 0.493085 1154.42 461.487)" fill="white" stroke="#EAEAEB"/>
<rect width="66.8284" height="66.8284" transform="matrix(0.869981 0.493085 -0.869981 0.493085 1096.28 494.44)" fill="white" stroke="#EAEAEB"/>
<rect width="66.8284" height="66.8284" transform="matrix(0.869981 0.493085 -0.869981 0.493085 1038.14 527.393)" fill="white" stroke="#EAEAEB"/>
<rect width="66.8284" height="66.8284" transform="matrix(0.869981 0.493085 -0.869981 0.493085 980.001 560.345)" fill="white" stroke="#EAEAEB"/>
<rect width="66.8284" height="66.8284" transform="matrix(0.869981 0.493085 -0.869981 0.493085 921.859 593.297)" fill="white" stroke="#EAEAEB"/>
<rect width="66.8284" height="66.8284" transform="matrix(0.869981 0.493085 -0.869981 0.493085 863.725 626.248)" fill="white" stroke="#EAEAEB"/>
<rect width="66.8284" height="66.8284" transform="matrix(0.869981 0.493085 -0.869981 0.493085 805.583 659.2)" fill="white" stroke="#EAEAEB"/>
<rect width="66.8284" height="66.8284" transform="matrix(0.869981 0.493085 -0.869981 0.493085 747.442 692.152)" fill="white" stroke="#EAEAEB"/>
<rect width="66.8284" height="66.8284" transform="matrix(0.869981 0.493085 -0.869981 0.493085 689.301 725.104)" fill="white" stroke="#EAEAEB"/>
<rect width="66.8284" height="66.8284" transform="matrix(0.869981 0.493085 -0.869981 0.493085 631.166 758.056)" fill="white" stroke="#EAEAEB"/>
<rect width="66.8284" height="66.8284" transform="matrix(0.869981 0.493085 -0.869981 0.493085 573.024 791.007)" fill="white" stroke="#EAEAEB"/>
<rect width="66.8284" height="66.8284" transform="matrix(0.869981 0.493085 -0.869981 0.493085 514.883 823.962)" fill="white" stroke="#EAEAEB"/>
<rect width="66.8284" height="66.8284" transform="matrix(0.869981 0.493085 -0.869981 0.493085 456.746 856.918)" stroke="#EAEAEB"/>
<rect width="66.8284" height="66.8284" transform="matrix(0.869981 0.493085 -0.869981 0.493085 1968.37 66.0613)" fill="white" stroke="#EAEAEB"/>
<rect width="66.8284" height="66.8284" transform="matrix(0.869981 0.493085 -0.869981 0.493085 1910.24 99.0134)" fill="white" stroke="#EAEAEB"/>
<rect width="66.8284" height="66.8284" transform="matrix(0.869981 0.493085 -0.869981 0.493085 1852.09 131.966)" fill="white" stroke="#EAEAEB"/>
<rect width="66.8284" height="66.8284" transform="matrix(0.869981 0.493085 -0.869981 0.493085 1793.95 164.917)" fill="white" stroke="#EAEAEB"/>
<rect width="66.8284" height="66.8284" transform="matrix(0.869981 0.493085 -0.869981 0.493085 1735.81 197.869)" fill="white" stroke="#EAEAEB"/>
<rect width="66.8284" height="66.8284" transform="matrix(0.869981 0.493085 -0.869981 0.493085 1677.67 230.82)" fill="white" stroke="#EAEAEB"/>
<rect width="66.8284" height="66.8284" transform="matrix(0.869981 0.493085 -0.869981 0.493085 1619.53 263.776)" fill="white" stroke="#EAEAEB"/>
<rect width="66.8284" height="66.8284" transform="matrix(0.869981 0.493085 -0.869981 0.493085 1561.4 296.728)" fill="white" stroke="#EAEAEB"/>
<rect width="66.8284" height="66.8284" transform="matrix(0.869981 0.493085 -0.869981 0.493085 1503.26 329.679)" fill="white" stroke="#EAEAEB"/>
<rect width="66.8284" height="66.8284" transform="matrix(0.869981 0.493085 -0.869981 0.493085 1445.12 362.63)" fill="white" stroke="#EAEAEB"/>
<rect width="66.8284" height="66.8284" transform="matrix(0.869981 0.493085 -0.869981 0.493085 1386.98 395.583)" fill="white" stroke="#EAEAEB"/>
<rect width="66.8284" height="66.8284" transform="matrix(0.869981 0.493085 -0.869981 0.493085 1328.84 428.535)" fill="white" stroke="#EAEAEB"/>
<rect width="66.8284" height="66.8284" transform="matrix(0.869981 0.493085 -0.869981 0.493085 1270.7 461.487)" fill="white" stroke="#EAEAEB"/>
<rect width="66.8284" height="66.8284" transform="matrix(0.869981 0.493085 -0.869981 0.493085 1212.56 494.44)" fill="white" stroke="#EAEAEB"/>
<rect width="66.8284" height="66.8284" transform="matrix(0.869981 0.493085 -0.869981 0.493085 1154.42 527.394)" fill="white" stroke="#EAEAEB"/>
<rect width="66.8284" height="66.8284" transform="matrix(0.869981 0.493085 -0.869981 0.493085 1096.28 560.345)" fill="white" stroke="#EAEAEB"/>
<rect width="66.8284" height="66.8284" transform="matrix(0.869981 0.493085 -0.869981 0.493085 1038.14 593.297)" fill="white" stroke="#EAEAEB"/>
<rect width="66.8284" height="66.8284" transform="matrix(0.869981 0.493085 -0.869981 0.493085 980.001 626.249)" fill="white" stroke="#EAEAEB"/>
<rect width="66.8284" height="66.8284" transform="matrix(0.869981 0.493085 -0.869981 0.493085 921.859 659.201)" fill="white" stroke="#EAEAEB"/>
<rect width="66.8284" height="66.8284" transform="matrix(0.869981 0.493085 -0.869981 0.493085 863.725 692.152)" fill="white" stroke="#EAEAEB"/>
<rect width="66.8284" height="66.8284" transform="matrix(0.869981 0.493085 -0.869981 0.493085 805.583 725.104)" fill="white" stroke="#EAEAEB"/>
<rect width="66.8284" height="66.8284" transform="matrix(0.869981 0.493085 -0.869981 0.493085 747.442 758.056)" fill="white" stroke="#EAEAEB"/>
<rect width="66.8284" height="66.8284" transform="matrix(0.869981 0.493085 -0.869981 0.493085 689.301 791.008)" fill="white" stroke="#EAEAEB"/>
<rect width="66.8284" height="66.8284" transform="matrix(0.869981 0.493085 -0.869981 0.493085 631.165 823.962)" fill="white" stroke="#EAEAEB"/>
<rect width="66.8284" height="66.8284" transform="matrix(0.869981 0.493085 -0.869981 0.493085 573.024 856.917)" fill="white" stroke="#EAEAEB"/>
<rect width="66.8284" height="66.8284" transform="matrix(0.869981 0.493085 -0.869981 0.493085 1968.37 131.965)" fill="white" stroke="#EAEAEB"/>
<rect width="66.8284" height="66.8284" transform="matrix(0.869981 0.493085 -0.869981 0.493085 1910.24 164.917)" fill="white" stroke="#EAEAEB"/>
<rect width="66.8284" height="66.8284" transform="matrix(0.869981 0.493085 -0.869981 0.493085 1852.09 197.869)" fill="white" stroke="#EAEAEB"/>
<rect width="66.8284" height="66.8284" transform="matrix(0.869981 0.493085 -0.869981 0.493085 1793.95 230.82)" fill="white" stroke="#EAEAEB"/>
<rect width="66.8284" height="66.8284" transform="matrix(0.869981 0.493085 -0.869981 0.493085 1735.81 263.776)" fill="white" stroke="#EAEAEB"/>
<rect width="66.8284" height="66.8284" transform="matrix(0.869981 0.493085 -0.869981 0.493085 1677.67 296.727)" fill="white" stroke="#EAEAEB"/>
<rect width="66.8284" height="66.8284" transform="matrix(0.869981 0.493085 -0.869981 0.493085 1619.53 329.679)" fill="white" stroke="#EAEAEB"/>
<rect width="66.8284" height="66.8284" transform="matrix(0.869981 0.493085 -0.869981 0.493085 1561.4 362.631)" fill="white" stroke="#EAEAEB"/>
<rect width="66.8284" height="66.8284" transform="matrix(0.869981 0.493085 -0.869981 0.493085 1503.26 395.583)" fill="white" stroke="#EAEAEB"/>
<rect width="66.8284" height="66.8284" transform="matrix(0.869981 0.493085 -0.869981 0.493085 1445.12 428.535)" fill="white" stroke="#EAEAEB"/>
<rect width="66.8284" height="66.8284" transform="matrix(0.869981 0.493085 -0.869981 0.493085 1386.98 461.487)" fill="white" stroke="#EAEAEB"/>
<rect width="66.8284" height="66.8284" transform="matrix(0.869981 0.493085 -0.869981 0.493085 1328.84 494.44)" fill="white" stroke="#EAEAEB"/>
<rect width="66.8284" height="66.8284" transform="matrix(0.869981 0.493085 -0.869981 0.493085 1270.7 527.393)" fill="white" stroke="#EAEAEB"/>
<rect width="66.8284" height="66.8284" transform="matrix(0.869981 0.493085 -0.869981 0.493085 1212.56 560.345)" fill="white" stroke="#EAEAEB"/>
<rect width="66.8284" height="66.8284" transform="matrix(0.869981 0.493085 -0.869981 0.493085 1154.42 593.297)" fill="white" stroke="#EAEAEB"/>
<rect width="66.8284" height="66.8284" transform="matrix(0.869981 0.493085 -0.869981 0.493085 1096.28 626.248)" fill="white" stroke="#EAEAEB"/>
<rect width="66.8284" height="66.8284" transform="matrix(0.869981 0.493085 -0.869981 0.493085 1038.14 659.2)" fill="white" stroke="#EAEAEB"/>
<rect width="66.8284" height="66.8284" transform="matrix(0.869981 0.493085 -0.869981 0.493085 980.001 692.152)" fill="white" stroke="#EAEAEB"/>
<rect width="66.8284" height="66.8284" transform="matrix(0.869981 0.493085 -0.869981 0.493085 921.859 725.104)" fill="white" stroke="#EAEAEB"/>
<rect width="66.8284" height="66.8284" transform="matrix(0.869981 0.493085 -0.869981 0.493085 863.725 758.056)" fill="white" stroke="#EAEAEB"/>
<rect width="66.8284" height="66.8284" transform="matrix(0.869981 0.493085 -0.869981 0.493085 805.583 791.008)" fill="white" stroke="#EAEAEB"/>
<rect width="66.8284" height="66.8284" transform="matrix(0.869981 0.493085 -0.869981 0.493085 747.442 823.962)" fill="white" stroke="#EAEAEB"/>
<rect width="66.8284" height="66.8284" transform="matrix(0.869981 0.493085 -0.869981 0.493085 689.301 856.918)" fill="white" stroke="#EAEAEB"/>
<rect width="66.8284" height="66.8284" transform="matrix(0.869981 0.493085 -0.869981 0.493085 1968.37 197.869)" fill="white" stroke="#EAEAEB"/>
<rect width="66.8284" height="66.8284" transform="matrix(0.869981 0.493085 -0.869981 0.493085 1910.24 230.821)" fill="white" stroke="#EAEAEB"/>
<rect width="66.8284" height="66.8284" transform="matrix(0.869981 0.493085 -0.869981 0.493085 1852.09 263.776)" fill="white" stroke="#EAEAEB"/>
<rect width="66.8284" height="66.8284" transform="matrix(0.869981 0.493085 -0.869981 0.493085 1793.95 296.728)" fill="white" stroke="#EAEAEB"/>
<rect width="66.8284" height="66.8284" transform="matrix(0.869981 0.493085 -0.869981 0.493085 1735.81 329.679)" fill="white" stroke="#EAEAEB"/>
<rect width="66.8284" height="66.8284" transform="matrix(0.869981 0.493085 -0.869981 0.493085 1677.67 362.631)" fill="white" stroke="#EAEAEB"/>
<rect width="66.8284" height="66.8284" transform="matrix(0.869981 0.493085 -0.869981 0.493085 1619.53 395.583)" fill="white" stroke="#EAEAEB"/>
<rect width="66.8284" height="66.8284" transform="matrix(0.869981 0.493085 -0.869981 0.493085 1561.4 428.535)" fill="white" stroke="#EAEAEB"/>
<rect width="66.8284" height="66.8284" transform="matrix(0.869981 0.493085 -0.869981 0.493085 1503.26 461.487)" fill="white" stroke="#EAEAEB"/>
<rect width="66.8284" height="66.8284" transform="matrix(0.869981 0.493085 -0.869981 0.493085 1445.12 494.44)" fill="white" stroke="#EAEAEB"/>
<rect width="66.8284" height="66.8284" transform="matrix(0.869981 0.493085 -0.869981 0.493085 1386.98 527.394)" fill="white" stroke="#EAEAEB"/>
<rect width="66.8284" height="66.8284" transform="matrix(0.869981 0.493085 -0.869981 0.493085 1328.84 560.345)" fill="white" stroke="#EAEAEB"/>
<rect width="66.8284" height="66.8284" transform="matrix(0.869981 0.493085 -0.869981 0.493085 1270.7 593.297)" fill="white" stroke="#EAEAEB"/>
<rect width="66.8284" height="66.8284" transform="matrix(0.869981 0.493085 -0.869981 0.493085 1212.56 626.249)" fill="white" stroke="#EAEAEB"/>
<rect width="66.8284" height="66.8284" transform="matrix(0.869981 0.493085 -0.869981 0.493085 1154.42 659.2)" fill="white" stroke="#EAEAEB"/>
<rect width="66.8284" height="66.8284" transform="matrix(0.869981 0.493085 -0.869981 0.493085 1096.28 692.152)" fill="white" stroke="#EAEAEB"/>
<rect width="66.8284" height="66.8284" transform="matrix(0.869981 0.493085 -0.869981 0.493085 1038.14 725.104)" fill="white" stroke="#EAEAEB"/>
<rect width="66.8284" height="66.8284" transform="matrix(0.869981 0.493085 -0.869981 0.493085 980.001 758.055)" fill="white" stroke="#EAEAEB"/>
<rect width="66.8284" height="66.8284" transform="matrix(0.869981 0.493085 -0.869981 0.493085 921.86 791.008)" fill="white" stroke="#EAEAEB"/>
<rect width="66.8284" height="66.8284" transform="matrix(0.869981 0.493085 -0.869981 0.493085 863.725 823.962)" fill="white" stroke="#EAEAEB"/>
<rect width="66.8284" height="66.8284" transform="matrix(0.869981 0.493085 -0.869981 0.493085 805.584 856.918)" fill="white" stroke="#EAEAEB"/>
<rect width="66.8284" height="66.8284" transform="matrix(0.869981 0.493085 -0.869981 0.493085 1968.37 263.775)" fill="white" stroke="#EAEAEB"/>
<rect width="66.8284" height="66.8284" transform="matrix(0.869981 0.493085 -0.869981 0.493085 1910.24 296.728)" fill="white" stroke="#EAEAEB"/>
<rect width="66.8284" height="66.8284" transform="matrix(0.869981 0.493085 -0.869981 0.493085 1852.09 329.679)" fill="white" stroke="#EAEAEB"/>
<rect width="66.8284" height="66.8284" transform="matrix(0.869981 0.493085 -0.869981 0.493085 1793.95 362.631)" fill="white" stroke="#EAEAEB"/>
<rect width="66.8284" height="66.8284" transform="matrix(0.869981 0.493085 -0.869981 0.493085 1735.81 395.582)" fill="white" stroke="#EAEAEB"/>
<rect width="66.8284" height="66.8284" transform="matrix(0.869981 0.493085 -0.869981 0.493085 1677.67 428.534)" fill="white" stroke="#EAEAEB"/>
<rect width="66.8284" height="66.8284" transform="matrix(0.869981 0.493085 -0.869981 0.493085 1619.53 461.487)" fill="white" stroke="#EAEAEB"/>
<rect width="66.8284" height="66.8284" transform="matrix(0.869981 0.493085 -0.869981 0.493085 1561.4 494.44)" fill="white" stroke="#EAEAEB"/>
<rect width="66.8284" height="66.8284" transform="matrix(0.869981 0.493085 -0.869981 0.493085 1503.26 527.394)" stroke="#EAEAEB"/>
<rect width="66.8284" height="66.8284" transform="matrix(0.869981 0.493085 -0.869981 0.493085 1445.12 560.345)" stroke="#EAEAEB"/>
<rect width="66.8284" height="66.8284" transform="matrix(0.869981 0.493085 -0.869981 0.493085 1386.98 593.297)" stroke="#EAEAEB"/>
<rect width="66.8284" height="66.8284" transform="matrix(0.869981 0.493085 -0.869981 0.493085 1328.84 626.249)" stroke="#EAEAEB"/>
<rect width="66.8284" height="66.8284" transform="matrix(0.869981 0.493085 -0.869981 0.493085 1270.7 659.201)" stroke="#EAEAEB"/>
<rect width="66.8284" height="66.8284" transform="matrix(0.869981 0.493085 -0.869981 0.493085 1212.56 692.153)" stroke="#EAEAEB"/>
<rect width="66.8284" height="66.8284" transform="matrix(0.869981 0.493085 -0.869981 0.493085 1154.42 725.104)" stroke="#EAEAEB"/>
<rect width="66.8284" height="66.8284" transform="matrix(0.869981 0.493085 -0.869981 0.493085 1096.28 758.056)" stroke="#EAEAEB"/>
<rect width="66.8284" height="66.8284" transform="matrix(0.869981 0.493085 -0.869981 0.493085 1038.14 791.008)" stroke="#EAEAEB"/>
<rect width="66.8284" height="66.8284" transform="matrix(0.869981 0.493085 -0.869981 0.493085 980.001 823.962)" stroke="#EAEAEB"/>
<rect width="66.8284" height="66.8284" transform="matrix(0.869981 0.493085 -0.869981 0.493085 921.86 856.918)" stroke="#EAEAEB"/>
<rect width="66.8284" height="66.8284" transform="matrix(0.869981 0.493085 -0.869981 0.493085 1968.37 329.679)" stroke="#EAEAEB"/>
<rect width="66.8284" height="66.8284" transform="matrix(0.869981 0.493085 -0.869981 0.493085 1910.24 362.631)" stroke="#EAEAEB"/>
<rect width="66.8284" height="66.8284" transform="matrix(0.869981 0.493085 -0.869981 0.493085 1852.09 395.583)" stroke="#EAEAEB"/>
<rect width="66.8284" height="66.8284" transform="matrix(0.869981 0.493085 -0.869981 0.493085 1793.95 428.535)" stroke="#EAEAEB"/>
<rect width="66.8284" height="66.8284" transform="matrix(0.869981 0.493085 -0.869981 0.493085 1735.81 461.487)" stroke="#EAEAEB"/>
<rect width="66.8284" height="66.8284" transform="matrix(0.869981 0.493085 -0.869981 0.493085 1677.67 494.44)" stroke="#EAEAEB"/>
<rect width="66.8284" height="66.8284" transform="matrix(0.869981 0.493085 -0.869981 0.493085 1619.53 527.393)" fill="white" stroke="#EAEAEB"/>
<rect width="66.8284" height="66.8284" transform="matrix(0.869981 0.493085 -0.869981 0.493085 1561.4 560.345)" fill="white" stroke="#EAEAEB"/>
<rect width="66.8284" height="66.8284" transform="matrix(0.869981 0.493085 -0.869981 0.493085 1503.26 593.298)" fill="white" stroke="#EAEAEB"/>
<rect width="66.8284" height="66.8284" transform="matrix(0.869981 0.493085 -0.869981 0.493085 1445.12 626.249)" fill="white" stroke="#EAEAEB"/>
<rect width="66.8284" height="66.8284" transform="matrix(0.869981 0.493085 -0.869981 0.493085 1386.98 659.2)" fill="white" stroke="#EAEAEB"/>
<rect width="66.8284" height="66.8284" transform="matrix(0.869981 0.493085 -0.869981 0.493085 1328.84 692.152)" fill="white" stroke="#EAEAEB"/>
<rect width="66.8284" height="66.8284" transform="matrix(0.869981 0.493085 -0.869981 0.493085 1270.7 725.105)" fill="white" stroke="#EAEAEB"/>
<rect width="66.8284" height="66.8284" transform="matrix(0.869981 0.493085 -0.869981 0.493085 1212.56 758.055)" fill="white" stroke="#EAEAEB"/>
<rect width="66.8284" height="66.8284" transform="matrix(0.869981 0.493085 -0.869981 0.493085 1154.42 791.007)" fill="white" stroke="#EAEAEB"/>
<rect width="66.8284" height="66.8284" transform="matrix(0.869981 0.493085 -0.869981 0.493085 1096.28 823.962)" fill="white" stroke="#EAEAEB"/>
<rect width="66.8284" height="66.8284" transform="matrix(0.869981 0.493085 -0.869981 0.493085 1038.14 856.918)" fill="white" stroke="#EAEAEB"/>
<rect width="66.8284" height="66.8284" transform="matrix(0.869981 0.493085 -0.869981 0.493085 1968.37 395.583)" fill="white" stroke="#EAEAEB"/>
<rect width="66.8284" height="66.8284" transform="matrix(0.869981 0.493085 -0.869981 0.493085 1910.24 428.535)" fill="white" stroke="#EAEAEB"/>
<rect width="66.8284" height="66.8284" transform="matrix(0.869981 0.493085 -0.869981 0.493085 1852.09 461.487)" fill="white" stroke="#EAEAEB"/>
<rect width="66.8284" height="66.8284" transform="matrix(0.869981 0.493085 -0.869981 0.493085 1793.95 494.44)" fill="white" stroke="#EAEAEB"/>
<rect width="66.8284" height="66.8284" transform="matrix(0.869981 0.493085 -0.869981 0.493085 1735.81 527.394)" fill="white" stroke="#EAEAEB"/>
<rect width="66.8284" height="66.8284" transform="matrix(0.869981 0.493085 -0.869981 0.493085 1677.67 560.344)" fill="white" stroke="#EAEAEB"/>
<rect width="66.8284" height="66.8284" transform="matrix(0.869981 0.493085 -0.869981 0.493085 1619.53 593.297)" fill="white" stroke="#EAEAEB"/>
<rect width="66.8284" height="66.8284" transform="matrix(0.869981 0.493085 -0.869981 0.493085 1561.4 626.249)" fill="white" stroke="#EAEAEB"/>
<rect width="66.8284" height="66.8284" transform="matrix(0.869981 0.493085 -0.869981 0.493085 1503.26 659.2)" fill="white" stroke="#EAEAEB"/>
<rect width="66.8284" height="66.8284" transform="matrix(0.869981 0.493085 -0.869981 0.493085 1445.12 692.152)" fill="white" stroke="#EAEAEB"/>
<rect width="66.8284" height="66.8284" transform="matrix(0.869981 0.493085 -0.869981 0.493085 1386.98 725.104)" fill="white" stroke="#EAEAEB"/>
<rect width="66.8284" height="66.8284" transform="matrix(0.869981 0.493085 -0.869981 0.493085 1328.84 758.056)" fill="white" stroke="#EAEAEB"/>
<rect width="66.8284" height="66.8284" transform="matrix(0.869981 0.493085 -0.869981 0.493085 1270.7 791.008)" fill="white" stroke="#EAEAEB"/>
<rect width="66.8284" height="66.8284" transform="matrix(0.869981 0.493085 -0.869981 0.493085 1212.56 823.962)" fill="white" stroke="#EAEAEB"/>
<rect width="66.8284" height="66.8284" transform="matrix(0.869981 0.493085 -0.869981 0.493085 1154.42 856.918)" fill="white" stroke="#EAEAEB"/>
<rect width="66.8284" height="66.8284" transform="matrix(0.869981 0.493085 -0.869981 0.493085 1968.37 461.487)" fill="white" stroke="#EAEAEB"/>
<rect width="66.8284" height="66.8284" transform="matrix(0.869981 0.493085 -0.869981 0.493085 1910.24 494.44)" fill="white" stroke="#EAEAEB"/>
<rect width="66.8284" height="66.8284" transform="matrix(0.869981 0.493085 -0.869981 0.493085 1852.09 527.393)" fill="white" stroke="#EAEAEB"/>
<rect width="66.8284" height="66.8284" transform="matrix(0.869981 0.493085 -0.869981 0.493085 1793.95 560.345)" fill="white" stroke="#EAEAEB"/>
<rect width="66.8284" height="66.8284" transform="matrix(0.869981 0.493085 -0.869981 0.493085 1735.81 593.297)" fill="white" stroke="#EAEAEB"/>
<rect width="66.8284" height="66.8284" transform="matrix(0.869981 0.493085 -0.869981 0.493085 1677.67 626.249)" fill="white" stroke="#EAEAEB"/>
<rect width="66.8284" height="66.8284" transform="matrix(0.869981 0.493085 -0.869981 0.493085 1619.53 659.2)" fill="white" stroke="#EAEAEB"/>
<rect width="66.8284" height="66.8284" transform="matrix(0.869981 0.493085 -0.869981 0.493085 1561.4 692.153)" fill="white" stroke="#EAEAEB"/>
<rect width="66.8284" height="66.8284" transform="matrix(0.869981 0.493085 -0.869981 0.493085 1503.26 725.104)" fill="white" stroke="#EAEAEB"/>
<rect width="66.8284" height="66.8284" transform="matrix(0.869981 0.493085 -0.869981 0.493085 1445.12 758.056)" fill="white" stroke="#EAEAEB"/>
<rect width="66.8284" height="66.8284" transform="matrix(0.869981 0.493085 -0.869981 0.493085 1386.98 791.007)" fill="white" stroke="#EAEAEB"/>
<rect width="66.8284" height="66.8284" transform="matrix(0.869981 0.493085 -0.869981 0.493085 1328.84 823.962)" fill="white" stroke="#EAEAEB"/>
<rect width="66.8284" height="66.8284" transform="matrix(0.869981 0.493085 -0.869981 0.493085 1270.7 856.918)" fill="white" stroke="#EAEAEB"/>
<rect width="66.8284" height="66.8284" transform="matrix(0.869981 0.493085 -0.869981 0.493085 1968.37 527.393)" fill="white" stroke="#EAEAEB"/>
<rect width="66.8284" height="66.8284" transform="matrix(0.869981 0.493085 -0.869981 0.493085 1910.24 560.345)" fill="white" stroke="#EAEAEB"/>
<rect width="66.8284" height="66.8284" transform="matrix(0.869981 0.493085 -0.869981 0.493085 1852.09 593.297)" fill="white" stroke="#EAEAEB"/>
<rect width="66.8284" height="66.8284" transform="matrix(0.869981 0.493085 -0.869981 0.493085 1793.95 626.248)" fill="white" stroke="#EAEAEB"/>
<rect width="66.8284" height="66.8284" transform="matrix(0.869981 0.493085 -0.869981 0.493085 1735.81 659.201)" fill="white" stroke="#EAEAEB"/>
<rect width="66.8284" height="66.8284" transform="matrix(0.869981 0.493085 -0.869981 0.493085 1677.67 692.152)" fill="white" stroke="#EAEAEB"/>
<rect width="66.8284" height="66.8284" transform="matrix(0.869981 0.493085 -0.869981 0.493085 1619.53 725.104)" fill="white" stroke="#EAEAEB"/>
<rect width="66.8284" height="66.8284" transform="matrix(0.869981 0.493085 -0.869981 0.493085 1561.4 758.056)" fill="white" stroke="#EAEAEB"/>
<rect width="66.8284" height="66.8284" transform="matrix(0.869981 0.493085 -0.869981 0.493085 1503.26 791.008)" fill="white" stroke="#EAEAEB"/>
<rect width="66.8284" height="66.8284" transform="matrix(0.869981 0.493085 -0.869981 0.493085 1445.12 823.962)" fill="white" stroke="#EAEAEB"/>
<rect width="66.8284" height="66.8284" transform="matrix(0.869981 0.493085 -0.869981 0.493085 1386.98 856.917)" fill="white" stroke="#EAEAEB"/>
<rect width="66.8284" height="66.8284" transform="matrix(0.869981 0.493085 -0.869981 0.493085 1968.37 593.297)" fill="white" stroke="#EAEAEB"/>
<rect width="66.8284" height="66.8284" transform="matrix(0.869981 0.493085 -0.869981 0.493085 1910.24 626.249)" fill="white" stroke="#EAEAEB"/>
<rect width="66.8284" height="66.8284" transform="matrix(0.869981 0.493085 -0.869981 0.493085 1852.09 659.201)" fill="white" stroke="#EAEAEB"/>
<rect width="66.8284" height="66.8284" transform="matrix(0.869981 0.493085 -0.869981 0.493085 1793.95 692.153)" fill="white" stroke="#EAEAEB"/>
<rect width="66.8284" height="66.8284" transform="matrix(0.869981 0.493085 -0.869981 0.493085 1735.81 725.104)" fill="white" stroke="#EAEAEB"/>
<rect width="66.8284" height="66.8284" transform="matrix(0.869981 0.493085 -0.869981 0.493085 1677.67 758.056)" fill="white" stroke="#EAEAEB"/>
<rect width="66.8284" height="66.8284" transform="matrix(0.869981 0.493085 -0.869981 0.493085 1619.53 791.008)" fill="white" stroke="#EAEAEB"/>
<rect width="66.8284" height="66.8284" transform="matrix(0.869981 0.493085 -0.869981 0.493085 1561.4 823.962)" fill="white" stroke="#EAEAEB"/>
<rect width="66.8284" height="66.8284" transform="matrix(0.869981 0.493085 -0.869981 0.493085 1503.26 856.918)" fill="white" stroke="#EAEAEB"/>
<rect width="66.8284" height="66.8284" transform="matrix(0.869981 0.493085 -0.869981 0.493085 1968.37 659.201)" fill="white" stroke="#EAEAEB"/>
<rect width="66.8284" height="66.8284" transform="matrix(0.869981 0.493085 -0.869981 0.493085 1910.24 692.153)" fill="white" stroke="#EAEAEB"/>
<rect width="66.8284" height="66.8284" transform="matrix(0.869981 0.493085 -0.869981 0.493085 1852.09 725.104)" fill="white" stroke="#EAEAEB"/>
<rect width="66.8284" height="66.8284" transform="matrix(0.869981 0.493085 -0.869981 0.493085 1793.95 758.056)" fill="white" stroke="#EAEAEB"/>
<rect width="66.8284" height="66.8284" transform="matrix(0.869981 0.493085 -0.869981 0.493085 1735.81 791.008)" fill="white" stroke="#EAEAEB"/>
<rect width="66.8284" height="66.8284" transform="matrix(0.869981 0.493085 -0.869981 0.493085 1677.67 823.962)" fill="white" stroke="#EAEAEB"/>
<rect width="66.8284" height="66.8284" transform="matrix(0.869981 0.493085 -0.869981 0.493085 1619.53 856.918)" fill="white" stroke="#EAEAEB"/>
<rect width="66.8284" height="66.8284" transform="matrix(0.869981 0.493085 -0.869981 0.493085 1968.37 725.104)" fill="white" stroke="#EAEAEB"/>
<rect width="66.8284" height="66.8284" transform="matrix(0.869981 0.493085 -0.869981 0.493085 1910.24 758.056)" fill="white" stroke="#EAEAEB"/>
<rect width="66.8284" height="66.8284" transform="matrix(0.869981 0.493085 -0.869981 0.493085 1852.09 791.008)" fill="white" stroke="#EAEAEB"/>
<rect width="66.8284" height="66.8284" transform="matrix(0.869981 0.493085 -0.869981 0.493085 1793.95 823.962)" fill="white" stroke="#EAEAEB"/>
<rect width="66.8284" height="66.8284" transform="matrix(0.869981 0.493085 -0.869981 0.493085 1735.81 856.918)" fill="white" stroke="#EAEAEB"/>
<rect width="66.8284" height="66.8284" transform="matrix(0.869981 0.493085 -0.869981 0.493085 1968.37 791.008)" fill="white" stroke="#EAEAEB"/>
<rect width="66.8284" height="66.8284" transform="matrix(0.869981 0.493085 -0.869981 0.493085 1910.24 823.962)" fill="white" stroke="#EAEAEB"/>
<rect width="66.8284" height="66.8284" transform="matrix(0.869981 0.493085 -0.869981 0.493085 1852.09 856.918)" fill="white" stroke="#EAEAEB"/>
<rect width="66.8284" height="66.8284" transform="matrix(0.869981 0.493085 -0.869981 0.493085 1968.37 856.918)" fill="white" stroke="#EAEAEB"/>
</g>
</svg>
