<svg width="32" height="32" viewBox="0 0 32 32" fill="none" xmlns="http://www.w3.org/2000/svg">
<path d="M29.3333 14.5333V5.46663C29.3333 3.46663 28.48 2.66663 26.36 2.66663H20.9733C18.8533 2.66663 18 3.46663 18 5.46663V14.5333C18 16.5333 18.8533 17.3333 20.9733 17.3333H26.36C28.48 17.3333 29.3333 16.5333 29.3333 14.5333Z" stroke="white" stroke-width="1.5" stroke-linecap="round" stroke-linejoin="round"/>
<path d="M29.3333 26.5334V24.1334C29.3333 22.1334 28.48 21.3334 26.36 21.3334H20.9733C18.8533 21.3334 18 22.1334 18 24.1334V26.5334C18 28.5334 18.8533 29.3334 20.9733 29.3334H26.36C28.48 29.3334 29.3333 28.5334 29.3333 26.5334Z" stroke="white" stroke-width="1.5" stroke-linecap="round" stroke-linejoin="round"/>
<path d="M13.9998 17.4666V26.5333C13.9998 28.5333 13.1465 29.3333 11.0265 29.3333H5.63984C3.51984 29.3333 2.6665 28.5333 2.6665 26.5333V17.4666C2.6665 15.4666 3.51984 14.6666 5.63984 14.6666H11.0265C13.1465 14.6666 13.9998 15.4666 13.9998 17.4666Z" stroke="white" stroke-width="1.5" stroke-linecap="round" stroke-linejoin="round"/>
<path d="M13.9998 5.46663V7.86663C13.9998 9.86663 13.1465 10.6666 11.0265 10.6666H5.63984C3.51984 10.6666 2.6665 9.86663 2.6665 7.86663V5.46663C2.6665 3.46663 3.51984 2.66663 5.63984 2.66663H11.0265C13.1465 2.66663 13.9998 3.46663 13.9998 5.46663Z" stroke="white" stroke-width="1.5" stroke-linecap="round" stroke-linejoin="round"/>
</svg>
