<svg width="32" height="32" viewBox="0 0 32 32" fill="none" xmlns="http://www.w3.org/2000/svg">
<path d="M16 21.3333V25.3333" stroke="white" stroke-width="1.5" stroke-miterlimit="10" stroke-linecap="round" stroke-linejoin="round"/>
<path d="M15.9999 30.6666C17.4727 30.6666 18.6666 29.4727 18.6666 27.9999C18.6666 26.5272 17.4727 25.3333 15.9999 25.3333C14.5272 25.3333 13.3333 26.5272 13.3333 27.9999C13.3333 29.4727 14.5272 30.6666 15.9999 30.6666Z" stroke="white" stroke-width="1.5" stroke-miterlimit="10" stroke-linecap="round" stroke-linejoin="round"/>
<path d="M24.0001 28H18.6667" stroke="white" stroke-width="1.5" stroke-miterlimit="10" stroke-linecap="round" stroke-linejoin="round"/>
<path d="M13.3333 28H8" stroke="white" stroke-width="1.5" stroke-miterlimit="10" stroke-linecap="round" stroke-linejoin="round"/>
<path d="M25.3334 11.0668V16.6667C25.3334 20.4001 24.4001 21.3334 20.6667 21.3334H11.3334C7.60008 21.3334 6.66675 20.4001 6.66675 16.6667V7.33341C6.66675 3.60008 7.60008 2.66675 11.3334 2.66675H12.7334C14.1334 2.66675 14.4401 3.08004 14.9734 3.7867L16.3735 5.6534C16.7335 6.12007 16.9334 6.40015 17.8668 6.40015H20.6667C24.4001 6.40015 25.3334 7.33348 25.3334 11.0668Z" stroke="white" stroke-width="1.5" stroke-miterlimit="10"/>
</svg>
