<svg width="32" height="32" viewBox="0 0 32 32" fill="none" xmlns="http://www.w3.org/2000/svg">
<g opacity="0.9">
<path d="M2.66675 13.3067V12.0001C2.66675 5.33341 5.33341 2.66675 12.0001 2.66675H20.0001C26.6667 2.66675 29.3334 5.33341 29.3334 12.0001V20.0001C29.3334 26.6667 26.6667 29.3334 20.0001 29.3334H18.6667" stroke="white" stroke-width="1.5" stroke-linecap="round" stroke-linejoin="round"/>
<path d="M17.3333 14.6667L24.0133 7.97339H18.6666" stroke="white" stroke-width="1.5" stroke-linecap="round" stroke-linejoin="round"/>
<path d="M24.0134 7.97339V13.3201" stroke="white" stroke-width="1.5" stroke-linecap="round" stroke-linejoin="round"/>
<path d="M14.6667 21.5333V25.1333C14.6667 28.1333 13.4667 29.3333 10.4667 29.3333H6.86675C3.86675 29.3333 2.66675 28.1333 2.66675 25.1333V21.5333C2.66675 18.5333 3.86675 17.3333 6.86675 17.3333H10.4667C13.4667 17.3333 14.6667 18.5333 14.6667 21.5333Z" stroke="white" stroke-width="1.5" stroke-linecap="round" stroke-linejoin="round"/>
</g>
</svg>
