<svg width="32" height="32" viewBox="0 0 32 32" fill="none" xmlns="http://www.w3.org/2000/svg">
<g opacity="0.9">
<path d="M5.36008 7.96008C3.66675 10.2001 2.66675 12.9867 2.66675 16.0001C2.66675 23.3601 8.64008 29.3334 16.0001 29.3334C23.3601 29.3334 29.3334 23.3601 29.3334 16.0001C29.3334 8.64008 23.3601 2.66675 16.0001 2.66675" stroke="white" stroke-width="1.5" stroke-linecap="round" stroke-linejoin="round"/>
<path d="M6.66675 16.0001C6.66675 21.1601 10.8401 25.3334 16.0001 25.3334C21.1601 25.3334 25.3334 21.1601 25.3334 16.0001C25.3334 10.8401 21.1601 6.66675 16.0001 6.66675" stroke="white" stroke-width="1.5" stroke-linecap="round" stroke-linejoin="round"/>
<path d="M16 21.3334C18.9467 21.3334 21.3333 18.9467 21.3333 16.0001C21.3333 13.0534 18.9467 10.6667 16 10.6667" stroke="white" stroke-width="1.5" stroke-linecap="round" stroke-linejoin="round"/>
</g>
</svg>
