<svg width="32" height="32" viewBox="0 0 32 32" fill="none" xmlns="http://www.w3.org/2000/svg">
<g opacity="0.9">
<path d="M27.4533 14.0667V9.49333C27.4533 7.85333 26.2 6.04 24.6666 5.46666L18.0133 2.97333C16.9066 2.56 15.0933 2.56 13.9866 2.97333L7.3333 5.48C5.79996 6.05333 4.54663 7.86666 4.54663 9.49333V19.4C4.54663 20.9733 5.58663 23.04 6.8533 23.9867L12.5866 28.2667C13.52 28.9867 14.76 29.3333 16 29.3333" stroke="white" stroke-width="1.5" stroke-linecap="round" stroke-linejoin="round"/>
<path d="M21.3333 26.6667C24.2789 26.6667 26.6667 24.2789 26.6667 21.3333C26.6667 18.3878 24.2789 16 21.3333 16C18.3878 16 16 18.3878 16 21.3333C16 24.2789 18.3878 26.6667 21.3333 26.6667Z" stroke="white" stroke-width="1.5" stroke-linecap="round" stroke-linejoin="round"/>
<path d="M27.9939 27.9999H28.0059" stroke="white" stroke-width="2" stroke-linecap="round" stroke-linejoin="round"/>
</g>
</svg>
