<svg width="32" height="32" viewBox="0 0 32 32" fill="none" xmlns="http://www.w3.org/2000/svg">
<g opacity="0.9">
<path d="M25.7599 13.3333H6.25328C4.27994 13.3333 2.67993 11.7199 2.67993 9.75995V6.25328C2.67993 4.27994 4.29328 2.67993 6.25328 2.67993H25.7599C27.7333 2.67993 29.3333 4.29328 29.3333 6.25328V9.75995C29.3333 11.7199 27.7199 13.3333 25.7599 13.3333Z" stroke="white" stroke-width="1.5" stroke-linecap="round" stroke-linejoin="round"/>
<path d="M25.7599 29.3333H6.25328C4.27994 29.3333 2.67993 27.7199 2.67993 25.7599V22.2533C2.67993 20.2799 4.29328 18.6799 6.25328 18.6799H25.7599C27.7333 18.6799 29.3333 20.2933 29.3333 22.2533V25.7599C29.3333 27.7199 27.7199 29.3333 25.7599 29.3333Z" stroke="white" stroke-width="1.5" stroke-linecap="round" stroke-linejoin="round"/>
<path d="M8 6.66675V9.33341" stroke="white" stroke-width="1.5" stroke-linecap="round" stroke-linejoin="round"/>
<path d="M13.3333 6.66675V9.33341" stroke="white" stroke-width="1.5" stroke-linecap="round" stroke-linejoin="round"/>
<path d="M8 22.6667V25.3334" stroke="white" stroke-width="1.5" stroke-linecap="round" stroke-linejoin="round"/>
<path d="M13.3333 22.6667V25.3334" stroke="white" stroke-width="1.5" stroke-linecap="round" stroke-linejoin="round"/>
<path d="M18.6667 8H24.0001" stroke="white" stroke-width="1.5" stroke-linecap="round" stroke-linejoin="round"/>
<path d="M18.6667 24H24.0001" stroke="white" stroke-width="1.5" stroke-linecap="round" stroke-linejoin="round"/>
</g>
</svg>
