<svg width="32" height="32" viewBox="0 0 32 32" fill="none" xmlns="http://www.w3.org/2000/svg">
<g opacity="0.9">
<path d="M16.0001 19.8398C14.7867 19.8398 13.8 18.8531 13.8 17.6398V14.3465C13.8 13.1332 14.7867 12.1465 16.0001 12.1465C17.2134 12.1465 18.2001 13.1332 18.2001 14.3465V17.6398C18.2001 18.8531 17.2134 19.8398 16.0001 19.8398Z" stroke="white" stroke-width="1.5" stroke-linecap="round"/>
<path d="M22.6399 17.9598C22.3733 21.3998 19.4933 24.0932 15.9999 24.0932C12.3199 24.0932 9.33325 21.1065 9.33325 17.4265V14.5732C9.33325 10.8932 12.3199 7.90649 15.9999 7.90649C19.4533 7.90649 22.2933 10.5331 22.6266 13.8931" stroke="white" stroke-width="1.5" stroke-linecap="round"/>
<path d="M20 2.66675H22.6667C26.6667 2.66675 29.3333 5.33341 29.3333 9.33341V12.0001" stroke="white" stroke-width="1.5" stroke-miterlimit="10" stroke-linecap="round" stroke-linejoin="round"/>
<path d="M2.66675 12.0001V9.33341C2.66675 5.33341 5.33341 2.66675 9.33341 2.66675H12.0001" stroke="white" stroke-width="1.5" stroke-miterlimit="10" stroke-linecap="round" stroke-linejoin="round"/>
<path d="M20 29.3333H22.6667C26.6667 29.3333 29.3333 26.6667 29.3333 22.6667V20" stroke="white" stroke-width="1.5" stroke-miterlimit="10" stroke-linecap="round" stroke-linejoin="round"/>
<path d="M2.66675 20V22.6667C2.66675 26.6667 5.33341 29.3333 9.33341 29.3333H12.0001" stroke="white" stroke-width="1.5" stroke-miterlimit="10" stroke-linecap="round" stroke-linejoin="round"/>
</g>
</svg>
