<svg width="226" height="113" viewBox="0 0 226 113" fill="none" xmlns="http://www.w3.org/2000/svg">
<g id="Half circle">
<mask id="path-1-inside-1_1359_28560" fill="white">
<path d="M225.5 113C225.5 83.1631 213.647 54.5483 192.55 33.4505C171.452 12.3526 142.837 0.500002 113 0.5C83.1632 0.499998 54.5483 12.3526 33.4505 33.4505C12.3527 54.5483 0.500005 83.1631 0.5 113L113 113H225.5Z"/>
</mask>
<path d="M225.5 113C225.5 83.1631 213.647 54.5483 192.55 33.4505C171.452 12.3526 142.837 0.500002 113 0.5C83.1632 0.499998 54.5483 12.3526 33.4505 33.4505C12.3527 54.5483 0.500005 83.1631 0.5 113L113 113H225.5Z" stroke="#1C1C1C" stroke-width="2" mask="url(#path-1-inside-1_1359_28560)"/>
</g>
</svg>
