<svg width="160" height="80" viewBox="0 0 160 80" fill="none" xmlns="http://www.w3.org/2000/svg">
<g id="Half circle">
<mask id="path-1-inside-1_1535_11436" fill="white">
<path d="M160 80C160 58.7827 151.571 38.4344 136.569 23.4315C121.566 8.42855 101.217 1.60186e-06 80 0C58.7827 -1.60186e-06 38.4344 8.42854 23.4315 23.4315C8.42855 38.4344 3.20373e-06 58.7827 0 80L80 80H160Z"/>
</mask>
<path d="M160 80C160 58.7827 151.571 38.4344 136.569 23.4315C121.566 8.42855 101.217 1.60186e-06 80 0C58.7827 -1.60186e-06 38.4344 8.42854 23.4315 23.4315C8.42855 38.4344 3.20373e-06 58.7827 0 80L80 80H160Z" stroke="#1C1C1C" stroke-width="2" mask="url(#path-1-inside-1_1535_11436)"/>
</g>
</svg>
