<svg width="180" height="90" viewBox="0 0 180 90" fill="none" xmlns="http://www.w3.org/2000/svg">
<g id="Half circle">
<mask id="path-1-inside-1_1535_11430" fill="white">
<path d="M180 90C180 66.1305 170.518 43.2387 153.64 26.3604C136.761 9.48212 113.869 1.8021e-06 90 0C66.1305 -1.8021e-06 43.2387 9.48211 26.3604 26.3604C9.48212 43.2387 3.60419e-06 66.1305 0 90L90 90H180Z"/>
</mask>
<path d="M180 90C180 66.1305 170.518 43.2387 153.64 26.3604C136.761 9.48212 113.869 1.8021e-06 90 0C66.1305 -1.8021e-06 43.2387 9.48211 26.3604 26.3604C9.48212 43.2387 3.60419e-06 66.1305 0 90L90 90H180Z" stroke="#1C1C1C" stroke-width="2" mask="url(#path-1-inside-1_1535_11430)"/>
</g>
</svg>
