<svg width="360" height="198" viewBox="0 0 360 198" fill="none" xmlns="http://www.w3.org/2000/svg">
<rect width="360" height="198" rx="15" fill="#FBFCFD"/>
<path d="M143.148 77.9346C142.918 78.6646 142.635 79.6497 142.452 80.3963C142.578 79.88 142.814 79.3969 143.144 78.9797C143.474 78.5624 143.889 78.2208 144.362 77.978C145.292 76.7805 146.484 75.8123 147.846 75.1478C149.209 74.4832 150.706 74.1401 152.222 74.1447V74.1163C146.577 72.4947 144.825 74.3513 144.335 75.2247C143.871 76.0941 143.475 76.9978 143.15 77.928" fill="#DFE4EE"/>
<path d="M148.998 69.26L148.165 70.0566C149.12 69.2733 150.695 69.455 153.12 70.6316C153.646 69.6898 154.313 68.8343 155.098 68.095C153.948 67.2616 152.783 66.5267 152.043 66.87C150.97 67.5909 149.951 68.3897 148.995 69.26" fill="#DFE4EE"/>
<path d="M160.602 62.725C159.74 63.0417 158.592 63.465 157.738 63.8133C158.185 64.2875 158.586 64.8025 158.937 65.3517C160.222 64.6549 161.559 64.0586 162.937 63.5683C162.705 62.605 162.648 62.1233 162.937 62.0016C162.232 62.2166 161.288 62.4817 160.59 62.725" fill="#DFE4EE"/>
<path d="M174.6 60.0917C173.288 60.1983 171.542 60.3617 170.233 60.515C169.55 60.6817 169.248 60.9283 168.91 61.9583C170.693 61.6197 172.494 61.3793 174.303 61.2384C174.57 60.8631 174.922 60.5557 175.329 60.3406C175.736 60.1256 176.188 60.0089 176.648 60L174.6 60.0917Z" fill="#DFE4EE"/>
<path d="M189.168 60.8817C187.942 60.695 186.305 60.4617 185.073 60.3167C183.841 60.1704 182.598 60.4657 181.563 61.15C183.443 61.2473 185.316 61.4442 187.175 61.74C188.563 61.1418 190.107 61.0068 191.578 61.355C190.855 61.2117 189.895 61.0017 189.168 60.8817Z" fill="#DFE4EE"/>
<path d="M202.313 65.035C201.403 64.6133 200.188 64.06 199.265 63.6766C197.447 62.9232 195.439 62.7594 193.523 63.2083C195.022 63.6713 196.488 64.2348 197.912 64.895C200.423 64.5894 202.963 65.1834 205.078 66.5716C204.253 66.0966 203.157 65.4533 202.308 65.035" fill="#DFE4EE"/>
<path d="M215.356 78.6983C214.742 76.9411 213.895 75.274 212.838 73.7417L212.188 72.8467C211.072 71.2528 209.599 69.9423 207.885 69.0202C206.172 68.0981 204.266 67.59 202.321 67.5367C203.259 68.2494 204.104 69.0769 204.836 70C211.468 70.9383 216.033 76.7683 216.465 84.8533C216.41 82.7573 216.036 80.6818 215.356 78.6983Z" fill="#DFE4EE"/>
<path d="M205.878 103.47C207.146 102.649 208.348 101.728 209.472 100.718C209.895 100.307 210.472 99.7633 210.87 99.3317C219.142 89.7467 215.383 75.915 206.502 73.4067C206.597 73.8449 206.648 74.2916 206.655 74.74C206.655 74.82 206.655 74.9067 206.655 74.9783C206.646 75.4179 206.594 75.8556 206.5 76.285C216 80.5733 215.068 97.6867 204.987 104.028L205.878 103.477" fill="#DFE4EE"/>
<path d="M193.455 108.51C194.692 108.19 196.335 107.732 197.561 107.357C209.728 102.785 211.663 84.12 204.836 79.63C204.104 80.5294 203.259 81.3315 202.323 82.0167C208.098 88.385 202.18 106.377 191.341 108.96L193.455 108.51Z" fill="#DFE4EE"/>
<path d="M179.302 110C180.448 109.99 181.978 109.973 183.125 109.928C193.227 108.885 200.417 90.3334 197.915 84.5284C196.49 85.1494 195.024 85.6707 193.527 86.0883C193.503 93.5083 183.515 110.088 176.352 109.902C177.237 109.933 178.417 109.998 179.302 110Z" fill="#DFE4EE"/>
<path d="M164.65 108.088C165.778 108.36 167.287 108.708 168.422 108.94C172.637 109.25 183.255 94.94 187.17 87.3767C185.303 87.6178 183.425 87.7597 181.543 87.8017C178.483 90.7717 170.41 100.113 168.823 101.957C164.737 106.7 163.218 107.6 162.665 107.52L164.65 108.088Z" fill="#DFE4EE"/>
<path d="M152.337 102.73C153.56 103.55 154.836 104.29 156.157 104.943L156.265 104.997C156.492 103.79 166.537 91.79 174.292 87.4966C172.483 87.3022 170.687 87.0096 168.91 86.62C159.645 90.1716 150.187 101.037 151.815 102.37L152.337 102.73Z" fill="#DFE4EE"/>
<path d="M145.632 96.2384C146.07 96.8284 146.662 97.6117 147.132 98.1717C145.045 94.9917 153.843 86.7567 162.948 84.8383C161.569 84.307 160.232 83.6725 158.948 82.94C150.57 83.85 142.597 89.7884 144.237 93.8934C144.638 94.6134 145.177 95.5717 145.64 96.24" fill="#DFE4EE"/>
<path d="M142.003 84.5917C142.003 84.7267 142.003 84.86 142.003 84.9933C142.04 85.69 142.098 86.6167 142.17 87.3083C141.945 82.7917 148.803 79.8733 155.1 80.08C154.314 79.3176 153.647 78.4417 153.12 77.4816C147.797 76.7983 144.887 78.1717 143.382 79.4417C142.506 81.0192 142.032 82.7878 142.002 84.5917" fill="#DFE4EE"/>
<path d="M116.12 133H113.99V122.995H116.12V133ZM128.966 133H127.046V128.425C127.046 127.75 126.746 127.27 125.966 127.27C125.291 127.27 124.736 127.72 124.466 128.11V133H122.546V128.425C122.546 127.75 122.246 127.27 121.466 127.27C120.806 127.27 120.251 127.72 119.966 128.125V133H118.061V125.755H119.966V126.7C120.266 126.265 121.226 125.575 122.336 125.575C123.401 125.575 124.076 126.07 124.346 126.895C124.766 126.235 125.726 125.575 126.836 125.575C128.171 125.575 128.966 126.28 128.966 127.765V133ZM137.09 133H135.185V132.25C134.69 132.835 133.835 133.18 132.89 133.18C131.735 133.18 130.37 132.4 130.37 130.78C130.37 129.085 131.735 128.47 132.89 128.47C133.85 128.47 134.705 128.77 135.185 129.355V128.35C135.185 127.615 134.555 127.135 133.595 127.135C132.815 127.135 132.095 127.42 131.48 127.99L130.76 126.715C131.645 125.935 132.785 125.575 133.925 125.575C135.575 125.575 137.09 126.235 137.09 128.32V133ZM135.185 131.26V130.36C134.87 129.94 134.27 129.73 133.655 129.73C132.905 129.73 132.29 130.135 132.29 130.825C132.29 131.5 132.905 131.89 133.655 131.89C134.27 131.89 134.87 131.68 135.185 131.26ZM138.829 134.86L139.684 133.48C140.269 134.125 141.034 134.38 141.949 134.38C142.864 134.38 143.944 133.975 143.944 132.55V131.815C143.374 132.535 142.594 132.955 141.709 132.955C139.894 132.955 138.514 131.68 138.514 129.265C138.514 126.895 139.879 125.575 141.709 125.575C142.579 125.575 143.359 125.95 143.944 126.685V125.755H145.864V132.505C145.864 135.265 143.734 135.94 141.949 135.94C140.704 135.94 139.729 135.655 138.829 134.86ZM143.944 130.435V128.095C143.629 127.615 142.939 127.27 142.309 127.27C141.229 127.27 140.479 128.02 140.479 129.265C140.479 130.51 141.229 131.26 142.309 131.26C142.939 131.26 143.629 130.9 143.944 130.435ZM147.289 129.37C147.289 127.27 148.834 125.575 151.039 125.575C153.199 125.575 154.669 127.195 154.669 129.565V129.985H149.284C149.404 130.9 150.139 131.665 151.369 131.665C152.044 131.665 152.839 131.395 153.304 130.945L154.144 132.175C153.409 132.85 152.284 133.18 151.159 133.18C148.954 133.18 147.289 131.695 147.289 129.37ZM151.039 127.09C149.854 127.09 149.344 127.975 149.254 128.695H152.824C152.779 128.005 152.299 127.09 151.039 127.09ZM159.418 129.37C159.418 127.15 161.023 125.575 163.258 125.575C164.743 125.575 165.643 126.22 166.123 126.895L164.878 128.05C164.533 127.555 164.008 127.27 163.347 127.27C162.193 127.27 161.383 128.11 161.383 129.37C161.383 130.63 162.193 131.485 163.347 131.485C164.008 131.485 164.533 131.185 164.878 130.705L166.123 131.86C165.643 132.535 164.743 133.18 163.258 133.18C161.023 133.18 159.418 131.605 159.418 129.37ZM170.728 133.18C168.343 133.18 166.903 131.44 166.903 129.37C166.903 127.315 168.343 125.575 170.728 125.575C173.128 125.575 174.568 127.315 174.568 129.37C174.568 131.44 173.128 133.18 170.728 133.18ZM170.728 131.485C171.913 131.485 172.588 130.51 172.588 129.37C172.588 128.245 171.913 127.27 170.728 127.27C169.543 127.27 168.883 128.245 168.883 129.37C168.883 130.51 169.543 131.485 170.728 131.485ZM186.886 133H184.966V128.425C184.966 127.75 184.666 127.27 183.886 127.27C183.211 127.27 182.656 127.72 182.386 128.11V133H180.466V128.425C180.466 127.75 180.166 127.27 179.386 127.27C178.726 127.27 178.171 127.72 177.886 128.125V133H175.981V125.755H177.886V126.7C178.186 126.265 179.146 125.575 180.256 125.575C181.321 125.575 181.996 126.07 182.266 126.895C182.686 126.235 183.646 125.575 184.756 125.575C186.091 125.575 186.886 126.28 186.886 127.765V133ZM189.7 124.69C189.085 124.69 188.56 124.18 188.56 123.55C188.56 122.92 189.085 122.41 189.7 122.41C190.33 122.41 190.84 122.92 190.84 123.55C190.84 124.18 190.33 124.69 189.7 124.69ZM190.66 133H188.755V125.755H190.66V133ZM199.344 133H197.439V128.62C197.439 127.615 196.914 127.27 196.104 127.27C195.354 127.27 194.769 127.69 194.454 128.125V133H192.549V125.755H194.454V126.7C194.919 126.145 195.804 125.575 196.989 125.575C198.579 125.575 199.344 126.475 199.344 127.885V133ZM201.085 134.86L201.94 133.48C202.525 134.125 203.29 134.38 204.205 134.38C205.12 134.38 206.2 133.975 206.2 132.55V131.815C205.63 132.535 204.85 132.955 203.965 132.955C202.15 132.955 200.77 131.68 200.77 129.265C200.77 126.895 202.135 125.575 203.965 125.575C204.835 125.575 205.615 125.95 206.2 126.685V125.755H208.12V132.505C208.12 135.265 205.99 135.94 204.205 135.94C202.96 135.94 201.985 135.655 201.085 134.86ZM206.2 130.435V128.095C205.885 127.615 205.195 127.27 204.565 127.27C203.485 127.27 202.735 128.02 202.735 129.265C202.735 130.51 203.485 131.26 204.565 131.26C205.195 131.26 205.885 130.9 206.2 130.435ZM213.217 132.055L214.042 130.72C214.567 131.215 215.647 131.71 216.547 131.71C217.372 131.71 217.762 131.425 217.762 130.975C217.762 130.465 217.132 130.285 216.307 130.12C215.062 129.88 213.457 129.58 213.457 127.855C213.457 126.64 214.522 125.575 216.427 125.575C217.657 125.575 218.632 125.995 219.337 126.565L218.587 127.87C218.152 127.405 217.327 127.03 216.442 127.03C215.752 127.03 215.302 127.285 215.302 127.705C215.302 128.155 215.872 128.32 216.682 128.485C217.927 128.725 219.592 129.055 219.592 130.855C219.592 132.19 218.467 133.18 216.457 133.18C215.197 133.18 213.982 132.76 213.217 132.055ZM224.356 133.18C221.971 133.18 220.531 131.44 220.531 129.37C220.531 127.315 221.971 125.575 224.356 125.575C226.756 125.575 228.196 127.315 228.196 129.37C228.196 131.44 226.756 133.18 224.356 133.18ZM224.356 131.485C225.541 131.485 226.216 130.51 226.216 129.37C226.216 128.245 225.541 127.27 224.356 127.27C223.171 127.27 222.511 128.245 222.511 129.37C222.511 130.51 223.171 131.485 224.356 131.485ZM232.969 133.18C230.584 133.18 229.144 131.44 229.144 129.37C229.144 127.315 230.584 125.575 232.969 125.575C235.369 125.575 236.809 127.315 236.809 129.37C236.809 131.44 235.369 133.18 232.969 133.18ZM232.969 131.485C234.154 131.485 234.829 130.51 234.829 129.37C234.829 128.245 234.154 127.27 232.969 127.27C231.784 127.27 231.124 128.245 231.124 129.37C231.124 130.51 231.784 131.485 232.969 131.485ZM245.017 133H243.112V128.62C243.112 127.615 242.587 127.27 241.777 127.27C241.027 127.27 240.442 127.69 240.127 128.125V133H238.222V125.755H240.127V126.7C240.592 126.145 241.477 125.575 242.662 125.575C244.252 125.575 245.017 126.475 245.017 127.885V133Z" fill="#DFE4EE"/>
</svg>
