<svg width="132" height="14" viewBox="0 0 132 14" fill="none" xmlns="http://www.w3.org/2000/svg">
<path d="M2.12 11H-0.01V0.994999H2.12V11ZM14.9662 11H13.0462V6.425C13.0462 5.75 12.7462 5.27 11.9662 5.27C11.2912 5.27 10.7362 5.72 10.4662 6.11V11H8.54621V6.425C8.54621 5.75 8.24621 5.27 7.46621 5.27C6.80621 5.27 6.25121 5.72 5.96621 6.125V11H4.06121V3.755H5.96621V4.7C6.26621 4.265 7.22621 3.575 8.33621 3.575C9.40121 3.575 10.0762 4.07 10.3462 4.895C10.7662 4.235 11.7262 3.575 12.8362 3.575C14.1712 3.575 14.9662 4.28 14.9662 5.765V11ZM23.0896 11H21.1846V10.25C20.6896 10.835 19.8346 11.18 18.8896 11.18C17.7346 11.18 16.3696 10.4 16.3696 8.78C16.3696 7.085 17.7346 6.47 18.8896 6.47C19.8496 6.47 20.7046 6.77 21.1846 7.355V6.35C21.1846 5.615 20.5546 5.135 19.5946 5.135C18.8146 5.135 18.0946 5.42 17.4796 5.99L16.7596 4.715C17.6446 3.935 18.7846 3.575 19.9246 3.575C21.5746 3.575 23.0896 4.235 23.0896 6.32V11ZM21.1846 9.26V8.36C20.8696 7.94 20.2696 7.73 19.6546 7.73C18.9046 7.73 18.2896 8.135 18.2896 8.825C18.2896 9.5 18.9046 9.89 19.6546 9.89C20.2696 9.89 20.8696 9.68 21.1846 9.26ZM24.8292 12.86L25.6842 11.48C26.2692 12.125 27.0342 12.38 27.9492 12.38C28.8642 12.38 29.9442 11.975 29.9442 10.55V9.815C29.3742 10.535 28.5942 10.955 27.7092 10.955C25.8942 10.955 24.5142 9.68 24.5142 7.265C24.5142 4.895 25.8792 3.575 27.7092 3.575C28.5792 3.575 29.3592 3.95 29.9442 4.685V3.755H31.8642V10.505C31.8642 13.265 29.7342 13.94 27.9492 13.94C26.7042 13.94 25.7292 13.655 24.8292 12.86ZM29.9442 8.435V6.095C29.6292 5.615 28.9392 5.27 28.3092 5.27C27.2292 5.27 26.4792 6.02 26.4792 7.265C26.4792 8.51 27.2292 9.26 28.3092 9.26C28.9392 9.26 29.6292 8.9 29.9442 8.435ZM33.2886 7.37C33.2886 5.27 34.8336 3.575 37.0386 3.575C39.1986 3.575 40.6686 5.195 40.6686 7.565V7.985H35.2836C35.4036 8.9 36.1386 9.665 37.3686 9.665C38.0436 9.665 38.8386 9.395 39.3036 8.945L40.1436 10.175C39.4086 10.85 38.2836 11.18 37.1586 11.18C34.9536 11.18 33.2886 9.695 33.2886 7.37ZM37.0386 5.09C35.8536 5.09 35.3436 5.975 35.2536 6.695H38.8236C38.7786 6.005 38.2986 5.09 37.0386 5.09ZM45.4175 7.37C45.4175 5.15 47.0225 3.575 49.2575 3.575C50.7425 3.575 51.6425 4.22 52.1225 4.895L50.8775 6.05C50.5325 5.555 50.0075 5.27 49.3475 5.27C48.1925 5.27 47.3825 6.11 47.3825 7.37C47.3825 8.63 48.1925 9.485 49.3475 9.485C50.0075 9.485 50.5325 9.185 50.8775 8.705L52.1225 9.86C51.6425 10.535 50.7425 11.18 49.2575 11.18C47.0225 11.18 45.4175 9.605 45.4175 7.37ZM56.7279 11.18C54.3429 11.18 52.9029 9.44 52.9029 7.37C52.9029 5.315 54.3429 3.575 56.7279 3.575C59.1279 3.575 60.5679 5.315 60.5679 7.37C60.5679 9.44 59.1279 11.18 56.7279 11.18ZM56.7279 9.485C57.9129 9.485 58.5879 8.51 58.5879 7.37C58.5879 6.245 57.9129 5.27 56.7279 5.27C55.5429 5.27 54.8829 6.245 54.8829 7.37C54.8829 8.51 55.5429 9.485 56.7279 9.485ZM72.8861 11H70.9661V6.425C70.9661 5.75 70.6661 5.27 69.8861 5.27C69.2111 5.27 68.6561 5.72 68.3861 6.11V11H66.4661V6.425C66.4661 5.75 66.1661 5.27 65.3861 5.27C64.7261 5.27 64.1711 5.72 63.8861 6.125V11H61.9811V3.755H63.8861V4.7C64.1861 4.265 65.1461 3.575 66.2561 3.575C67.3211 3.575 67.9961 4.07 68.2661 4.895C68.6861 4.235 69.6461 3.575 70.7561 3.575C72.0911 3.575 72.8861 4.28 72.8861 5.765V11ZM75.6996 2.69C75.0846 2.69 74.5596 2.18 74.5596 1.55C74.5596 0.919999 75.0846 0.41 75.6996 0.41C76.3296 0.41 76.8396 0.919999 76.8396 1.55C76.8396 2.18 76.3296 2.69 75.6996 2.69ZM76.6596 11H74.7546V3.755H76.6596V11ZM85.3435 11H83.4385V6.62C83.4385 5.615 82.9135 5.27 82.1035 5.27C81.3535 5.27 80.7685 5.69 80.4535 6.125V11H78.5485V3.755H80.4535V4.7C80.9185 4.145 81.8035 3.575 82.9885 3.575C84.5785 3.575 85.3435 4.475 85.3435 5.885V11ZM87.085 12.86L87.94 11.48C88.525 12.125 89.29 12.38 90.205 12.38C91.12 12.38 92.2 11.975 92.2 10.55V9.815C91.63 10.535 90.85 10.955 89.965 10.955C88.15 10.955 86.77 9.68 86.77 7.265C86.77 4.895 88.135 3.575 89.965 3.575C90.835 3.575 91.615 3.95 92.2 4.685V3.755H94.12V10.505C94.12 13.265 91.99 13.94 90.205 13.94C88.96 13.94 87.985 13.655 87.085 12.86ZM92.2 8.435V6.095C91.885 5.615 91.195 5.27 90.565 5.27C89.485 5.27 88.735 6.02 88.735 7.265C88.735 8.51 89.485 9.26 90.565 9.26C91.195 9.26 91.885 8.9 92.2 8.435ZM99.2173 10.055L100.042 8.72C100.567 9.215 101.647 9.71 102.547 9.71C103.372 9.71 103.762 9.425 103.762 8.975C103.762 8.465 103.132 8.285 102.307 8.12C101.062 7.88 99.4573 7.58 99.4573 5.855C99.4573 4.64 100.522 3.575 102.427 3.575C103.657 3.575 104.632 3.995 105.337 4.565L104.587 5.87C104.152 5.405 103.327 5.03 102.442 5.03C101.752 5.03 101.302 5.285 101.302 5.705C101.302 6.155 101.872 6.32 102.682 6.485C103.927 6.725 105.592 7.055 105.592 8.855C105.592 10.19 104.467 11.18 102.457 11.18C101.197 11.18 99.9823 10.76 99.2173 10.055ZM110.356 11.18C107.971 11.18 106.531 9.44 106.531 7.37C106.531 5.315 107.971 3.575 110.356 3.575C112.756 3.575 114.196 5.315 114.196 7.37C114.196 9.44 112.756 11.18 110.356 11.18ZM110.356 9.485C111.541 9.485 112.216 8.51 112.216 7.37C112.216 6.245 111.541 5.27 110.356 5.27C109.171 5.27 108.511 6.245 108.511 7.37C108.511 8.51 109.171 9.485 110.356 9.485ZM118.969 11.18C116.584 11.18 115.144 9.44 115.144 7.37C115.144 5.315 116.584 3.575 118.969 3.575C121.369 3.575 122.809 5.315 122.809 7.37C122.809 9.44 121.369 11.18 118.969 11.18ZM118.969 9.485C120.154 9.485 120.829 8.51 120.829 7.37C120.829 6.245 120.154 5.27 118.969 5.27C117.784 5.27 117.124 6.245 117.124 7.37C117.124 8.51 117.784 9.485 118.969 9.485ZM131.017 11H129.112V6.62C129.112 5.615 128.587 5.27 127.777 5.27C127.027 5.27 126.442 5.69 126.127 6.125V11H124.222V3.755H126.127V4.7C126.592 4.145 127.477 3.575 128.662 3.575C130.252 3.575 131.017 4.475 131.017 5.885V11Z" fill="#DFE4EE"/>
</svg>
