<svg width="75" height="50" viewBox="0 0 75 50" fill="none" xmlns="http://www.w3.org/2000/svg">
<path d="M1.14839 17.9346C0.918387 18.6646 0.635055 19.6497 0.451721 20.3963C0.578411 19.88 0.814496 19.3969 1.14401 18.9797C1.47353 18.5624 1.88879 18.2208 2.36171 17.978C3.29151 16.7805 4.48359 15.8123 5.84621 15.1478C7.20883 14.4832 8.70569 14.1401 10.2217 14.1447V14.1163C4.57672 12.4947 2.82506 14.3513 2.33506 15.2247C1.87139 16.0941 1.47523 16.9978 1.15007 17.928" fill="#DFE4EE"/>
<path d="M6.99843 9.25998L6.1651 10.0566C7.1201 9.27331 8.69509 9.45498 11.1201 10.6316C11.6458 9.68982 12.313 8.83429 13.0984 8.09498C11.9484 7.26164 10.7834 6.52667 10.0434 6.87C8.9701 7.59086 7.95123 8.38967 6.99508 9.25998" fill="#DFE4EE"/>
<path d="M18.6016 2.72502C17.74 3.04168 16.5916 3.46499 15.7383 3.81332C16.185 4.28746 16.5862 4.8025 16.9367 5.35166C18.222 4.65485 19.5593 4.05861 20.9366 3.56832C20.705 2.60499 20.6483 2.12331 20.9366 2.00165C20.2316 2.21665 19.2883 2.48168 18.5899 2.72502" fill="#DFE4EE"/>
<path d="M32.6 0.0916545C31.2884 0.198321 29.5417 0.361651 28.2334 0.514984C27.55 0.681651 27.2484 0.928313 26.91 1.95831C28.6933 1.61965 30.4938 1.37933 32.3034 1.23835C32.5704 0.863144 32.9216 0.555671 33.3288 0.340627C33.736 0.125584 34.1879 0.00893112 34.6484 0L32.6 0.0916545Z" fill="#DFE4EE"/>
<path d="M47.1682 0.88166C45.9415 0.694993 44.3049 0.461677 43.0732 0.316677C41.8415 0.170397 40.5978 0.465675 39.5632 1.15001C41.4429 1.24727 43.3161 1.44422 45.1749 1.74002C46.5632 1.14182 48.1072 1.00679 49.5782 1.35499C48.8549 1.21165 47.8949 1.00166 47.1682 0.88166Z" fill="#DFE4EE"/>
<path d="M60.3132 5.03498C59.4032 4.61331 58.1882 4.05998 57.2649 3.67664C55.4472 2.92325 53.4389 2.75943 51.5232 3.2083C53.0222 3.67131 54.4883 4.23485 55.9115 4.89501C58.4235 4.58943 60.9625 5.18341 63.0782 6.57164C62.2532 6.09664 61.1565 5.45331 60.3082 5.03498" fill="#DFE4EE"/>
<path d="M73.3564 18.6983C72.7421 16.9411 71.8951 15.274 70.8381 13.7417L70.1881 12.8467C69.0722 11.2528 67.5986 9.94226 65.8852 9.02018C64.1719 8.09809 62.2664 7.59004 60.3214 7.53667C61.2595 8.24935 62.1044 9.07692 62.8364 9.99999C69.4681 10.9383 74.0331 16.7683 74.4648 24.8533C74.4101 22.7573 74.0363 20.6818 73.3564 18.6983Z" fill="#DFE4EE"/>
<path d="M63.8782 43.47C65.1463 42.6485 66.3478 41.7285 67.4715 40.7183C67.8949 40.3067 68.4715 39.7633 68.8698 39.3317C77.1415 29.7467 73.3832 15.915 64.5016 13.4067C64.5971 13.8449 64.6485 14.2916 64.6549 14.74C64.6549 14.82 64.6549 14.9067 64.6549 14.9783C64.646 15.4179 64.5941 15.8556 64.4999 16.285C73.9999 20.5733 73.0682 37.6867 62.9865 44.0283L63.8782 43.4767" fill="#DFE4EE"/>
<path d="M51.4548 48.51C52.6915 48.19 54.3348 47.7317 55.5615 47.3567C67.7282 42.785 69.6631 24.12 62.8365 19.63C62.1039 20.5294 61.2592 21.3315 60.3231 22.0167C66.0981 28.385 60.1798 46.3767 49.3415 48.96L51.4548 48.51Z" fill="#DFE4EE"/>
<path d="M37.3016 50C38.4483 49.99 39.9783 49.9733 41.1249 49.9283C51.2266 48.885 58.4166 30.3334 55.9149 24.5284C54.4901 25.1494 53.0238 25.6707 51.5266 26.0883C51.5033 33.5083 41.5149 50.0884 34.3516 49.9017C35.2366 49.9334 36.4166 49.9983 37.3016 50Z" fill="#DFE4EE"/>
<path d="M22.6499 48.0883C23.7782 48.36 25.2865 48.7083 26.4215 48.94C30.6365 49.25 41.2549 34.94 45.1699 27.3767C43.3032 27.6178 41.425 27.7597 39.5432 27.8017C36.4832 30.7717 28.4099 40.1134 26.8232 41.9567C22.7365 46.7 21.2183 47.6 20.6649 47.52L22.6499 48.0883Z" fill="#DFE4EE"/>
<path d="M10.3366 42.73C11.5603 43.5502 12.8364 44.2895 14.1566 44.9433L14.2649 44.9966C14.4916 43.79 24.5366 31.79 32.2916 27.4966C30.4831 27.3022 28.6866 27.0096 26.9099 26.62C17.6449 30.1716 8.18657 41.0367 9.81491 42.37L10.3366 42.73Z" fill="#DFE4EE"/>
<path d="M3.63157 36.2384C4.0699 36.8284 4.66156 37.6117 5.13156 38.1717C3.04489 34.9917 11.8432 26.7567 20.9482 24.8383C19.569 24.307 18.2319 23.6725 16.9482 22.94C8.56989 23.85 0.59656 29.7884 2.23656 33.8934C2.63823 34.6134 3.17658 35.5717 3.63991 36.24" fill="#DFE4EE"/>
<path d="M0.00344849 24.5917C0.00344849 24.7267 0.00344849 24.86 0.00344849 24.9933C0.0401152 25.69 0.0984587 26.6167 0.170125 27.3083C-0.0548747 22.7917 6.80345 19.8733 13.1001 20.08C12.3141 19.3176 11.6466 18.4417 11.1201 17.4816C5.79675 16.7983 2.88678 18.1717 1.38178 19.4417C0.506407 21.0192 0.0324815 22.7878 0.00177002 24.5917" fill="#DFE4EE"/>
</svg>
