<svg width="90" height="30" viewBox="0 0 90 30" fill="none" xmlns="http://www.w3.org/2000/svg">
<path d="M20.4163 3.87683L20.4201 3.87471L20.4156 3.87259V3.87753M20.6614 6.13592L20.69 6.16415C20.2163 6.04454 19.7165 6.10081 19.2795 6.32294C19.3412 6.21752 19.3726 6.09639 19.37 5.97352C19.3673 5.85066 19.3308 5.73105 19.2647 5.62849C19.1924 5.51947 19.1024 5.42398 18.9985 5.34619C19.5294 5.47923 20.0894 5.40934 20.5735 5.14964C20.5122 5.21845 20.4656 5.29956 20.4366 5.38782C20.4077 5.47607 20.397 5.56954 20.4052 5.66225C20.4135 5.75497 20.4406 5.84491 20.4847 5.92634C20.5288 6.00776 20.589 6.0789 20.6614 6.13521M21.1675 9.02877C21.1565 9.03159 21.1565 9.03159 21.0813 9.00971C20.8862 8.94924 20.6823 8.92405 20.4787 8.93526C20.2207 8.95396 19.9713 9.03799 19.7529 9.1798C19.7147 9.20396 19.6732 9.22215 19.6298 9.23379C19.7372 9.10789 19.8031 8.95062 19.8183 8.78424C19.8334 8.61787 19.797 8.45083 19.7143 8.30679C19.6719 8.22757 19.6219 8.15286 19.565 8.08377C20.0374 8.20222 20.5357 8.14011 20.9665 7.9091C20.8733 8.09226 20.8446 8.30272 20.8853 8.50501C20.926 8.7073 21.0336 8.88904 21.19 9.01959L21.1686 9.02736M19.6326 9.2352L19.6253 9.24014L19.6298 9.23449H19.6326M24.955 10.671C25.1216 10.5937 25.2675 10.4762 25.3801 10.3287C25.4015 10.2988 25.8994 9.5856 24.9664 8.93102C24.7323 8.78769 24.4654 8.71015 24.1927 8.70624C23.9137 8.75898 23.6383 8.8297 23.368 8.91797C23.6952 8.31138 23.5124 8.06648 23.1808 7.62222C24.1241 8.01426 24.6495 7.73549 24.8788 7.53506C25.5422 6.95458 24.8054 5.96336 23.7024 5.95207C22.8405 5.9429 22.125 6.63135 22.9094 7.46342C22.6716 7.35697 22.4141 7.30438 22.1546 7.30925C21.8951 7.31412 21.6396 7.37634 21.4058 7.49166C21.5029 7.32256 21.5368 7.12323 21.5014 6.9305C21.4659 6.73778 21.3635 6.5647 21.2131 6.44327C21.6494 6.56793 22.1136 6.54314 22.535 6.37269C22.6631 6.30758 22.7817 6.22444 22.8873 6.12568C23.0687 5.97148 23.2876 5.62567 22.7243 5.0406C23.1673 5.15211 23.8372 5.32114 24.3258 4.97814C24.8475 4.61327 24.5289 3.99257 23.6945 3.74944C23.5404 3.70427 22.7453 3.50243 22.2381 3.95199C22.0543 4.11537 22.0543 4.11537 22.4215 4.87828C21.8323 4.64962 21.4906 4.73254 20.8679 4.88287C21.1162 4.40931 20.9117 4.24311 20.5414 3.94176V3.93893C20.2503 3.86452 19.9541 3.81297 19.6553 3.78473C19.1037 3.7992 17.7162 4.2731 18.6578 5.21069C18.2176 5.19057 17.0477 5.13799 16.7484 5.99971C16.5416 6.58936 17.3563 7.47225 18.8347 6.77603C18.7482 6.93969 18.7183 7.12852 18.75 7.31178C18.7817 7.49503 18.873 7.66191 19.0092 7.78525C18.7456 7.72667 18.4722 7.73223 18.211 7.80148C17.9499 7.87074 17.7082 8.00175 17.5056 8.18399C17.7421 7.75419 17.8076 7.41438 17.4021 7.04774C17.2922 6.98218 17.1768 6.92656 17.0574 6.88154C16.5747 6.67264 15.3824 6.98175 15.1879 7.81841C15.0204 8.53792 16.0789 9.2846 17.3204 8.38089C17.0681 8.94549 17.0887 8.97513 17.6218 9.69076C15.3538 9.4628 15.7327 11.0232 15.7503 11.0895C15.8212 11.2895 15.9596 11.4568 16.1406 11.5613C16.4277 11.7008 16.7509 11.7427 17.0629 11.6808C17.3749 11.6189 17.6594 11.4565 17.8748 11.2173C17.9682 11.1127 18.0404 10.9903 18.0873 10.8571C18.1343 10.7239 18.155 10.5824 18.1483 10.441C18.1341 10.1587 17.8724 10.0083 17.8007 9.75674C18.0679 9.85468 18.3547 9.88323 18.6354 9.83981C18.9161 9.79639 19.1818 9.68237 19.4088 9.50797C18.8103 10.7413 20.1587 11.0677 20.1725 11.0712C21.0389 11.2706 22.4746 10.5648 21.5454 9.25637C21.8149 9.3741 22.1098 9.41795 22.4009 9.38361C22.692 9.34927 22.9693 9.23792 23.2056 9.06053L23.2563 9.07252C23.1949 9.16098 23.1425 9.25556 23.0997 9.35482C22.7549 10.2568 23.9693 11.122 24.9571 10.677" fill="white"/>
<path d="M16.5164 5.9189C16.866 5.73435 17.3784 5.29043 17.0743 4.79606C16.4516 4.06279 14.8028 4.67044 14.698 5.45875C14.6813 5.59228 14.7152 5.72728 14.7928 5.83598C15.2204 6.33423 16.0768 6.15356 16.5168 5.92031" fill="white"/>
<path d="M20.5464 3.93679V3.93397L20.5409 3.93679H20.5475M20.4213 3.87468V3.87257H20.4164L20.4213 3.87468ZM21.888 3.98831C21.9464 3.97215 22.004 3.95284 22.0604 3.93044C22.7072 3.66931 22.6851 3.13471 22.0166 2.85206C21.1164 2.47131 19.7596 2.83053 20.0675 3.53804C20.1314 3.64728 20.2231 3.73678 20.3327 3.79705C20.3871 3.82563 20.4075 3.83869 20.4206 3.87257C20.5144 3.88033 20.5357 3.89903 20.5464 3.93397C20.5634 3.92748 20.5817 3.92532 20.5998 3.92766C20.6178 3.92999 20.635 3.93676 20.6499 3.94738C21.0505 4.07835 21.4789 4.09252 21.887 3.98831" fill="white"/>
<path d="M18.1087 4.37367C18.8673 4.05609 19.0197 3.46079 18.4135 3.19861C17.5171 2.81045 16.0362 3.43609 16.2707 4.10337C16.2901 4.14905 16.3146 4.19227 16.3438 4.23217C16.7524 4.6715 17.6219 4.5794 18.1087 4.37367Z" fill="white"/>
<path d="M25.954 6.4549C26.6915 6.30916 26.7853 5.64329 26.1326 5.18456C25.3003 4.59773 24.1018 4.81475 24.1891 5.53743C24.2028 5.62893 24.2335 5.71687 24.2798 5.79644C24.4741 6.05165 24.7326 6.24801 25.0276 6.36454C25.3225 6.48108 25.6429 6.51341 25.9544 6.45807" fill="white"/>
<path d="M26.4648 9.19672C27.2154 8.94971 27.285 7.99519 26.3507 7.5294C25.3508 7.03114 24.4868 7.61797 24.6988 8.36289C24.7147 8.4164 24.7346 8.46855 24.7585 8.51886C24.9346 8.80377 25.1954 9.02335 25.5026 9.14536C25.8097 9.26737 26.1469 9.28537 26.4648 9.19672Z" fill="white"/>
<path d="M15.4475 10.4265C15.762 10.232 16.2809 9.70062 15.9926 9.0778C15.441 8.22349 13.9584 8.7955 13.7553 9.70556C13.7089 9.89007 13.7328 10.0857 13.8222 10.2529C14.1994 10.8284 14.9983 10.6992 15.4451 10.4237" fill="white"/>
<path d="M14.9891 7.6762C15.7821 7.18218 15.8248 6.3434 15.0649 6.15638C14.0861 5.91466 12.9117 6.91999 13.3431 7.62891C13.7289 8.12117 14.535 7.9465 14.9846 7.66879" fill="white"/>
<path d="M23.2501 12.398C24.181 11.9781 24.1165 10.8023 23.1435 10.4322C22.2026 10.074 21.1007 10.7903 21.4755 11.7949C21.642 12.1064 21.9176 12.3417 22.2468 12.4536C22.5759 12.5654 22.9346 12.5456 23.2501 12.398Z" fill="white"/>
<path d="M19.4829 12.7942C19.7387 12.6859 19.9438 12.4806 20.0552 12.2212C20.1666 11.9618 20.1757 11.6683 20.0807 11.4022C19.5339 10.3644 17.9713 10.7444 17.7303 11.7123C17.6766 11.9224 17.6964 12.1451 17.7862 12.3418C18.1654 13.0599 19.0077 13.0434 19.4863 12.8006" fill="white"/>
<path d="M19.785 3.05532C20.4057 2.85807 20.6856 2.42509 20.1298 2.14209C19.3227 1.72922 17.746 2.16749 17.9677 2.74197C17.9863 2.7809 18.0095 2.81739 18.0366 2.85065C18.4504 3.24411 19.3089 3.20776 19.7864 3.05497" fill="white"/>
<path d="M13.5026 9.54675C14.2477 9.01462 14.2763 8.15538 13.5536 7.98741C12.7368 7.79827 11.5625 8.76973 11.9676 9.54605C12.3562 10.0662 13.1144 9.8227 13.5009 9.54605" fill="white"/>
<path d="M27.8906 7.88829C28.193 7.82407 28.6492 7.60846 28.3078 6.8826C27.8831 6.20473 26.446 5.95172 26.2357 6.68605C26.1975 6.8479 26.2208 7.01853 26.3008 7.16349C26.4665 7.43129 26.7058 7.64299 26.9886 7.77195C27.2715 7.90092 27.5853 7.9414 27.8906 7.88829Z" fill="white"/>
<path d="M21.355 14.2513C21.4969 14.2148 21.6297 14.1483 21.7449 14.0559C21.86 13.9635 21.955 13.8474 22.0235 13.7151C22.092 13.5828 22.1325 13.4372 22.1425 13.2878C22.1525 13.1384 22.1317 12.9885 22.0814 12.8479C21.9694 12.6347 21.8015 12.4578 21.5966 12.3369C21.3918 12.216 21.158 12.156 20.9216 12.1635C20.6853 12.1711 20.4556 12.2459 20.2585 12.3797C20.0614 12.5134 19.9047 12.7007 19.8058 12.9206C19.7139 13.164 19.7177 13.4343 19.8162 13.675C19.9592 13.9475 20.1948 14.1569 20.4784 14.2638C20.7621 14.3707 21.0741 14.3676 21.3557 14.2551" fill="white"/>
<path d="M14.4785 5.24349C15.1512 4.83416 15.2571 4.23992 14.6882 4.06666C13.8289 3.80412 12.4815 4.69725 12.838 5.29184C12.8507 5.3111 12.8643 5.32971 12.8787 5.34759C13.279 5.73575 14.0724 5.48874 14.4785 5.24173" fill="white"/>
<path d="M25.4719 4.12557C26.0926 4.055 26.2439 3.65202 25.7871 3.2808C25.0751 2.70314 23.657 2.75149 23.7646 3.35137C23.781 3.42096 23.8103 3.4867 23.8508 3.5451C24.0614 3.75942 24.3163 3.9226 24.5968 4.02258C24.8773 4.12257 25.1761 4.1568 25.4713 4.12275" fill="white"/>
<path d="M26.8015 12.2558C27.6448 11.9646 27.609 10.8665 26.7415 10.4208C25.8654 9.96985 24.9117 10.5909 25.1713 11.4442C25.1813 11.4763 25.1982 11.5179 25.2096 11.55C25.3477 11.8438 25.5845 12.077 25.8767 12.207C26.1689 12.3369 26.497 12.355 26.8011 12.2579" fill="white"/>
<path d="M15.8589 13.4301C16.7108 12.9114 16.6622 11.8037 15.7782 11.6068C14.9438 11.4209 13.9532 12.2861 14.3029 13.156C14.6725 13.8211 15.4534 13.6768 15.8589 13.4301Z" fill="white"/>
<path d="M28.345 10.7473C29.1487 10.489 28.9656 9.47693 28.2326 9.05948C27.4396 8.6078 26.4504 9.02949 26.7452 9.91767C26.7565 9.95296 26.7765 9.99777 26.7903 10.032C26.9337 10.3124 27.1649 10.5353 27.4469 10.665C27.7289 10.7947 28.0453 10.8237 28.3453 10.7473" fill="white"/>
<path d="M23.4122 2.96853C23.7359 2.92196 24.2121 2.74093 23.9393 2.35701C23.3325 1.70278 21.6982 1.79241 21.6824 2.30866C21.6844 2.39066 21.7154 2.46913 21.7696 2.52956C22.1513 2.94066 22.9605 3.03452 23.4128 2.96995" fill="white"/>
<path d="M16.0054 3.70181C16.3353 3.54125 16.8181 3.17709 16.5346 2.82668C15.9237 2.29949 14.2701 2.95266 14.2749 3.53243C14.2765 3.61387 14.3095 3.69136 14.3666 3.74803C14.7717 4.09703 15.5872 3.90401 16.0061 3.70075" fill="white"/>
<path d="M13.0158 7.01596C13.6898 6.53288 13.7536 5.83066 13.1344 5.69834C12.2883 5.51802 11.1315 6.4856 11.4615 7.09783C11.4718 7.11653 11.4884 7.13947 11.5004 7.15746C11.8628 7.54562 12.6037 7.30779 13.014 7.01385" fill="white"/>
<path d="M27.3969 5.43828C27.6962 5.41111 28.132 5.23679 27.8696 4.74947C27.3145 3.93963 25.8768 3.82812 25.7695 4.41213C25.7575 4.53156 25.7863 4.65157 25.8512 4.75159C26.038 4.98221 26.2751 5.16453 26.5436 5.28378C26.812 5.40303 27.1041 5.45584 27.3962 5.43793" fill="white"/>
<path d="M13.943 12.38C14.7181 11.8472 14.7143 10.8626 13.9365 10.6813C13.1896 10.5066 12.0484 11.3475 12.4477 12.2396C12.758 12.8239 13.5231 12.6694 13.9434 12.3807" fill="white"/>
<path d="M17.8474 14.6493C18.7666 14.12 18.5852 13.0088 17.7646 12.7646C16.9065 12.5095 15.9 13.314 16.2417 14.2534C16.318 14.3913 16.4212 14.5118 16.5449 14.6072C16.6686 14.7026 16.8101 14.771 16.9607 14.8082C17.1113 14.8453 17.2678 14.8503 17.4203 14.823C17.5729 14.7957 17.718 14.7366 17.8474 14.6493Z" fill="white"/>
<path d="M25.2172 13.9489C26.1553 13.5473 25.9919 12.4093 25.1634 12.0243C24.2904 11.6178 23.2246 12.2882 23.5694 13.301C23.7103 13.6048 23.96 13.8416 24.2667 13.9622C24.5734 14.0829 24.9137 14.0782 25.2172 13.9492" fill="white"/>
<path d="M17.5926 2.38135C18.156 2.18092 18.4725 1.84005 18.0291 1.61668C17.3564 1.27757 15.6766 1.80017 15.889 2.28185C15.9058 2.31287 15.9269 2.34118 15.9518 2.36583C16.3497 2.66436 17.1513 2.53874 17.593 2.38171" fill="white"/>
<path d="M21.3699 2.03626C21.9361 1.9304 22.1357 1.67421 21.835 1.43991C21.2641 0.995641 19.5625 1.13749 19.6418 1.62305C19.6561 1.67756 19.6847 1.727 19.7246 1.76596C20.1214 2.11354 20.9445 2.11636 21.3699 2.03626Z" fill="white"/>
<path d="M29.7631 9.44939C30.4478 9.28848 30.3878 8.44476 29.6596 7.99379C28.8939 7.51917 28.0702 7.81206 28.2377 8.49945C28.2566 8.56456 28.2797 8.62833 28.3067 8.69036C28.4452 8.95338 28.6588 9.16694 28.9189 9.30255C29.1791 9.43817 29.4738 9.48939 29.7631 9.44939Z" fill="white"/>
<path d="M11.5763 8.93878C12.2462 8.39147 12.2631 7.6268 11.606 7.55199C10.8474 7.46589 9.77861 8.44829 10.1696 9.09828C10.4478 9.48185 11.116 9.31388 11.5763 8.93878Z" fill="white"/>
<path d="M12.065 11.5469C12.8507 10.9382 12.7249 10.0697 12.0529 9.98469C11.3009 9.88941 10.3217 10.8457 10.6738 11.5585L10.6793 11.568C10.983 12.0158 11.6192 11.8906 12.0639 11.5454" fill="white"/>
<path d="M29.2849 6.86389C29.9372 6.7912 29.8255 6.18214 29.4093 5.83774C28.676 5.23115 27.6244 5.27808 27.7306 5.91255C27.7468 5.98981 27.774 6.06423 27.8113 6.13345C27.975 6.37434 28.1966 6.56806 28.4547 6.69598C28.7128 6.8239 28.9987 6.88173 29.2849 6.86389Z" fill="white"/>
<path d="M19.7336 16.1271C20.5652 15.7587 20.6583 14.5911 19.8839 14.2329C18.9913 13.8211 17.867 14.56 18.2231 15.607C18.4603 16.2023 19.2092 16.3586 19.7333 16.1275" fill="white"/>
<path d="M23.4365 15.7704C23.636 15.7054 23.811 15.5791 23.9378 15.4086C24.0645 15.2381 24.1368 15.0318 24.1449 14.8177C24.1529 14.6036 24.0963 14.3922 23.9826 14.2123C23.869 14.0324 23.704 13.8927 23.51 13.8123C22.587 13.4153 21.5447 14.0741 21.8964 15.1475C22.0264 15.4333 22.2585 15.6572 22.545 15.7731C22.8314 15.889 23.1507 15.888 23.4365 15.7704Z" fill="white"/>
<path d="M12.4321 4.89592C12.722 4.69655 13.144 4.27945 12.8844 3.97845C12.5269 3.70039 11.89 3.99045 11.7035 4.08431C11.177 4.35355 10.8826 4.76183 10.9105 4.98519C10.9198 5.05789 10.9219 5.06 11.0395 5.1761C11.3267 5.39559 11.9859 5.2015 12.4324 4.8938" fill="white"/>
<path d="M26.8918 3.40822C26.9011 3.40822 27.7993 3.40152 27.2711 2.8588C26.8167 2.39301 25.3913 2.11777 25.3472 2.59062C25.3469 2.66722 25.3743 2.74122 25.4241 2.79846C25.8275 3.17377 26.3483 3.38991 26.8932 3.40822" fill="white"/>
<path d="M13.9444 3.32174C14.445 3.04474 14.7332 2.65128 14.3236 2.50202C13.6972 2.27124 12.1798 3.02462 12.3911 3.46218C12.4099 3.49299 12.4332 3.52071 12.4601 3.5444C12.7056 3.73319 13.3851 3.63121 13.9427 3.32209" fill="white"/>
<path d="M11.0508 6.64795C11.6746 6.13876 11.7153 5.54699 11.1295 5.49653C10.4971 5.44183 9.26003 6.39071 9.69101 6.94084C10.0379 7.25842 10.6947 6.94084 11.0508 6.64795Z" fill="white"/>
<path d="M24.94 2.27904C25.3537 2.27057 25.6395 2.10437 25.4061 1.87006C24.8703 1.33229 23.3698 1.24548 23.3374 1.62517C23.3381 1.65801 23.3453 1.69035 23.3586 1.72026C23.3719 1.75016 23.3909 1.77699 23.4146 1.79913C23.6936 2.09872 24.4283 2.28892 24.94 2.27904Z" fill="white"/>
<path d="M28.7682 4.69797C29.2281 4.71314 29.4519 4.4559 29.0502 4.04869C28.4924 3.48409 27.2791 3.28789 27.2715 3.76215C27.2773 3.85011 27.308 3.93445 27.3597 4.00493C27.7209 4.41775 28.2273 4.66701 28.7678 4.69797" fill="white"/>
<path d="M14.2746 15.3709C15.029 14.9277 15.0565 13.9115 14.3201 13.6715C13.6202 13.4428 12.5237 14.2086 12.8796 15.1356C12.9989 15.3963 13.5143 15.817 14.2746 15.3709Z" fill="white"/>
<path d="M30.1558 12.355C30.7992 12.1432 30.8109 11.128 29.9948 10.6894C29.1787 10.2508 28.5174 10.8323 28.7225 11.5306C28.7315 11.5599 28.7463 11.598 28.757 11.6273C28.8687 11.8981 29.0704 12.1198 29.3264 12.2529C29.5824 12.3861 29.8762 12.4222 30.1558 12.355Z" fill="white"/>
<path d="M12.4536 14.3592C12.7346 14.1549 13.1497 13.6609 12.9204 13.1062C12.4318 12.2565 11.2261 12.9361 11.0586 13.7336C11.0183 13.9129 11.0392 14.101 11.1179 14.2664C11.434 14.8155 12.1071 14.6168 12.457 14.3628" fill="white"/>
<path d="M28.7109 13.9051C29.4181 13.6302 29.4694 12.5497 28.5995 12.1143C27.7507 11.6908 26.9635 12.326 27.2628 13.1934L27.2683 13.2082C27.3839 13.4849 27.5945 13.7087 27.8604 13.8372C28.1263 13.9657 28.429 13.99 28.7112 13.9055" fill="white"/>
<path d="M19.2355 1.37845C19.5617 1.30258 20.1068 1.07427 19.7127 0.85549C19.1824 0.560841 17.4981 0.831849 17.5919 1.19672C17.6113 1.24309 17.6431 1.28295 17.6836 1.31175C18.0201 1.52559 18.8086 1.47831 19.2351 1.3788" fill="white"/>
<path d="M16.2021 16.5901C16.9951 16.1339 16.9893 15.0325 16.1918 14.8046C15.4384 14.5893 14.4113 15.2725 14.754 16.2383C15.0643 16.8699 15.7863 16.8198 16.199 16.5831" fill="white"/>
<path d="M27.1206 15.5886C27.3057 15.4992 27.4596 15.354 27.5618 15.1725C27.6639 14.9909 27.7094 14.7818 27.692 14.5731C27.6747 14.3643 27.5954 14.166 27.4648 14.0048C27.3342 13.8435 27.1585 13.7269 26.9613 13.6708C26.3104 13.4195 25.2829 13.8426 25.6301 14.9277C25.7471 15.2136 25.9675 15.442 26.2454 15.5652C26.5232 15.6884 26.8369 15.6968 27.1206 15.5886Z" fill="white"/>
<path d="M31.0519 8.38301C31.6349 8.31561 31.6201 7.70231 31.0243 7.23158C30.303 6.66099 29.5562 6.83848 29.632 7.3812C29.6458 7.45843 29.6702 7.53327 29.7044 7.60351C29.834 7.85058 30.0293 8.05498 30.2678 8.19296C30.5064 8.33094 30.7782 8.39684 31.0519 8.38301Z" fill="white"/>
<path d="M10.2308 10.9544C10.49 10.719 10.8645 10.2031 10.6238 9.7645C10.1735 9.19285 8.95713 9.91659 8.88782 10.7959C8.8736 10.9204 8.89963 11.0462 8.96194 11.1541C9.26397 11.5395 9.88666 11.2706 10.2325 10.9569" fill="white"/>
<path d="M21.7403 17.6388C21.9302 17.5621 22.093 17.4286 22.2076 17.2556C22.3221 17.0827 22.3831 16.8784 22.3824 16.6694C22.3817 16.4605 22.3195 16.2566 22.2038 16.0844C22.0882 15.9123 21.9244 15.7798 21.734 15.7044C20.9928 15.4013 19.9146 16.0103 20.2263 17.0322C20.2803 17.179 20.3638 17.3126 20.4715 17.4242C20.5791 17.5358 20.7085 17.623 20.8512 17.6802C20.9939 17.7374 21.1468 17.7633 21.2999 17.7562C21.453 17.749 21.6029 17.7091 21.7399 17.6388" fill="white"/>
<path d="M22.9343 1.36115C23.3988 1.33186 23.6239 1.17801 23.4443 1.01145C23.054 0.64729 21.3438 0.567893 21.3411 0.914061C21.3411 0.966992 21.3783 1.00404 21.419 1.04356C21.8856 1.29096 22.4102 1.40091 22.9343 1.36115Z" fill="white"/>
<path d="M15.4932 2.02882C16.0318 1.80757 16.2683 1.51468 15.9994 1.40106C15.4884 1.18545 13.8462 1.74723 13.9327 2.1068C13.946 2.14398 13.9715 2.17529 14.0048 2.19537C14.4727 2.44239 15.4832 2.03164 15.4932 2.02741" fill="white"/>
<path d="M9.72188 8.60426C10.4032 7.98991 10.3273 7.38474 9.77083 7.36321C9.15021 7.33957 8.13207 8.40171 8.47858 8.89644C8.6751 9.12051 9.17781 9.09405 9.72188 8.60426Z" fill="white"/>
<path d="M30.5382 6.12144C31.1705 6.17508 31.0713 5.74175 30.8775 5.49792C30.6051 5.21098 30.2639 5.0023 29.8879 4.89274C29.6694 4.84616 29.1894 4.84263 29.1846 5.13587C29.1892 5.21874 29.215 5.29893 29.2594 5.36841C29.4073 5.58051 29.598 5.75754 29.8187 5.88748C30.0393 6.01741 30.2847 6.09721 30.5382 6.12144Z" fill="white"/>
<path d="M31.4777 11.0359C32.0859 10.9057 32.0173 10.0397 31.3653 9.60991C30.6923 9.1667 29.9796 9.44159 30.1151 10.0919C30.1306 10.1548 30.1505 10.2165 30.1744 10.2765C30.2776 10.5338 30.462 10.7484 30.6982 10.886C30.9344 11.0236 31.2088 11.0766 31.4777 11.0359Z" fill="white"/>
<path d="M10.6664 13.5794C11.3422 12.9813 11.2391 12.1552 10.6637 12.0882C10.0275 12.0144 9.06731 12.8945 9.41624 13.6507C9.61173 13.9997 10.231 13.9644 10.6664 13.5801" fill="white"/>
<path d="M18.0663 17.9787C18.2356 17.8896 18.3804 17.7585 18.4874 17.5974C18.5944 17.4362 18.6601 17.2502 18.6787 17.0563C18.6838 16.863 18.6308 16.6728 18.5271 16.5112C18.4234 16.3496 18.2737 16.2245 18.0984 16.1526C17.3054 15.8523 16.34 16.5686 16.6327 17.4995C16.6939 17.6293 16.7801 17.7452 16.8862 17.8401C16.9923 17.935 17.116 18.007 17.2499 18.0517C17.3838 18.0965 17.5252 18.1131 17.6656 18.1005C17.8059 18.088 17.942 18.0465 18.0663 17.9787Z" fill="white"/>
<path d="M25.423 17.4225C25.6141 17.3431 25.777 17.2061 25.8903 17.0297C26.0035 16.8533 26.0617 16.6459 26.0571 16.4349C26.0525 16.2239 25.9853 16.0193 25.8645 15.8482C25.7437 15.6772 25.575 15.5478 25.3806 15.4771C24.5697 15.1595 23.654 15.7982 23.9367 16.7729C24.0511 17.0594 24.2712 17.2883 24.5494 17.41C24.8275 17.5316 25.1413 17.5363 25.4227 17.4229" fill="white"/>
<path d="M17.1919 1.02773C17.686 0.886583 17.8908 0.738729 17.7405 0.631456C17.7294 0.623693 17.7129 0.615578 17.7015 0.608874C17.2364 0.447964 15.5483 0.847768 15.6483 1.09478C15.662 1.11741 15.6821 1.13526 15.7059 1.14594C15.9772 1.2698 16.6589 1.18123 17.1926 1.02773" fill="white"/>
<path d="M28.3134 3.02781C28.7289 3.09309 28.8899 2.99922 28.7316 2.7808C28.4237 2.35735 26.9808 1.91096 26.8939 2.21267C26.877 2.27195 26.9284 2.34888 26.9725 2.40357C27.3508 2.7402 27.8168 2.95664 28.3134 3.02639" fill="white"/>
<path d="M20.9068 0.711535C21.3944 0.664955 21.6037 0.559447 21.4526 0.436647C21.4413 0.42712 21.4237 0.416886 21.4116 0.408417C20.9382 0.187166 19.3263 0.264798 19.3825 0.506515C19.3887 0.533686 19.4253 0.558742 19.4515 0.577091C19.921 0.731229 20.418 0.77714 20.9068 0.711535Z" fill="white"/>
<path d="M10.503 4.83732C11.2167 4.29602 11.0167 4.01231 10.8671 3.97561C10.3388 3.8454 9.01141 4.80274 9.19622 5.18137C9.2091 5.20254 9.22571 5.22109 9.24519 5.23607C9.44378 5.36169 9.90994 5.28688 10.503 4.83732Z" fill="white"/>
<path d="M32.2397 7.61691C32.6879 7.62714 32.7617 7.2538 32.3886 6.84835C31.8715 6.28869 30.9899 6.12355 30.9778 6.58475C30.9815 6.67856 31.0075 6.77002 31.0536 6.85117C31.1856 7.05891 31.36 7.23492 31.5648 7.36711C31.7697 7.49929 32 7.58451 32.24 7.61691" fill="white"/>
<path d="M32.67 9.94377C33.1982 9.86896 33.1758 9.21862 32.6303 8.78317C31.9842 8.26798 31.3688 8.43806 31.4236 8.94655C31.4362 9.03116 31.4602 9.11357 31.495 9.19145C31.6039 9.4158 31.7715 9.60487 31.9791 9.73766C32.1867 9.87046 32.4262 9.94181 32.671 9.94377" fill="white"/>
<path d="M8.53376 10.5997C9.11197 9.96457 8.9575 9.36893 8.541 9.38445C7.91521 9.4088 7.05324 10.4353 7.38595 10.9667C7.56386 11.1943 8.09209 11.0857 8.53376 10.5997Z" fill="white"/>
<path d="M8.98841 13.0145C9.56765 12.4117 9.46284 11.6714 8.94945 11.6855C8.31712 11.7025 7.53307 12.6588 7.83511 13.2533C8.0075 13.5282 8.53743 13.4841 8.98841 13.0145Z" fill="white"/>
<path d="M30.4651 15.571C30.6212 15.4968 30.7509 15.3747 30.836 15.2216C30.9211 15.0684 30.9574 14.892 30.9399 14.7167C30.9215 14.519 30.8513 14.3301 30.7367 14.1699C30.6221 14.0097 30.4674 13.884 30.2889 13.8063C29.6659 13.5388 28.8887 13.9337 29.1777 14.8886C29.2674 15.1484 29.4504 15.3636 29.6895 15.4903C29.9287 15.6171 30.2059 15.6459 30.4651 15.571Z" fill="white"/>
<path d="M19.9484 19.5031C20.6956 19.1364 20.8104 17.9769 19.9291 17.6681C19.7748 17.5896 19.6034 17.5529 19.4312 17.5615C19.2591 17.5702 19.0919 17.6239 18.9459 17.7176C18.7999 17.8113 18.6798 17.9418 18.5971 18.0966C18.5145 18.2514 18.4721 18.4254 18.4739 18.6018C18.4758 18.7782 18.5219 18.9511 18.6078 19.104C18.6936 19.257 18.8164 19.3848 18.9644 19.4753C19.1124 19.5657 19.2806 19.6158 19.4529 19.6207C19.6252 19.6255 19.7958 19.585 19.9484 19.5031Z" fill="white"/>
<path d="M23.6649 19.2712C23.8465 19.1917 24.0008 19.0587 24.1084 18.8892C24.216 18.7197 24.2719 18.5212 24.269 18.3191C24.2661 18.117 24.2046 17.9203 24.0922 17.7541C23.9799 17.5878 23.8218 17.4595 23.638 17.3855C23.4568 17.3024 23.2562 17.2742 23.0598 17.3042C22.8634 17.3342 22.6796 17.4212 22.5301 17.5549C22.3806 17.6886 22.2716 17.8634 22.2161 18.0585C22.1607 18.2536 22.161 18.4609 22.2172 18.6558C22.2694 18.7962 22.3491 18.9242 22.4512 19.0321C22.5534 19.1399 22.676 19.2253 22.8115 19.2831C22.9471 19.3408 23.0926 19.3697 23.2394 19.368C23.3862 19.3662 23.5311 19.3339 23.6653 19.273" fill="white"/>
<path d="M12.7715 17.3132C12.9159 17.2151 13.0366 17.0847 13.1246 16.9319C13.2126 16.779 13.2655 16.6078 13.2794 16.431C13.2872 16.2712 13.2393 16.1138 13.1442 15.9868C13.0491 15.8598 12.9129 15.7716 12.7601 15.7379C12.0016 15.5756 11.2431 16.3989 11.4951 17.1141C11.6823 17.5422 12.3023 17.6378 12.7708 17.3114" fill="white"/>
<path d="M11.9715 3.26456C12.0405 3.21904 12.6462 2.81289 12.3783 2.63292C12.068 2.3785 10.4996 3.21975 10.572 3.6005C10.5767 3.61765 10.5849 3.63361 10.5959 3.6474C10.6069 3.66118 10.6207 3.67248 10.6362 3.6806C10.8216 3.77235 11.4464 3.61003 11.9736 3.26633" fill="white"/>
<path d="M30.1104 4.29781C30.4059 4.3451 30.6645 4.2837 30.4207 3.95482C30.0594 3.46609 28.7616 3.04371 28.7478 3.40963C28.7531 3.47701 28.7788 3.54103 28.8212 3.59277C29.1688 3.95919 29.6191 4.20584 30.1097 4.29852" fill="white"/>
<path d="M26.4746 1.92016C26.8656 1.96109 27.0352 1.88699 26.9066 1.73137C26.8973 1.72008 26.8835 1.70702 26.8721 1.69608C26.5811 1.34321 25.0448 1.00692 25.0027 1.28569C24.9962 1.33192 25.0334 1.3725 25.0734 1.4159C25.4934 1.69832 25.9744 1.87186 26.4746 1.92157" fill="white"/>
<path d="M9.25506 6.53959C9.82809 5.98099 9.66878 5.60836 9.39675 5.59989C8.76475 5.58013 7.72007 6.61792 7.999 6.98844C8.00958 7.0011 8.0211 7.0129 8.03347 7.02373C8.21862 7.17052 8.79201 6.99162 9.25678 6.54065" fill="white"/>
<path d="M28.9615 17.268C29.7297 16.9401 29.637 15.7224 28.8205 15.4069C28.244 15.1846 27.3238 15.5481 27.6269 16.6067C27.6694 16.7417 27.7383 16.8664 27.8292 16.9735C27.9201 17.0805 28.0313 17.1676 28.156 17.2296C28.2807 17.2915 28.4164 17.3269 28.5548 17.3338C28.6932 17.3406 28.8316 17.3187 28.9615 17.2694" fill="white"/>
<path d="M11.0445 16.3512C11.4003 16.076 11.6441 15.5149 11.4382 15.1765C11.0093 14.396 9.93461 15.1973 9.79429 15.8117C9.75399 15.9796 9.77178 16.1567 9.84462 16.3128C10.067 16.7807 10.6869 16.6409 11.0486 16.3611" fill="white"/>
<path d="M31.8371 14.0321C32.5032 13.8024 32.3736 12.7466 31.6361 12.3941C31.1134 12.1439 30.3079 12.3779 30.6213 13.3394C30.705 13.5878 30.8753 13.7958 31.0996 13.9237C31.3239 14.0515 31.5867 14.0901 31.8371 14.0321Z" fill="white"/>
<path d="M14.524 18.4953C15.2305 18.0972 15.2626 17.0728 14.5758 16.8368C13.992 16.6346 12.9242 17.2249 13.239 18.1724C13.529 18.8019 14.2306 18.6629 14.5244 18.4967" fill="white"/>
<path d="M24.4921 1.0083C24.95 1.04359 25.0559 0.969487 25.0093 0.89609C24.8418 0.643786 23.0747 0.352666 23.0396 0.5718C23.0347 0.601794 23.0665 0.626849 23.0999 0.65402C23.5362 0.867764 24.0105 0.987852 24.4939 1.00689" fill="white"/>
<path d="M31.7798 5.68177C32.2173 5.77069 32.2449 5.54944 32.1245 5.36418C31.7798 4.83488 30.6192 4.34615 30.5517 4.70537C30.5494 4.78952 30.5745 4.87205 30.623 4.94003C30.9189 5.31007 31.3253 5.57042 31.7798 5.68106" fill="white"/>
<path d="M13.5028 2.00516C13.9428 1.7885 14.1486 1.58454 13.992 1.52102C13.6473 1.37987 12.0068 2.06162 12.0826 2.31322C12.0902 2.33757 12.1171 2.35027 12.1374 2.3598C12.3916 2.44378 13.017 2.24476 13.5028 2.00516Z" fill="white"/>
<path d="M8.02017 8.5199C8.52322 7.98001 8.51252 7.45916 8.13808 7.46446C7.55781 7.47363 6.56415 8.55307 6.91652 8.97299C7.30509 9.27363 7.9888 8.54954 8.01742 8.51672" fill="white"/>
<path d="M33.0639 12.6574C33.65 12.5078 33.5507 11.6309 32.9046 11.2356C32.3271 10.8828 31.7668 11.1827 31.8857 11.7798C31.8981 11.8327 31.9136 11.8847 31.9319 11.9357C32.0087 12.1723 32.1639 12.374 32.3706 12.5058C32.5773 12.6377 32.8225 12.6914 33.0639 12.6577" fill="white"/>
<path d="M9.32419 15.6303C9.91447 15.096 9.90517 14.2654 9.30938 14.2417C8.66532 14.2163 7.95609 15.18 8.22502 15.715C8.44948 16.0816 8.96079 15.9595 9.32419 15.6303Z" fill="white"/>
<path d="M16.3461 19.8355C17.1025 19.4784 17.1494 18.4303 16.4219 18.136C15.7796 17.8763 14.749 18.5122 15.0586 19.3958C15.1106 19.5151 15.1863 19.622 15.2809 19.7097C15.3754 19.7974 15.4868 19.8641 15.6078 19.9054C15.7289 19.9468 15.8571 19.9619 15.9841 19.9499C16.1112 19.9378 16.2345 19.8989 16.3461 19.8355Z" fill="white"/>
<path d="M27.2983 19.1205C27.4754 19.0392 27.6256 18.9069 27.7308 18.7399C27.8359 18.5729 27.8914 18.3782 27.8906 18.1796C27.8898 17.9809 27.8327 17.7867 27.7263 17.6206C27.6198 17.4544 27.4685 17.3235 27.2907 17.2436C27.1188 17.1672 26.929 17.1429 26.7439 17.1735C26.5588 17.2041 26.3862 17.2884 26.2464 17.4163C26.1067 17.5442 26.0057 17.7104 25.9554 17.8953C25.9051 18.0801 25.9076 18.2758 25.9626 18.4593C26.0025 18.596 26.0699 18.7227 26.1603 18.8313C26.2508 18.9399 26.3624 19.028 26.488 19.0899C26.6136 19.1518 26.7505 19.1863 26.8898 19.191C27.0292 19.1957 27.1679 19.1707 27.2973 19.1174" fill="white"/>
<path d="M18.8852 0.373827C19.1679 0.329365 19.5499 0.240794 19.4434 0.178336C19.2044 0.0371866 17.4805 0.216092 17.4377 0.385118C17.4488 0.404174 17.4564 0.408055 17.4981 0.42464C17.9603 0.474872 18.4276 0.457765 18.8852 0.373827Z" fill="white"/>
<path d="M33.7892 9.14345C34.1982 9.15121 34.2375 8.74753 33.8654 8.32761C33.4131 7.81524 32.6439 7.68468 32.6549 8.12259C32.6636 8.224 32.6919 8.32261 32.7383 8.41265C32.8439 8.61136 32.9944 8.78136 33.1772 8.90848C33.36 9.0356 33.5698 9.11616 33.7892 9.14345Z" fill="white"/>
<path d="M7.37735 12.742C7.6618 12.4008 7.83729 11.8902 7.64697 11.6739C7.21599 11.1619 6.31576 12.2844 6.29163 12.8119C6.28438 12.9226 6.31311 13.0327 6.37334 13.1249C6.5709 13.403 7.09325 13.0921 7.3808 12.7466" fill="white"/>
<path d="M21.8566 21.1252C22.0309 21.0504 22.1799 20.9247 22.2848 20.7636C22.3897 20.6026 22.4459 20.4135 22.4463 20.22C22.4467 20.0265 22.3913 19.8371 22.2871 19.6757C22.1829 19.5142 22.0344 19.3877 21.8603 19.3122C21.2563 19.0694 20.2247 19.4957 20.4998 20.5437C20.5422 20.6801 20.6131 20.8055 20.7076 20.9112C20.802 21.0168 20.9178 21.1001 21.0468 21.1554C21.1759 21.2108 21.3151 21.2367 21.4549 21.2315C21.5948 21.2263 21.7318 21.19 21.8566 21.1252Z" fill="white"/>
<path d="M33.3541 7.13418C33.7137 7.21075 33.774 6.99126 33.6044 6.7379C33.2496 6.20859 32.289 5.78514 32.2335 6.13802C32.2315 6.22 32.2535 6.30073 32.2966 6.36985C32.543 6.75159 32.9204 7.02484 33.3541 7.13559" fill="white"/>
<path d="M22.5467 0.38974C22.9118 0.401032 23.1328 0.372803 23.0983 0.319167C22.9949 0.164961 21.1965 0.0241651 21.1531 0.167079C21.1617 0.184016 21.1686 0.187898 21.2034 0.205542C21.642 0.322667 22.093 0.38429 22.5463 0.389035" fill="white"/>
<path d="M15.1786 1.02523C15.641 0.86714 15.8182 0.742928 15.7545 0.703053C15.5562 0.577431 13.773 1.10109 13.7892 1.28071C13.7892 1.298 13.815 1.30435 13.8364 1.3107C14.2959 1.28391 14.749 1.18771 15.1811 1.02523" fill="white"/>
<path d="M34.2158 11.5391C34.706 11.4664 34.6378 10.7582 34.102 10.3548C33.6441 10.0101 33.0548 10.0874 33.1324 10.6131C33.1459 10.6886 33.167 10.7624 33.1955 10.8333C33.2699 11.0464 33.4089 11.2296 33.5922 11.3561C33.7754 11.4826 33.9935 11.5459 34.2144 11.5366" fill="white"/>
<path d="M6.87548 10.6026C7.35266 10.0112 7.30164 9.48467 6.91548 9.52313C6.44623 9.56936 5.55495 10.6326 5.88836 11.074C6.24039 11.3824 6.84962 10.6347 6.87548 10.6026Z" fill="white"/>
<path d="M7.75341 15.1334C8.283 14.5671 8.21955 13.8888 7.77822 13.8737C7.24897 13.8557 6.49286 14.812 6.75973 15.3596C7.02108 15.7375 7.52275 15.3748 7.75168 15.1302" fill="white"/>
<path d="M25.4725 20.9996C25.6529 20.932 25.8097 20.8111 25.9227 20.6521C26.0358 20.4931 26.1002 20.3033 26.1076 20.1068C26.1149 19.9104 26.0651 19.7161 25.9643 19.5487C25.8635 19.3813 25.7163 19.2483 25.5415 19.1668C25.3683 19.0838 25.1752 19.0543 24.9859 19.0819C24.7966 19.1094 24.6192 19.1928 24.4754 19.3219C24.3317 19.451 24.2278 19.6201 24.1765 19.8086C24.1252 19.9972 24.1286 20.1969 24.1864 20.3835C24.2243 20.5153 24.2891 20.6375 24.3766 20.7418C24.4641 20.8461 24.5723 20.9301 24.6939 20.9884C24.8155 21.0467 24.9479 21.0778 25.0822 21.0797C25.2165 21.0816 25.3493 21.0543 25.4725 20.9996Z" fill="white"/>
<path d="M18.1865 21.3507C18.9485 21.0095 18.9243 19.9766 18.3165 19.7003C17.7159 19.4272 16.6336 19.8457 16.9001 20.8327C16.9427 20.9599 17.0118 21.076 17.1027 21.1731C17.1935 21.2702 17.3039 21.3459 17.4262 21.395C17.5484 21.444 17.6797 21.4653 17.8108 21.4573C17.9419 21.4493 18.0698 21.4122 18.1855 21.3486" fill="white"/>
<path d="M8.79707 5.05223C9.22461 4.67219 9.26356 4.42094 9.05393 4.3973C8.65364 4.35284 7.48273 5.33877 7.62961 5.59707C7.64284 5.61391 7.65957 5.62753 7.67858 5.63694C7.91786 5.72481 8.47849 5.33559 8.79707 5.05294" fill="white"/>
<path d="M29.6642 2.96183C29.8597 3.0197 30.1324 3.06487 30.0842 2.9523C29.9528 2.64636 28.4512 1.99108 28.4106 2.2215C28.4047 2.25679 28.4395 2.29808 28.4775 2.34148C28.8316 2.62242 29.234 2.83296 29.6639 2.96218" fill="white"/>
<path d="M32.1087 17.2383C32.7028 16.9483 32.6511 15.8057 31.8577 15.552C31.3536 15.391 30.7499 15.775 30.9809 16.6162C31.0119 16.7349 31.0662 16.8458 31.1406 16.9422C31.215 17.0386 31.3078 17.1184 31.4135 17.1767C31.5191 17.235 31.6353 17.2705 31.7549 17.2811C31.8744 17.2917 31.9949 17.2771 32.1087 17.2383Z" fill="white"/>
<path d="M11.2501 19.1992C11.8618 18.7889 11.8814 17.9158 11.2825 17.7846C10.6771 17.6515 9.91789 18.3442 10.1423 19.0196C10.3147 19.4325 10.8688 19.4544 11.2501 19.1982" fill="white"/>
<path d="M10.112 3.57825C10.4475 3.33512 10.6958 3.05847 10.5303 3.03483C10.0658 2.96849 8.82218 3.91277 8.93492 4.07439C8.94689 4.08659 8.96194 4.09514 8.97838 4.09909C9.16629 4.13438 9.73173 3.8542 10.112 3.57825Z" fill="white"/>
<path d="M27.8769 1.87498C28.1372 1.94555 28.3913 1.9752 28.3513 1.8958C28.2348 1.66714 26.6701 1.11701 26.607 1.28251C26.5981 1.30615 26.6294 1.33473 26.6629 1.36473C27.0407 1.59531 27.4498 1.76727 27.8769 1.87498Z" fill="white"/>
<path d="M31.3758 4.22406C31.6057 4.30275 31.8133 4.31757 31.7657 4.19371C31.6313 3.84296 30.3238 3.15238 30.2114 3.37258C30.1883 3.41704 30.239 3.48761 30.2687 3.52925C30.5842 3.84033 30.9621 4.07741 31.3761 4.22406" fill="white"/>
<path d="M7.49924 6.83775C7.76611 6.55228 8.06367 6.0392 7.70888 6.03603C7.22411 6.03109 6.20767 7.13452 6.45868 7.39318C6.46751 7.40108 6.47686 7.40839 6.48662 7.41505C6.69143 7.52303 7.21548 7.14263 7.49924 6.83775Z" fill="white"/>
<path d="M33.4376 15.6536C33.9851 15.4143 33.9148 14.3783 33.1825 14.0925C32.7608 13.9287 32.1202 14.1683 32.3791 15.0367C32.4415 15.2609 32.5873 15.4511 32.7852 15.5664C32.9832 15.6817 33.2174 15.7129 33.4376 15.6532" fill="white"/>
<path d="M9.60972 18.3128C10.1772 17.858 10.1762 17.0305 9.60972 16.9719C9.08254 16.9169 8.31781 17.6148 8.56606 18.2775C8.73569 18.6558 9.25287 18.6 9.61041 18.3128" fill="white"/>
<path d="M12.9383 20.3359C13.0813 20.2555 13.2025 20.1399 13.2911 19.9997C13.3796 19.8594 13.4327 19.6988 13.4455 19.5324C13.4478 19.3869 13.4059 19.2442 13.3256 19.1242C13.2453 19.0041 13.1306 18.9124 12.9973 18.8619C12.418 18.6749 11.543 19.2539 11.7861 20.0384C11.9584 20.5024 12.5329 20.5677 12.9373 20.3362" fill="white"/>
<path d="M30.6669 19.0041C30.8197 18.9128 30.9446 18.7797 31.0278 18.6199C31.1109 18.4601 31.149 18.2797 31.1378 18.099C31.1266 17.9183 31.0665 17.7444 30.9642 17.5966C30.8619 17.4488 30.7215 17.3331 30.5587 17.2623C29.9915 17.0308 29.2623 17.4599 29.5012 18.3852C29.5304 18.509 29.5853 18.6249 29.662 18.7252C29.7388 18.8255 29.8356 18.9077 29.9461 18.9664C30.0566 19.025 30.1781 19.0588 30.3024 19.0653C30.4266 19.0718 30.5512 19.0509 30.6669 19.0041Z" fill="white"/>
<path d="M26.0264 1.00972C26.1702 1.04007 26.5092 1.1064 26.5343 1.06088C26.4826 0.934202 24.8531 0.504053 24.7549 0.591213C24.7549 0.602504 24.7549 0.612737 24.808 0.642025C25.202 0.803037 25.6101 0.926133 26.0264 1.00972Z" fill="white"/>
<path d="M11.6096 2.32844C11.9906 2.11671 12.1723 1.96639 12.0954 1.92863C11.9185 1.84182 10.339 2.63685 10.3883 2.78788C10.3932 2.80235 10.4159 2.80517 10.4345 2.80764C10.8483 2.71179 11.2448 2.55009 11.6096 2.32844Z" fill="white"/>
<path d="M32.9455 5.57165C33.2141 5.67752 33.3376 5.65493 33.2838 5.51096C33.1428 5.13021 32.0112 4.43717 31.876 4.64818C31.8443 4.69829 31.897 4.78334 31.9281 4.83344C32.1975 5.16728 32.5486 5.42201 32.9455 5.57165Z" fill="white"/>
<path d="M6.37249 8.76586C6.69487 8.35371 6.83656 7.86604 6.52833 7.87733C6.10941 7.89321 5.12677 9.05416 5.45018 9.34422L5.45502 9.3481C5.66878 9.4589 6.12528 9.08133 6.37249 8.76586Z" fill="white"/>
<path d="M8.08951 17.6226C8.59634 17.1265 8.52153 16.4281 8.08469 16.4024C7.57406 16.3713 6.88346 17.19 7.10584 17.7359C7.40719 18.2786 8.08192 17.6279 8.08848 17.6208" fill="white"/>
<path d="M34.5488 14.2425C35.066 14.1073 34.9926 13.2544 34.433 12.9015C33.9579 12.6009 33.4062 12.8786 33.5765 13.5074C33.5831 13.5311 33.5934 13.5621 33.6007 13.5851C33.6492 13.7965 33.7736 13.9815 33.9493 14.1034C34.1249 14.2254 34.3389 14.2752 34.5488 14.2432" fill="white"/>
<path d="M20.5828 0.0696714C20.77 0.0761111 20.9574 0.0651287 21.1427 0.0368561L21.1393 0.0262677C20.9514 0.00633162 20.7626 -0.00226914 20.5738 0.000508685L19.937 0.00262745C19.7162 0.000379283 19.4956 0.0127542 19.2764 0.0396776C19.2869 0.0480235 19.2994 0.0532708 19.3126 0.0548508C19.5884 0.0841393 20.1552 0.079199 20.5828 0.0696714Z" fill="white"/>
<path d="M16.9151 0.372811C17.113 0.347832 17.3072 0.298667 17.4936 0.226369L17.4881 0.217194C16.8489 0.280513 16.2163 0.401068 15.5977 0.577475C15.6087 0.581832 15.6203 0.584105 15.6321 0.584181C16.0629 0.538039 16.4909 0.467355 16.914 0.372458" fill="white"/>
<path d="M14.687 21.6143C15.3421 21.307 15.3996 20.3923 14.7804 20.1322C14.1484 19.8658 13.2744 20.4851 13.5178 21.2261C13.5641 21.3353 13.6325 21.4332 13.7185 21.5133C13.8046 21.5933 13.9063 21.6537 14.0169 21.6904C14.1276 21.7271 14.2445 21.7393 14.3601 21.7262C14.4757 21.7131 14.5873 21.6749 14.6873 21.6143" fill="white"/>
<path d="M29.0952 20.814C29.2516 20.7267 29.3808 20.5962 29.468 20.4373C29.5553 20.2783 29.5971 20.0975 29.5886 19.9154C29.5801 19.7334 29.5217 19.5574 29.42 19.4077C29.3184 19.258 29.1776 19.1407 29.0138 19.069C28.8566 19.0145 28.6876 19.006 28.5259 19.0445C28.3642 19.083 28.2163 19.167 28.0987 19.287C27.9812 19.4069 27.8987 19.5581 27.8607 19.7235C27.8226 19.8889 27.8304 20.0619 27.8833 20.2229C27.9127 20.3513 27.9699 20.4714 28.0508 20.5741C28.1316 20.6768 28.234 20.7596 28.3503 20.8164C28.4666 20.8732 28.5939 20.9025 28.7228 20.9021C28.8517 20.9018 28.9788 20.8718 29.0948 20.8143" fill="white"/>
<path d="M5.85936 12.7145C6.28759 12.1146 6.1352 11.6559 5.88075 11.688C5.41908 11.7437 4.70848 12.8024 4.97638 13.2173C5.1636 13.4386 5.5625 13.1316 5.85936 12.7145Z" fill="white"/>
<path d="M34.8345 8.63639C35.2035 8.7179 35.1262 8.40173 34.9904 8.18259C34.717 7.74186 33.9319 7.3237 33.8526 7.66246C33.8448 7.74617 33.863 7.83027 33.9047 7.90277C34.0048 8.08189 34.1387 8.23894 34.2984 8.36485C34.4582 8.49077 34.6408 8.58305 34.8356 8.63639" fill="white"/>
<path d="M35.2276 10.6573C35.6414 10.6619 35.5234 10.128 35.22 9.81426C34.7642 9.34529 34.2646 9.35553 34.2546 9.71687C34.2566 9.8013 34.2759 9.88437 34.3112 9.9607C34.3892 10.1498 34.5152 10.314 34.676 10.4365C34.8369 10.559 35.0269 10.6352 35.2262 10.6573" fill="white"/>
<path d="M6.26464 14.903C6.71286 14.3218 6.59737 13.7707 6.27672 13.7922C5.80747 13.8236 5.13892 14.8024 5.39062 15.2742C5.56025 15.5294 5.96882 15.2855 6.26464 14.903Z" fill="white"/>
<path d="M23.6662 22.879C24.3585 22.5727 24.5033 21.4675 23.7124 21.1453C23.5727 21.0765 23.4185 21.0446 23.2638 21.0524C23.109 21.0603 22.9586 21.1076 22.8263 21.1901C22.694 21.2727 22.584 21.3878 22.5063 21.525C22.4286 21.6622 22.3857 21.8171 22.3814 21.9756C22.3772 22.1342 22.4118 22.2913 22.4821 22.4326C22.5524 22.5739 22.6561 22.695 22.7838 22.7848C22.9115 22.8746 23.0592 22.9303 23.2133 22.9467C23.3674 22.9632 23.5231 22.9399 23.6662 22.879Z" fill="white"/>
<path d="M20.016 22.9623C20.181 22.8866 20.3223 22.7657 20.4242 22.6129C20.5262 22.4602 20.5848 22.2815 20.5935 22.0967C20.5709 21.9254 20.5226 21.7588 20.4501 21.6027C20.3546 21.4588 20.2155 21.3512 20.0543 21.2964C19.9184 21.2262 19.7673 21.1924 19.6152 21.198C19.4631 21.2037 19.3149 21.2487 19.1843 21.3288C19.0537 21.4089 18.9451 21.5215 18.8685 21.6562C18.7919 21.7908 18.7499 21.9431 18.7463 22.0988C18.7428 22.2546 18.7778 22.4087 18.8481 22.5469C18.9184 22.6851 19.0217 22.8028 19.1485 22.8891C19.2752 22.9754 19.4212 23.0275 19.5729 23.0404C19.7246 23.0534 19.8771 23.0269 20.016 22.9633" fill="white"/>
<path d="M13.2261 1.36439C13.412 1.29631 13.5915 1.21128 13.7626 1.11032C13.1542 1.26742 12.5655 1.49583 12.0083 1.79101C12.0187 1.79185 12.0292 1.79185 12.0397 1.79101C12.4423 1.67181 12.8383 1.53046 13.2261 1.36757" fill="white"/>
<path d="M34.3973 6.98384C34.6893 7.10488 34.7272 6.99443 34.67 6.86387C34.49 6.44818 33.4994 5.81195 33.4381 6.07202C33.4366 6.1325 33.4541 6.19188 33.4881 6.2414C33.7196 6.56849 34.034 6.8247 34.3973 6.98243" fill="white"/>
<path d="M24.1958 0.414097C24.321 0.433858 24.622 0.481143 24.7037 0.482202C24.6778 0.466322 24.6751 0.464912 24.4913 0.426449L23.2428 0.207314C23.147 0.190008 23.0501 0.179279 22.9529 0.175201C22.9634 0.182597 22.975 0.18809 22.9874 0.191435C23.2173 0.250718 23.8552 0.358696 24.1969 0.413744" fill="white"/>
<path d="M5.38502 10.827C5.71567 10.3249 5.74739 9.84672 5.44605 9.91412C5.00472 10.0122 4.27376 11.1086 4.55235 11.4198C4.74164 11.5324 5.1347 11.2035 5.38363 10.8252" fill="white"/>
<path d="M35.5903 13.0744C36.0275 12.9837 35.9323 12.2628 35.439 11.9216C35.0338 11.6428 34.5808 11.797 34.6946 12.3098C34.7039 12.3507 34.7215 12.4043 34.7352 12.4442C34.7879 12.6312 34.9008 12.7944 35.0556 12.9073C35.2104 13.0203 35.398 13.0763 35.5879 13.0663" fill="white"/>
<path d="M6.58591 17.2493C6.7752 17.0348 7.00758 16.5972 6.87139 16.2729C6.55695 15.7817 5.81944 16.5905 5.71186 17.111C5.67942 17.2349 5.69167 17.3667 5.74636 17.4822C5.96702 17.8252 6.43936 17.4229 6.58728 17.2546" fill="white"/>
<path d="M16.4136 23.0808C16.6103 23.0053 16.7713 22.8556 16.8636 22.6624C16.9559 22.4692 16.9724 22.2472 16.9098 22.042C16.5825 21.1478 15.4899 21.537 15.2631 22.1069C15.2055 22.2588 15.2009 22.4263 15.2503 22.5812C15.2866 22.6983 15.3473 22.8059 15.4282 22.8966C15.509 22.9874 15.6082 23.0591 15.7188 23.1068C15.8294 23.1546 15.9488 23.1772 16.0687 23.1731C16.1887 23.1691 16.3063 23.1384 16.4136 23.0833" fill="white"/>
<path d="M27.3178 22.723C28.0074 22.4213 28.1429 21.3196 27.3502 20.9939C27.1904 20.9337 27.0173 20.9196 26.8502 20.9533C26.683 20.987 26.5282 21.0672 26.4026 21.1851C26.2771 21.3029 26.1857 21.4539 26.1384 21.6214C26.0912 21.789 26.0899 21.9666 26.1348 22.1348C26.1699 22.2563 26.2293 22.369 26.3093 22.4657C26.3893 22.5624 26.4882 22.6409 26.5996 22.6963C26.711 22.7516 26.8324 22.7825 26.9561 22.7871C27.0799 22.7916 27.2032 22.7697 27.3181 22.7227" fill="white"/>
<path d="M30.99 3.2427C31.1103 3.29951 31.3858 3.42407 31.3572 3.35315C31.3134 3.24729 30.0422 2.46073 29.8994 2.55142C29.8994 2.57118 29.9032 2.57895 29.9504 2.62588C30.2741 2.8693 30.6225 3.07623 30.9896 3.24305" fill="white"/>
<path d="M7.1172 5.67083C7.41751 5.36242 7.5437 5.12847 7.41096 5.12811H7.39991C7.08581 5.14893 6.02733 6.15921 6.1549 6.31588C6.16609 6.32519 6.17956 6.33118 6.19385 6.33317C6.35245 6.34094 6.79931 5.99688 7.1172 5.67083Z" fill="white"/>
<path d="M33.6313 18.8718C34.1484 18.6022 34.1357 17.54 33.4703 17.3276C32.9648 17.167 32.5048 17.5778 32.6896 18.3294C32.8841 18.9028 33.3616 19.0129 33.6313 18.8718Z" fill="white"/>
<path d="M18.1797 0.11274C18.3393 0.0965082 18.4555 0.0852168 18.541 0.0774536L18.1797 0.11274Z" fill="white"/>
<path d="M32.5742 4.46154C32.7538 4.55681 32.9311 4.62668 32.9217 4.5674C32.8931 4.38602 31.6612 3.57935 31.5771 3.68733C31.5595 3.70992 31.5995 3.75791 31.6236 3.78931C31.9106 4.05435 32.2303 4.27976 32.5746 4.45977" fill="white"/>
<path d="M9.79267 21.0021C10.3674 20.6203 10.3229 19.8813 9.85127 19.7751C9.37133 19.6693 8.64453 20.2268 8.84105 20.8623C8.96414 21.1771 9.4272 21.2448 9.79233 21.0035" fill="white"/>
<path d="M8.39847 4.20571C8.64396 4.00316 8.86566 3.77732 8.7936 3.75756C8.60845 3.70639 7.35342 4.64997 7.3948 4.80947C7.39859 4.82464 7.41792 4.82464 7.43447 4.82464C7.78316 4.66593 8.10818 4.45756 8.39986 4.20571" fill="white"/>
<path d="M29.3175 2.1862C29.4544 2.24763 29.5962 2.29698 29.7413 2.3337V2.32417C29.2603 2.0326 28.7469 1.80099 28.2122 1.63431C28.2187 1.65301 28.2187 1.65301 28.2556 1.67877C28.5992 1.86891 28.9533 2.03834 29.3162 2.1862" fill="white"/>
<path d="M5.96255 7.38823C6.17839 7.11722 6.39904 6.72377 6.18665 6.73789C5.8129 6.76329 4.87302 7.89178 5.09368 8.05057C5.10043 8.05432 5.10748 8.05751 5.11473 8.0601C5.31401 8.07704 5.73843 7.66947 5.96289 7.38964" fill="white"/>
<path d="M36.11 10.1015C36.3858 10.1583 36.4141 9.90708 36.2537 9.65265C35.9638 9.19039 35.3639 8.89186 35.2956 9.17522C35.2856 9.26194 35.3017 9.34971 35.3418 9.42682C35.4173 9.58753 35.5245 9.73047 35.6567 9.8466C35.789 9.96273 35.9433 10.0495 36.11 10.1015Z" fill="white"/>
<path d="M34.8442 17.244C35.3269 17.0174 35.2662 16.0188 34.6228 15.8064C34.3394 15.7128 33.7588 15.9037 33.965 16.6815C34.1274 17.2073 34.5484 17.3826 34.8442 17.244Z" fill="white"/>
<path d="M8.2536 20.1703C8.70183 19.8055 8.80527 19.1054 8.30809 19.0231C7.83539 18.9455 7.1858 19.6188 7.37026 20.1523C7.54265 20.489 7.99329 20.3771 8.25257 20.1665" fill="white"/>
<path d="M4.89064 14.963C5.18613 14.4912 5.25749 13.8966 4.92305 13.9573C4.52103 14.0304 3.9304 15.0368 4.16658 15.4278C4.33622 15.6081 4.69619 15.2735 4.89064 14.963Z" fill="white"/>
<path d="M32.2727 20.67C32.4393 20.5691 32.5679 20.4137 32.6377 20.2289C32.7075 20.0441 32.7145 19.8406 32.6575 19.6513V19.6492V19.647C32.3775 18.7649 31.5387 18.9766 31.3128 19.4741C31.2283 19.6854 31.2175 19.9201 31.2822 20.1386C31.3032 20.2463 31.3475 20.3479 31.4118 20.4358C31.4761 20.5238 31.5588 20.5959 31.6538 20.6469C31.7489 20.698 31.8539 20.7266 31.9612 20.7307C32.0684 20.7348 32.1752 20.7143 32.2738 20.6707" fill="white"/>
<path d="M11.3595 22.0448C11.5218 21.9671 11.6528 21.8342 11.7302 21.6688C11.8076 21.5035 11.8267 21.3157 11.7843 21.1376C11.4874 20.4318 10.5692 20.8475 10.3755 21.338C10.3173 21.4871 10.3147 21.6528 10.3679 21.8038C10.414 21.8901 10.4773 21.9656 10.5537 22.0255C10.63 22.0853 10.7178 22.1281 10.8112 22.1511C10.9047 22.1742 11.0019 22.177 11.0965 22.1594C11.1911 22.1417 11.281 22.104 11.3605 22.0487" fill="white"/>
<path d="M21.7957 24.6702C21.9554 24.611 22.0939 24.5038 22.1932 24.3627C22.2924 24.2217 22.3478 24.0532 22.352 23.8794C22.3562 23.7056 22.3091 23.5346 22.2168 23.3887C22.1245 23.2427 21.9913 23.1287 21.8347 23.0614C21.3175 22.8659 20.4211 23.241 20.64 24.1201C20.6768 24.2366 20.7367 24.3441 20.8159 24.4359C20.8952 24.5276 20.9921 24.6017 21.1005 24.6534C21.209 24.7051 21.3267 24.7333 21.4464 24.7363C21.566 24.7393 21.6849 24.7171 21.7957 24.6709" fill="white"/>
<path d="M14.9742 0.712258L15.1031 0.676971L14.2301 0.92645L14.1987 0.936686C14.5149 0.838587 14.7949 0.760249 14.9738 0.711553" fill="white"/>
<path d="M4.46282 13.0211C4.83001 12.4029 4.74072 12.0201 4.48765 12.097C4.06563 12.2258 3.52226 13.3352 3.76361 13.579C3.94876 13.7202 4.28285 13.3229 4.46317 13.0197" fill="white"/>
<path d="M36.4857 12.1637C36.838 12.1573 36.796 11.6524 36.4167 11.2783C36.0643 10.9336 35.6806 11.0108 35.6957 11.321C35.7032 11.4024 35.7228 11.4822 35.754 11.5574C35.8056 11.7204 35.9023 11.8644 36.0325 11.972C36.1626 12.0796 36.3206 12.146 36.487 12.1633" fill="white"/>
<path d="M35.7414 8.42462C35.9535 8.51531 36.0276 8.46732 35.9552 8.28665C35.7894 7.87061 35.0129 7.35647 34.9119 7.52021C34.8833 7.56749 34.924 7.65042 34.9508 7.70476C35.1363 8.02166 35.4122 8.27277 35.7414 8.42427" fill="white"/>
<path d="M9.85719 2.96288C10.0228 2.875 10.1769 2.76604 10.3158 2.63859L10.3109 2.62906C9.78559 2.87785 9.28727 3.18253 8.82422 3.53806C8.83577 3.53984 8.84756 3.53887 8.85869 3.53524C9.20357 3.36661 9.53756 3.17555 9.85858 2.96323" fill="white"/>
<path d="M27.6047 1.35236C28.0185 1.49986 28.0416 1.50656 28.0654 1.51397L28.0533 1.50762L26.5535 0.966315C26.5362 0.960173 26.5186 0.955106 26.5007 0.951141C26.5132 0.959143 26.5267 0.965429 26.5407 0.969841C26.6587 1.01607 26.6587 1.01607 27.6047 1.35236Z" fill="white"/>
<path d="M5.21601 17.0803C5.68216 16.4451 5.5346 15.9945 5.26256 16.0322C4.84572 16.0908 4.33163 17.0245 4.50885 17.4017C4.58505 17.5199 4.83123 17.6057 5.21601 17.0803Z" fill="white"/>
<path d="M34.0113 5.76187C34.1678 5.85468 34.3309 5.92172 34.3216 5.84974C34.2909 5.64084 33.23 4.84476 33.1269 4.95273C33.1059 4.97461 33.1307 5.00955 33.1983 5.10412C33.4401 5.35914 33.7138 5.58031 34.0123 5.76187" fill="white"/>
<path d="M25.4535 24.6257C25.6119 24.5498 25.7483 24.433 25.8492 24.2868C25.9501 24.1406 26.0121 23.9701 26.029 23.7919C26.0329 23.6289 25.9918 23.4681 25.9105 23.328C25.8291 23.1879 25.7108 23.0741 25.5691 22.9997C25.4155 22.9315 25.2464 22.9086 25.0808 22.9337C24.9152 22.9588 24.7598 23.0309 24.6321 23.1417C24.5045 23.2525 24.4097 23.3977 24.3586 23.5609C24.3074 23.724 24.3019 23.8985 24.3426 24.0647V24.0668C24.3796 24.1779 24.4377 24.2805 24.5135 24.3685C24.5894 24.4566 24.6815 24.5284 24.7846 24.5799C24.8877 24.6314 24.9998 24.6614 25.1143 24.6684C25.2288 24.6753 25.3435 24.659 25.4518 24.6204" fill="white"/>
<path d="M4.91644 9.30753C5.03938 9.13276 5.13133 8.93724 5.18812 8.72988C5.2226 8.54921 5.08883 8.56332 5.06125 8.56826C4.70784 8.62896 3.96034 9.75992 4.15273 9.94447C4.15932 9.94963 4.16623 9.95434 4.17342 9.95858C4.33374 9.99387 4.72508 9.59018 4.91505 9.30824" fill="white"/>
<path d="M18.1257 24.6737C18.2661 24.617 18.3902 24.5247 18.4862 24.4054C18.5822 24.2862 18.647 24.1439 18.6746 23.9919C18.6887 23.8275 18.6533 23.6625 18.5732 23.5192C18.493 23.3759 18.372 23.2611 18.2263 23.1902C18.0834 23.1229 17.925 23.0976 17.7688 23.1171C17.6126 23.1367 17.4648 23.2003 17.3419 23.301C17.2191 23.4016 17.126 23.5353 17.0732 23.687C17.0203 23.8387 17.0098 24.0024 17.0427 24.1599C17.126 24.3704 17.2844 24.5406 17.4857 24.636C17.687 24.7315 17.9163 24.7451 18.127 24.674" fill="white"/>
<path d="M35.9286 15.7845C35.99 15.7545 36.2892 15.5777 36.1299 15.0237V15.0216C36.0196 14.5431 35.3949 14.2512 35.1483 14.6803C35.1068 14.7706 35.0833 14.8684 35.0793 14.9681C35.0752 15.0678 35.0906 15.1673 35.1245 15.2608C35.2449 15.6264 35.6224 15.9355 35.93 15.7866" fill="white"/>
<path d="M6.85413 19.556C6.97115 19.4494 7.05789 19.3125 7.10522 19.1596C7.15256 19.0068 7.15871 18.8437 7.12305 18.6876C7.00513 18.3107 6.39348 18.5637 6.11662 19.1033C6.06055 19.1885 6.02507 19.2862 6.01308 19.3882C6.00109 19.4902 6.01295 19.5937 6.04768 19.6901C6.14766 19.9018 6.54003 19.8849 6.85655 19.5606" fill="white"/>
<path d="M30.6716 22.5554C31.2633 22.3024 31.3781 21.1848 30.682 20.923C30.1851 20.736 29.518 21.1658 29.6938 22.0074C29.7185 22.1118 29.7642 22.2097 29.828 22.295C29.8918 22.3803 29.9723 22.451 30.0644 22.5026C30.1564 22.5542 30.258 22.5855 30.3626 22.5946C30.4671 22.6037 30.5724 22.5903 30.6716 22.5554Z" fill="white"/>
<path d="M12.9772 23.2777C13.5568 22.9972 13.6109 22.205 13.0641 21.9933C12.5562 21.796 11.7801 22.2325 11.9628 22.9319C12.007 23.0231 12.0684 23.1044 12.1434 23.1711C12.2184 23.2379 12.3056 23.2888 12.3999 23.3209C12.4942 23.3531 12.5938 23.3658 12.6929 23.3584C12.7921 23.351 12.8888 23.3236 12.9776 23.2777" fill="white"/>
<path d="M11.4248 2.0221C11.4937 1.98893 11.5627 1.95576 11.634 1.92365L10.9065 2.27652L10.6379 2.41767C10.8621 2.29875 11.1634 2.14807 11.4248 2.0228" fill="white"/>
<path d="M4.02006 11.3754C4.34278 10.8108 4.29072 10.5239 4.11488 10.5825C3.73837 10.7081 3.1388 11.8567 3.36946 12.0113C3.52978 12.0744 3.85215 11.669 4.02006 11.3761" fill="white"/>
<path d="M35.3728 7.16207C35.4617 7.22065 35.6648 7.3445 35.6348 7.23264C35.5679 6.98563 34.6439 6.2072 34.5939 6.35575C34.5839 6.3861 34.6229 6.45315 34.6401 6.48032C34.8471 6.74624 35.0946 6.97631 35.3731 7.16172" fill="white"/>
<path d="M36.8041 14.5417C37.1872 14.4517 37.1144 13.7654 36.6928 13.4753C36.4238 13.2918 35.9811 13.3522 36.1066 13.9136C36.115 13.9509 36.1253 13.9878 36.1373 14.024C36.3097 14.4757 36.6376 14.5816 36.8038 14.5421" fill="white"/>
<path d="M5.51464 19.2257C5.92528 18.7116 5.80286 18.2416 5.50359 18.2804C5.17156 18.3241 4.63817 19.0433 4.81057 19.4692C4.90607 19.6506 5.22673 19.5853 5.51428 19.2261" fill="white"/>
<path d="M14.6539 24.6652C14.7825 24.6237 14.896 24.5435 14.9796 24.4352C15.0632 24.3269 15.1132 24.1954 15.1229 24.0577C15.1327 23.92 15.1018 23.7825 15.0344 23.6629C14.9669 23.5434 14.866 23.4473 14.7445 23.3871C14.2653 23.1574 13.4847 23.5431 13.6412 24.239C13.6786 24.3365 13.7349 24.4253 13.8067 24.4999C13.8785 24.5746 13.9643 24.6336 14.059 24.6735C14.1537 24.7133 14.2553 24.7331 14.3576 24.7317C14.46 24.7303 14.561 24.7077 14.6546 24.6652" fill="white"/>
<path d="M29.0402 24.4599C29.7298 24.1137 29.6112 23.0696 29.0126 22.8748C28.8703 22.8396 28.7215 22.8429 28.5808 22.8844C28.4401 22.9258 28.3123 23.004 28.2101 23.1112C28.1078 23.2184 28.0345 23.351 27.9973 23.4959C27.9602 23.6409 27.9605 23.7932 27.9983 23.938C28.0217 24.0498 28.0696 24.1546 28.1384 24.2447C28.2072 24.3348 28.295 24.4077 28.3953 24.458C28.4956 24.5083 28.6058 24.5347 28.7175 24.5352C28.8292 24.5356 28.9395 24.5101 29.0402 24.4606" fill="white"/>
<path d="M36.9056 9.83082C37.0411 9.89116 37.1504 9.8661 37.0856 9.69849C36.9205 9.27504 36.2926 8.81313 36.2271 8.99909C36.2068 9.05555 36.2481 9.1473 36.275 9.20729C36.4229 9.4725 36.6418 9.68887 36.906 9.83082" fill="white"/>
<path d="M37.2649 11.5161C37.5063 11.5514 37.52 11.273 37.2952 10.9625C37.0387 10.6096 36.6419 10.4505 36.5984 10.6844C36.5928 10.7754 36.6106 10.8663 36.6502 10.948C36.7067 11.0824 36.7909 11.2026 36.897 11.3007C37.0031 11.3987 37.1286 11.4722 37.2649 11.5161Z" fill="white"/>
<path d="M4.02702 17.142C4.32526 16.6092 4.28284 16.1688 4.03459 16.2415C3.71774 16.3339 3.24676 17.2648 3.42916 17.5969C3.54294 17.7557 3.83532 17.4847 4.02702 17.142Z" fill="white"/>
<path d="M3.65484 15.2668C3.92102 14.7326 3.88307 14.3388 3.6662 14.403C3.35279 14.4965 2.85596 15.5322 3.06283 15.8254C3.17937 15.9528 3.47141 15.6356 3.65484 15.2668Z" fill="white"/>
<path d="M19.8922 26.3477C20.0328 26.3018 20.1569 26.2141 20.2487 26.0958C20.3405 25.9775 20.3958 25.834 20.4077 25.6834C20.4196 25.5329 20.3875 25.3821 20.3155 25.2502C20.2435 25.1184 20.1348 25.0114 20.0032 24.9429C19.8713 24.8681 19.7211 24.8334 19.5705 24.8431C19.42 24.8527 19.2752 24.9063 19.1534 24.9974C19.0316 25.0885 18.9378 25.2134 18.8831 25.3573C18.8284 25.5013 18.8151 25.6582 18.8448 25.8096C18.8773 25.9165 18.9305 26.0156 19.0013 26.101C19.0721 26.1864 19.159 26.2563 19.2567 26.3065C19.3545 26.3568 19.4611 26.3864 19.5703 26.3935C19.6795 26.4006 19.789 26.3848 19.8922 26.3477Z" fill="white"/>
<path d="M23.5212 26.4268C23.6692 26.3706 23.7977 26.2708 23.8904 26.1399C23.983 26.009 24.0357 25.853 24.0418 25.6915C24.0478 25.53 24.007 25.3703 23.9244 25.2325C23.8418 25.0948 23.7211 24.9851 23.5777 24.9175C23.4389 24.8615 23.2879 24.8449 23.1406 24.8695C22.9934 24.8941 22.8554 24.959 22.7412 25.0573C22.6271 25.1557 22.541 25.2837 22.4922 25.428C22.4433 25.5723 22.4335 25.7274 22.4637 25.877C22.4936 25.9869 22.5456 26.0893 22.6163 26.1776C22.687 26.2659 22.7748 26.3382 22.8743 26.3899C22.9737 26.4416 23.0826 26.4715 23.194 26.4778C23.3053 26.4841 23.4168 26.4666 23.5212 26.4264" fill="white"/>
<path d="M32.2685 3.84539C32.5481 4.02853 32.6043 4.06381 32.6243 4.07193C32.2309 3.76668 31.8189 3.48758 31.3906 3.23633C31.3934 3.24691 31.3934 3.24692 31.421 3.26915C31.582 3.39406 31.9002 3.60296 32.2688 3.84574" fill="white"/>
<path d="M5.61579 6.58193C5.73922 6.44078 6.0154 6.10944 5.91886 6.10626C5.75681 6.09991 4.76107 7.1797 4.86416 7.24921C4.86622 7.24921 4.87346 7.25556 4.89587 7.24921C5.16622 7.06332 5.40874 6.83819 5.61579 6.58087" fill="white"/>
<path d="M30.6646 2.78397C30.7881 2.85455 30.8677 2.90113 30.9019 2.92124L29.8472 2.33441C30.0309 2.43075 30.3709 2.61706 30.6646 2.78397Z" fill="white"/>
<path d="M4.57206 8.23336C4.73135 8.00364 4.9041 7.68923 4.78894 7.70899C4.47863 7.76192 3.77802 8.82159 3.8787 8.91793C3.88341 8.92209 3.8889 8.92523 3.89482 8.92717C3.90075 8.92911 3.90698 8.92981 3.91317 8.92922C4.17731 8.74565 4.4021 8.50887 4.57379 8.23336" fill="white"/>
<path d="M8.36455 22.6295C8.49049 22.5605 8.58909 22.4489 8.64349 22.3137C8.69789 22.1786 8.70471 22.0282 8.66279 21.8885C8.44661 21.3962 7.71808 21.7375 7.56707 22.1789C7.52555 22.3018 7.52652 22.4356 7.56982 22.5579C7.68843 22.8755 8.10734 22.794 8.36628 22.6338" fill="white"/>
<path d="M33.6902 5.00636C33.9812 5.22267 34.0033 5.22726 34.0164 5.23009C33.6827 4.89468 33.3125 4.59952 32.9131 4.35037C32.9131 4.36378 32.9152 4.37049 32.9596 4.41671C33.0841 4.53951 33.422 4.80487 33.6909 5.00636" fill="white"/>
<path d="M6.85272 5.11083C6.97563 5.00167 7.09084 4.88375 7.1975 4.75796L7.18923 4.75302C6.77043 5.04493 6.38568 5.38496 6.04248 5.76647L6.04972 5.77388C6.06048 5.7713 6.07081 5.76714 6.0804 5.76153C6.35057 5.56051 6.60893 5.34335 6.85411 5.11119" fill="white"/>
<path d="M35.026 20.4414C35.5253 20.1171 35.3318 19.1897 34.8636 19.0803C34.5002 18.9953 34.0868 19.3669 34.262 20.0539C34.3826 20.447 34.7402 20.6277 35.026 20.4421" fill="white"/>
<path d="M36.5478 8.53333C36.6375 8.59931 36.785 8.6967 36.7702 8.60637C36.7319 8.37488 35.9703 7.63209 35.9127 7.77006C35.9055 7.787 35.9089 7.82864 35.9644 7.92815C36.1264 8.16016 36.3235 8.36432 36.5482 8.53297" fill="white"/>
<path d="M3.23591 13.542C3.3359 13.3257 3.4845 12.9421 3.35003 12.8084C3.20522 12.6242 2.68081 13.4764 2.6315 13.9767C2.61668 14.1249 2.65115 14.1613 2.67666 14.1885C2.7701 14.2544 3.02974 13.9926 3.23833 13.5438" fill="white"/>
<path d="M6.97214 21.8998C7.38588 21.5822 7.37828 21.0271 7.05074 20.9742C6.66113 20.9107 6.10224 21.459 6.23947 21.8945C6.33842 22.1372 6.6601 22.1415 6.97247 21.9001" fill="white"/>
<path d="M9.81615 23.5978C10.3185 23.354 10.3333 22.7417 9.94786 22.5847C9.50585 22.4033 8.84212 22.8476 8.97763 23.367C9.08106 23.674 9.44964 23.776 9.81615 23.5978Z" fill="white"/>
<path d="M37.6359 13.5547C37.9307 13.5109 37.8314 12.9523 37.4821 12.6887C37.157 12.4417 36.9808 12.6464 37.0066 12.8892C37.0141 12.9431 37.027 12.996 37.0449 13.0473C37.1608 13.3648 37.4204 13.5861 37.6359 13.5547Z" fill="white"/>
<path d="M36.1379 18.7331C36.5375 18.5073 36.4861 17.6082 35.9434 17.4674C35.6128 17.3813 35.3032 17.7479 35.4263 18.2829C35.5421 18.695 35.8538 18.8933 36.1369 18.7335" fill="white"/>
<path d="M33.714 22.27C34.1894 22.0046 34.2087 21.0074 33.615 20.8465C33.1989 20.7332 32.7755 21.1771 32.8958 21.8028C33.0072 22.2594 33.3664 22.4651 33.714 22.2703" fill="white"/>
<path d="M4.31254 19.14C4.63388 18.6544 4.56389 18.2278 4.34392 18.274C4.03051 18.34 3.57297 19.1283 3.7264 19.4756C3.83742 19.6647 4.11119 19.4435 4.31254 19.14Z" fill="white"/>
<path d="M27.1717 26.3629C27.7965 26.1011 27.8809 25.1663 27.3045 24.8911C27.1653 24.8288 27.0122 24.8071 26.8617 24.8282C26.7113 24.8493 26.5695 24.9124 26.4519 25.0107C26.3342 25.109 26.2454 25.2385 26.1951 25.3852C26.1448 25.5318 26.1349 25.6897 26.1667 25.8417C26.1874 25.9508 26.2321 26.0536 26.2975 26.1422C26.3629 26.2309 26.4472 26.3032 26.544 26.3535C26.6408 26.4038 26.7475 26.4308 26.8561 26.4325C26.9646 26.4342 27.0721 26.4105 27.1703 26.3633" fill="white"/>
<path d="M16.2812 26.2567C16.41 26.2253 16.5266 26.1551 16.616 26.0552C16.7053 25.9553 16.7634 25.8303 16.7827 25.6963C16.8019 25.5623 16.7815 25.4254 16.724 25.3034C16.6665 25.1814 16.5746 25.0798 16.4602 25.0118C15.9837 24.7482 15.1931 25.0714 15.3358 25.7736C15.4005 25.9646 15.5356 26.1221 15.7123 26.2124C15.889 26.3027 16.0932 26.3186 16.2812 26.2567Z" fill="white"/>
<path d="M8.1841 3.94173C8.33788 3.82952 8.42306 3.76989 8.4634 3.7413L7.91897 4.1337L7.46558 4.48128C7.6428 4.34013 7.92552 4.1284 8.1841 3.94173Z" fill="white"/>
<path d="M35.0349 6.29787C35.2714 6.49654 35.3017 6.50183 35.3107 6.50325C35.0295 6.14783 34.6947 5.84051 34.3191 5.59283C34.3191 5.60977 34.3191 5.6126 34.3536 5.66023C34.5659 5.88805 34.7929 6.10096 35.0332 6.29752" fill="white"/>
<path d="M3.62279 10.14C3.85794 9.72674 3.8776 9.51255 3.76072 9.54537C3.4973 9.61806 2.85048 10.7285 3.00839 10.8362C3.01311 10.8386 3.01807 10.8405 3.02321 10.8418C3.12492 10.8503 3.40489 10.5242 3.6221 10.1403" fill="white"/>
<path d="M32.2463 24.1794C32.7614 23.9129 32.8404 22.9309 32.2215 22.7343C32.0982 22.713 31.9716 22.7243 31.8538 22.7672C31.736 22.8101 31.6308 22.8832 31.5484 22.9794C31.466 23.0757 31.409 23.1919 31.3829 23.3171C31.3567 23.4423 31.3624 23.5722 31.3992 23.6945C31.5278 24.2626 31.9284 24.3445 32.2463 24.1794Z" fill="white"/>
<path d="M5.66203 21.4199C6.02647 21.0709 6.05508 20.543 5.70822 20.5522C5.37447 20.5606 4.89143 21.1559 5.01865 21.5134C5.14933 21.8024 5.48515 21.5907 5.66306 21.4199" fill="white"/>
<path d="M37.1299 17.2168C37.4846 17.0298 37.3867 16.2535 36.9919 16.1084C36.7351 16.0149 36.3386 16.1586 36.4961 16.7683C36.634 17.2334 36.9216 17.3269 37.1312 17.2165" fill="white"/>
<path d="M11.3178 24.7994C11.7737 24.6148 11.9354 23.9952 11.472 23.7626C10.9769 23.5156 10.3211 23.9846 10.4693 24.4818C10.5445 24.6354 10.6742 24.7538 10.8318 24.8128C10.9895 24.8718 11.1636 24.867 11.3178 24.7994Z" fill="white"/>
<path d="M37.9594 11.2063C38.089 11.2642 38.1318 11.2014 38.0715 11.043L38.0566 11.0077C37.9266 10.6873 37.4664 10.3062 37.4171 10.4784C37.4133 10.5466 37.4285 10.6145 37.4609 10.6742C37.5676 10.9034 37.743 11.0918 37.9615 11.212" fill="white"/>
<path d="M2.94263 17.4899C3.16226 16.9807 3.09745 16.6628 2.93884 16.7242C2.72025 16.8099 2.29445 17.7507 2.47064 18.0298C2.57821 18.1586 2.81541 17.7849 2.94263 17.4913" fill="white"/>
<path d="M21.5679 28.1276C21.7041 28.0874 21.825 28.0054 21.9143 27.8927C22.0035 27.7801 22.057 27.6421 22.0673 27.4974C22.0777 27.3528 22.0445 27.2083 21.9722 27.0835C21.9 26.9587 21.7921 26.8596 21.6631 26.7994C21.5408 26.7412 21.4053 26.7185 21.2713 26.7338C21.1373 26.7491 21.01 26.8017 20.9032 26.886C20.7965 26.9703 20.7144 27.083 20.666 27.2118C20.6176 27.3406 20.6047 27.4805 20.6287 27.6163V27.6184C20.6551 27.7166 20.7008 27.8082 20.7632 27.8876C20.8255 27.967 20.9031 28.0324 20.9911 28.0799C21.0791 28.1273 21.1757 28.1558 21.275 28.1635C21.3742 28.1713 21.4739 28.1581 21.5679 28.1248" fill="white"/>
<path d="M36.2789 7.67233C36.3355 7.73553 36.4007 7.78998 36.4726 7.83395L36.4799 7.83007C36.2512 7.49263 35.9689 7.19672 35.6448 6.95459C35.6403 6.96659 35.6469 6.98176 35.6793 7.02834C35.8638 7.25811 36.0648 7.47349 36.2806 7.67269" fill="white"/>
<path d="M2.83752 12.1647C3.03611 11.7349 3.03679 11.502 2.91267 11.5532C2.68373 11.6485 2.11965 12.7385 2.32652 12.8588C2.47685 12.8666 2.75269 12.3465 2.83716 12.1633" fill="white"/>
<path d="M30.6112 26.1544C31.2004 25.8541 31.2111 24.9154 30.6271 24.7394C30.5025 24.719 30.3749 24.7304 30.2557 24.7726C30.1365 24.8149 30.0294 24.8866 29.9438 24.9814C29.8582 25.0763 29.7969 25.1913 29.7652 25.3163C29.7336 25.4413 29.7326 25.5723 29.7623 25.6978C29.7749 25.7929 29.8096 25.8837 29.8634 25.9623C29.9172 26.041 29.9887 26.1054 30.0717 26.1501C30.1548 26.1948 30.2471 26.2185 30.3409 26.2192C30.4348 26.22 30.5275 26.1977 30.6112 26.1544Z" fill="white"/>
<path d="M12.8925 26.1322C13.3559 25.978 13.5265 25.3696 13.0594 25.1057C12.6111 24.8523 11.9288 25.1914 12.0433 25.7429C12.1083 25.9075 12.2331 26.0398 12.3914 26.1122C12.5498 26.1845 12.7294 26.1913 12.8925 26.1311" fill="white"/>
<path d="M37.6104 9.90421C37.6604 9.94303 37.7752 10.0249 37.7673 9.94938C37.7615 9.92021 37.7512 9.8922 37.7366 9.86646C37.6201 9.60957 37.1081 9.06861 37.075 9.20941C37.0758 9.24818 37.0866 9.28603 37.1063 9.31915C37.2393 9.54446 37.4106 9.74356 37.6121 9.90704" fill="white"/>
<path d="M37.9324 15.896C38.2631 15.7421 38.1151 15.0491 37.7255 14.9178C37.5104 14.8473 37.2753 15.0301 37.3976 15.4824C37.4832 15.7563 37.7304 15.992 37.9335 15.8974" fill="white"/>
<path d="M4.49113 21.1407C4.77834 20.772 4.80832 20.3242 4.54387 20.3552C4.3523 20.4353 4.1907 20.5758 4.08256 20.7564C3.97441 20.9369 3.92538 21.1481 3.94257 21.3592C4.04601 21.5285 4.30391 21.381 4.49113 21.1407Z" fill="white"/>
<path d="M38.2822 12.8472C38.4749 12.8585 38.4804 12.5568 38.2294 12.2604C38.046 12.0437 37.7929 11.9541 37.7695 12.1623C37.7657 12.2346 37.7775 12.3068 37.8039 12.374C37.843 12.485 37.9064 12.5854 37.9893 12.6675C38.0722 12.7495 38.1724 12.811 38.2822 12.8472Z" fill="white"/>
<path d="M2.56818 15.8028C2.72954 15.3815 2.74437 15.0145 2.59784 15.0618C2.32994 15.1475 1.94931 16.2033 2.11515 16.4066C2.20238 16.4772 2.42304 16.1843 2.56957 15.8028" fill="white"/>
<path d="M25.2077 28.1912C25.7315 28.002 25.9959 27.1248 25.3267 26.8263C25.2019 26.7748 25.0661 26.758 24.9329 26.7774C24.7997 26.7969 24.6739 26.852 24.5682 26.9372C24.4625 27.0224 24.3806 27.1346 24.3308 27.2625C24.2811 27.3904 24.2652 27.5295 24.2847 27.6657C24.3027 27.7675 24.3425 27.8639 24.4013 27.948C24.4601 28.0321 24.5364 28.1018 24.6247 28.1521C24.713 28.2024 24.8111 28.2319 24.9119 28.2387C25.0128 28.2455 25.1138 28.2292 25.2077 28.1912Z" fill="white"/>
<path d="M3.23009 19.3312C3.44144 18.9152 3.45799 18.4889 3.25905 18.5574C2.99115 18.6509 2.63844 19.4939 2.76394 19.7437C2.8591 19.8849 3.07425 19.6379 3.23009 19.3309" fill="white"/>
<path d="M17.958 27.9089C18.0838 27.8824 18.1986 27.8169 18.2867 27.7212C18.3748 27.6255 18.432 27.5044 18.4505 27.3743C18.4689 27.2442 18.4477 27.1114 18.3897 26.9941C18.3318 26.8768 18.2399 26.7806 18.1266 26.7186C17.6356 26.4437 16.9298 26.8083 17.0647 27.4163C17.125 27.5989 17.2507 27.7514 17.4164 27.843C17.5822 27.9347 17.7757 27.9587 17.958 27.9103" fill="white"/>
<path d="M37.3189 8.99983C37.3663 9.0575 37.4209 9.10863 37.4813 9.15192C37.3047 8.83818 37.0751 8.55907 36.8031 8.32761C36.7986 8.34102 36.7976 8.3449 36.83 8.40065C36.9783 8.61256 37.1416 8.81305 37.3185 9.00053" fill="white"/>
<path d="M2.18091 14.3444C2.33021 13.9503 2.35055 13.6708 2.22746 13.7093C2.02059 13.7724 1.62065 14.8759 1.76201 14.993C1.87441 15.0336 2.05851 14.6691 2.18091 14.3448" fill="white"/>
<path d="M4.28439 7.74464C4.38239 7.6267 4.46791 7.49848 4.53953 7.36212C4.21685 7.67792 3.93242 8.03228 3.69238 8.41757L3.69792 8.42392C3.70465 8.42072 3.7111 8.41694 3.71721 8.41263C3.92052 8.20387 4.10969 7.98116 4.28336 7.74605" fill="white"/>
<path d="M38.6063 14.8462C38.8297 14.7912 38.7666 14.2488 38.4469 14.059C38.3052 13.975 38.0449 14.0163 38.1477 14.3991C38.1511 14.4115 38.156 14.4284 38.1598 14.4408C38.2766 14.7905 38.4904 14.8748 38.6063 14.8462Z" fill="white"/>
<path d="M3.45606 21.1217C3.72086 20.688 3.65259 20.3807 3.5064 20.4064C3.28608 20.4453 2.89442 21.1634 3.00303 21.4273C3.09129 21.584 3.29402 21.3867 3.45606 21.1214" fill="white"/>
<path d="M36.2566 21.8976C36.6586 21.6153 36.5886 20.7755 36.1583 20.7155C35.9556 20.6873 35.5336 20.9498 35.668 21.5624C35.7735 21.9566 36.05 22.0416 36.2566 21.8962" fill="white"/>
<path d="M28.7557 28.0821C29.3126 27.8647 29.4084 27.0129 28.903 26.7797C28.7822 26.7372 28.6528 26.7275 28.5273 26.7515C28.4018 26.7755 28.2845 26.8324 28.187 26.9167C28.0894 27.0009 28.0148 27.1097 27.9706 27.2322C27.9263 27.3548 27.9139 27.487 27.9345 27.616C27.9413 27.7111 27.9712 27.8029 28.0214 27.8833C28.0716 27.9636 28.1406 28.0299 28.222 28.0762C28.3035 28.1224 28.395 28.1472 28.4882 28.1482C28.5813 28.1493 28.6733 28.1265 28.7557 28.0821Z" fill="white"/>
<path d="M14.4404 27.6202C14.546 27.6058 14.6447 27.5587 14.7234 27.4852C14.802 27.4117 14.8568 27.3153 14.8803 27.209C14.9039 27.1027 14.8951 26.9915 14.8551 26.8905C14.8151 26.7894 14.7458 26.7034 14.6566 26.6438C14.2773 26.383 13.5298 26.5976 13.6353 27.1692C13.6568 27.2545 13.6951 27.3343 13.7479 27.4037C13.8007 27.4732 13.8668 27.5308 13.9423 27.5731C14.0177 27.6154 14.1008 27.6413 14.1864 27.6494C14.272 27.6575 14.3587 27.6476 14.4404 27.6202Z" fill="white"/>
<path d="M5.43816 6.30883C5.56608 6.1758 5.6733 6.06606 5.72468 6.01559L5.30266 6.44292L4.81616 6.96588L4.82721 6.95353C4.88376 6.89284 5.19819 6.55725 5.43816 6.30883Z" fill="white"/>
<path d="M34.2815 5.41425C34.5004 5.61291 34.6439 5.74877 34.6977 5.79958L34.2815 5.41425Z" fill="white"/>
<path d="M3.28018 9.4303C3.48395 9.0993 3.556 8.93416 3.49773 8.93981C3.36534 8.95286 2.70472 9.98784 2.78333 10.0588C2.78712 10.0623 2.7954 10.0588 2.80023 10.0588C2.98743 9.87262 3.14891 9.66118 3.28018 9.4303Z" fill="white"/>
<path d="M37.3068 20.0945C37.6092 19.8788 37.5664 19.0972 37.162 19.0309C36.9324 18.9938 36.6624 19.2825 36.7596 19.7603C36.8493 20.1167 37.0793 20.2575 37.3072 20.0948" fill="white"/>
<path d="M35.0518 23.7587C35.1536 23.659 35.23 23.5352 35.2742 23.3983C35.3184 23.2613 35.3292 23.1154 35.3055 22.9732C35.1811 22.4816 34.7298 22.4111 34.4726 22.8426C34.3756 23 34.3408 23.1893 34.3753 23.3719C34.5349 24.125 35.0473 23.7633 35.0521 23.7601" fill="white"/>
<path d="M36.0466 7.20723C36.0856 7.25099 36.1245 7.29509 36.1625 7.33885L35.5019 6.60664C35.4925 6.59641 35.4826 6.58653 35.4729 6.57629C35.4817 6.58917 35.4919 6.60101 35.5032 6.61158C35.6822 6.81201 35.8677 7.00644 36.0466 7.20617" fill="white"/>
<path d="M2.49337 11.2272C2.64163 10.9198 2.69643 10.7243 2.63333 10.7292C2.4868 10.7416 1.94755 11.7857 2.03892 11.8814C2.04099 11.8842 2.04617 11.8891 2.05927 11.887C2.24375 11.6973 2.39087 11.4734 2.49337 11.2272Z" fill="white"/>
<path d="M2.01507 18.0926C2.14471 17.6865 2.15022 17.3714 2.02713 17.4176C1.85474 17.4829 1.52824 18.4459 1.67477 18.6456C1.76648 18.708 1.93233 18.3524 2.01507 18.0926Z" fill="white"/>
<path d="M38.8182 12.4566C38.9268 12.501 38.9406 12.4015 38.8906 12.2801C38.7644 11.971 38.4624 11.7226 38.4214 11.8503C38.4164 11.9099 38.427 11.9697 38.4521 12.0236C38.5248 12.2049 38.6534 12.3569 38.8182 12.4566Z" fill="white"/>
<path d="M2.31269 19.7342C2.45922 19.3418 2.47371 18.9931 2.34028 19.0443C2.15926 19.1131 1.84723 19.9734 1.97205 20.1971C2.05617 20.2811 2.22132 19.977 2.31269 19.7342Z" fill="white"/>
<path d="M38.5097 11.2017C38.581 11.2621 38.62 11.2723 38.6152 11.2271C38.5949 11.0532 38.1639 10.5126 38.1025 10.5846C38.0856 10.6047 38.1173 10.6763 38.1304 10.7074C38.2283 10.893 38.3566 11.0604 38.5097 11.2017Z" fill="white"/>
<path d="M38.1713 18.526C38.4354 18.3294 38.3806 17.6046 38.0175 17.5693C37.8524 17.5531 37.5904 17.7253 37.7031 18.2137C37.7783 18.4981 38.0062 18.6502 38.1713 18.5263" fill="white"/>
<path d="M23.2274 29.8864C23.3447 29.8558 23.4506 29.7904 23.5316 29.6983C23.6126 29.6062 23.6651 29.4916 23.6825 29.369C23.6998 29.2464 23.6813 29.1212 23.6292 29.0094C23.5772 28.8975 23.4938 28.804 23.3898 28.7406C23.2833 28.6818 23.1633 28.6533 23.0424 28.6581C22.9214 28.663 22.804 28.7009 22.7022 28.7679C22.6005 28.835 22.5181 28.9287 22.4638 29.0394C22.4095 29.1501 22.3852 29.2737 22.3934 29.3973C22.4075 29.4907 22.4419 29.5797 22.4942 29.6576C22.5465 29.7355 22.6152 29.8004 22.6953 29.8474C22.7755 29.8944 22.8649 29.9224 22.957 29.9292C23.0491 29.936 23.1415 29.9215 23.2274 29.8867" fill="white"/>
<path d="M33.63 25.7662C34.0389 25.5213 34.1168 24.6928 33.6335 24.5538C33.3231 24.4648 32.8839 24.8385 32.9608 25.3932C33.048 25.8488 33.3639 25.9254 33.63 25.7659" fill="white"/>
<path d="M19.5716 29.6263C19.6869 29.6058 19.7932 29.5491 19.8757 29.4642C19.9583 29.3793 20.013 29.2702 20.0325 29.152C20.0519 29.0339 20.035 28.9125 19.9841 28.8046C19.9332 28.6967 19.8509 28.6076 19.7485 28.5496C19.3209 28.2945 18.6889 28.5825 18.7596 29.1298C18.7767 29.2194 18.812 29.3044 18.8633 29.3792C18.9146 29.4539 18.9806 29.5168 19.0573 29.5636C19.1339 29.6105 19.2192 29.6404 19.3079 29.6512C19.3965 29.6621 19.4863 29.6537 19.5716 29.6266" fill="white"/>
<path d="M39.1437 14.0632C39.1782 14.0597 39.2816 14.0279 39.1968 13.7657C39.1099 13.4792 38.8431 13.3215 38.7758 13.4661C38.7554 13.5467 38.7625 13.632 38.7962 13.7079C38.8789 13.9453 39.0375 14.0773 39.1454 14.0671" fill="white"/>
<path d="M1.65413 16.5908C1.79204 16.1239 1.74204 15.9556 1.66343 15.9909C1.51517 16.0558 1.1935 17.0495 1.33796 17.1907C1.42416 17.2373 1.57414 16.8569 1.65413 16.5908Z" fill="white"/>
<path d="M38.238 10.3326C38.2674 10.3759 38.3022 10.415 38.3415 10.4491H38.346C38.2133 10.1834 38.0409 9.94066 37.835 9.72955C37.8312 9.73873 37.835 9.75214 37.8609 9.79836C37.9747 9.986 38.1014 10.1651 38.2401 10.3344" fill="white"/>
<path d="M37.0996 8.5097C37.1486 8.57322 37.1913 8.63003 37.2275 8.67908L36.9458 8.30292L36.7566 8.05838C36.7166 8.00756 36.6452 7.91935 36.6187 7.89041C36.6253 7.90391 36.6338 7.91638 36.6438 7.92746C36.7921 8.12472 36.9496 8.31562 37.1 8.509" fill="white"/>
<path d="M2.55019 21.3684C2.74568 20.9262 2.65983 20.723 2.5726 20.7589C2.41228 20.826 2.09817 21.53 2.20816 21.7625C2.27712 21.8723 2.44951 21.5981 2.55019 21.3684Z" fill="white"/>
<path d="M1.82679 13.2226C1.94747 12.905 1.97988 12.6884 1.90127 12.7219C1.72543 12.7985 1.34066 13.7925 1.45823 13.8648C1.46156 13.8663 1.46501 13.8675 1.46856 13.8684C1.572 13.8356 1.76059 13.3909 1.82507 13.2226" fill="white"/>
<path d="M38.8805 17.1438C39.1012 16.9934 39.0326 16.3953 38.7213 16.3261C38.5851 16.2958 38.3906 16.444 38.4903 16.847C38.5665 17.1173 38.7592 17.2267 38.8805 17.1438Z" fill="white"/>
<path d="M16.0087 29.2258C16.1108 29.2107 16.2058 29.1633 16.2802 29.0902C16.3547 29.0171 16.405 28.922 16.424 28.8182C16.443 28.7144 16.4298 28.6071 16.3862 28.5114C16.3427 28.4157 16.2709 28.3363 16.1811 28.2844C15.806 28.0529 15.1719 28.2417 15.255 28.7865C15.3033 28.9433 15.4077 29.0756 15.5472 29.157C15.6868 29.2385 15.8512 29.263 16.0076 29.2258" fill="white"/>
<path d="M26.7996 29.9541C26.9134 29.9063 27.0144 29.8312 27.0939 29.7352C27.1735 29.6392 27.2293 29.525 27.2568 29.4022C27.2804 29.2826 27.2662 29.1583 27.2161 29.0476C27.1661 28.9368 27.0829 28.8452 26.9785 28.7861C26.8672 28.7376 26.7454 28.7203 26.6254 28.7359C26.5054 28.7515 26.3917 28.7995 26.2958 28.8749C26.1998 28.9503 26.1252 29.0504 26.0796 29.165C26.0339 29.2796 26.0188 29.4046 26.0359 29.5271C26.0497 29.6118 26.0823 29.6921 26.1309 29.762C26.1795 29.8319 26.2431 29.8896 26.3167 29.9307C26.3903 29.9719 26.4721 29.9953 26.5558 29.9994C26.6396 30.0034 26.7232 29.9879 26.8003 29.9541" fill="white"/>
<path d="M32.0553 27.7455C32.4825 27.4925 32.5814 26.6699 32.0867 26.563C31.9823 26.5554 31.8776 26.5726 31.7809 26.6134C31.6841 26.6541 31.5979 26.7172 31.529 26.7978C31.4601 26.8784 31.4104 26.9743 31.3838 27.0778C31.3572 27.1814 31.3544 27.2899 31.3757 27.3947C31.3825 27.4724 31.4085 27.547 31.4513 27.6114C31.4941 27.6759 31.5523 27.7282 31.6203 27.7633C31.6883 27.7984 31.7639 27.8152 31.84 27.8121C31.9161 27.809 31.9902 27.786 32.0553 27.7455Z" fill="white"/>
<path d="M37.9887 9.79343L38.0397 9.87283L37.6808 9.32446C37.6342 9.25706 37.6222 9.24118 37.6177 9.23483C37.6233 9.24646 37.6298 9.25756 37.6373 9.268C37.7521 9.44444 37.8738 9.61664 37.9887 9.79343Z" fill="white"/>
<path d="M1.29024 15.4228C1.41367 14.9887 1.37438 14.8748 1.33645 14.8878C1.18992 14.9379 0.897881 15.968 1.01683 16.0128C1.08372 16.005 1.21059 15.7001 1.28921 15.4228" fill="white"/>
<path d="M39.424 15.9846C39.604 15.8742 39.485 15.3731 39.2692 15.3307C39.1657 15.3106 39.0337 15.3978 39.1199 15.7189C39.1933 15.9401 39.3388 16.0365 39.4236 15.9843" fill="white"/>
<path d="M30.2796 29.6838C30.7336 29.4721 30.8154 28.7339 30.3999 28.6019C30.2994 28.5828 30.1959 28.588 30.0977 28.6171C29.9995 28.6463 29.9093 28.6985 29.8344 28.7697C29.7594 28.8409 29.7018 28.9291 29.6662 29.0272C29.6305 29.1252 29.6177 29.2305 29.6289 29.3345V29.3366V29.3387C29.6348 29.4133 29.6592 29.4852 29.6997 29.5475C29.7402 29.6099 29.7956 29.6606 29.8606 29.695C29.9256 29.7293 29.9981 29.7462 30.0712 29.7439C30.1443 29.7416 30.2157 29.7204 30.2785 29.6821" fill="white"/>
<path d="M39.2278 12.3782C39.2513 12.4019 39.2909 12.4361 39.293 12.4047C39.3002 12.2988 38.9972 11.8433 38.9444 11.8803C38.9275 11.8916 38.9544 11.9569 38.9651 11.9862C39.0292 12.131 39.1176 12.2633 39.2264 12.3768" fill="white"/>
<path d="M1.55818 20.3715C1.64644 20.0303 1.65195 19.7402 1.57024 19.7854C1.3748 20.1 1.28971 20.4733 1.3289 20.844C1.39786 20.8948 1.51509 20.5409 1.55887 20.3722" fill="white"/>
<path d="M3.13562 9.10956C3.25698 8.92924 3.3018 8.86255 3.31731 8.83749C3.31249 8.84243 3.30629 8.85055 3.3018 8.8562L3.28697 8.87702L3.09218 9.15579L2.78911 9.60746C2.72774 9.70203 2.71739 9.72003 2.71118 9.73061C2.71635 9.72574 2.72099 9.7203 2.72499 9.71438C2.77291 9.64804 2.77291 9.64804 3.13631 9.10921" fill="white"/>
<path d="M38.9629 11.5475C38.9832 11.5815 39.0063 11.6137 39.0318 11.6439C39.0318 11.6372 39.0318 11.6361 39.0125 11.5931C38.9217 11.4003 38.8103 11.2184 38.6805 11.0507C38.6805 11.0592 38.6784 11.0613 38.7025 11.1128C38.782 11.263 38.8696 11.4085 38.9649 11.5486" fill="white"/>
<path d="M39.5255 13.5769C39.623 13.6122 39.581 13.4495 39.5199 13.3246C39.4182 13.1164 39.2724 13.0307 39.2521 13.1034C39.2497 13.1558 39.2595 13.208 39.2807 13.2558C39.3188 13.3911 39.4065 13.5062 39.5255 13.5769Z" fill="white"/>
<path d="M1.79815 21.8708C1.91124 21.5109 1.89986 21.2999 1.81883 21.3359C1.62749 21.606 1.53977 21.9387 1.57232 22.2706C1.64576 22.3507 1.79229 21.8906 1.79815 21.8708Z" fill="white"/>
<path d="M1.24418 18.949C1.32382 18.5962 1.32278 18.3573 1.2421 18.4049C1.1228 18.4755 0.919731 19.333 1.03248 19.4635C1.11798 19.5041 1.23934 18.9695 1.24382 18.9476" fill="white"/>
<path d="M37.3584 23.1765C37.6418 22.9192 37.5918 22.2862 37.2853 22.2491C37.0936 22.2262 36.8505 22.5223 36.9202 22.9637C36.9757 23.2502 37.1722 23.3455 37.3584 23.1754" fill="white"/>
<path d="M2.25811 10.695C2.40464 10.4152 2.40085 10.3877 2.39912 10.3774C2.18384 10.6627 2.00904 10.9776 1.87988 11.3129C1.8861 11.3119 1.89195 11.3093 1.89678 11.3051C2.03186 11.111 2.15263 10.9068 2.25811 10.6943" fill="white"/>
<path d="M36.2092 25.1339C36.4651 24.9222 36.5661 24.2323 36.2047 24.1727C35.9555 24.1314 35.6875 24.4751 35.7413 24.8957C35.8103 25.203 36.0434 25.2669 36.2085 25.1318" fill="white"/>
<path d="M38.297 21.3638C38.5239 21.1701 38.5187 20.5395 38.228 20.5102C38.1046 20.4978 37.8422 20.7 37.9177 21.1309C37.9867 21.4552 38.1818 21.4622 38.297 21.3638Z" fill="white"/>
<path d="M1.51101 12.5825C1.66513 12.2 1.64375 12.1704 1.63685 12.1591C1.57755 12.1528 1.4062 12.5455 1.40448 12.5494C1.30913 12.7247 1.24679 12.9168 1.2207 13.1157C1.22312 13.1177 1.22608 13.1187 1.22914 13.1187C1.2322 13.1187 1.23518 13.1177 1.2376 13.1157C1.34946 12.9493 1.44125 12.7697 1.51101 12.5808" fill="white"/>
<path d="M39.0748 19.6471C39.1298 19.5812 39.167 19.5016 39.1825 19.4164C39.198 19.3311 39.1913 19.2432 39.163 19.1615C39.062 18.7733 38.8452 18.93 38.78 19.0556C38.7263 19.1889 38.7175 19.3367 38.7552 19.4756C38.8534 19.8478 39.0517 19.6693 39.0741 19.6474" fill="white"/>
<path d="M34.8928 27.154C35.2272 26.9137 35.2348 26.2521 34.9038 26.2098C34.6297 26.1745 34.3615 26.4811 34.4132 26.9423C34.4115 27 34.4267 27.0568 34.457 27.1055C34.4872 27.1541 34.5311 27.1923 34.5828 27.2152C34.6346 27.238 34.6918 27.2444 34.7472 27.2335C34.8025 27.2226 34.8534 27.1949 34.8931 27.154" fill="white"/>
<path d="M39.8353 15.1169C39.9412 15.0707 39.8574 14.6888 39.685 14.6229C39.594 14.5876 39.5629 14.703 39.616 14.8819C39.6622 15.0283 39.7715 15.1437 39.8364 15.1155" fill="white"/>
<path d="M0.915486 17.6491C0.97272 17.3629 0.975822 17.1621 0.922725 17.1815C0.847906 17.2091 0.601039 18.099 0.723438 18.1922C0.787568 18.1847 0.882041 17.8163 0.915486 17.6491Z" fill="white"/>
<path d="M0.981859 14.5117C1.01634 14.3935 1.09116 14.1186 1.03186 14.1193C0.863844 14.4039 0.766098 14.726 0.74707 15.0579C0.74838 15.0585 0.749795 15.0588 0.751216 15.0588C0.752637 15.0588 0.754031 15.0585 0.755341 15.0579C0.859793 14.8901 0.936555 14.7058 0.982553 14.5124" fill="white"/>
<path d="M39.6779 18.1766C39.8158 18.0397 39.7448 17.5894 39.5824 17.5743C39.5286 17.5693 39.3514 17.6586 39.4231 17.9832C39.5083 18.3227 39.6503 18.2041 39.6779 18.1766Z" fill="white"/>
<path d="M33.3316 29.1661C33.6933 28.9449 33.6974 28.3418 33.414 28.2779C33.3327 28.2762 33.252 28.2928 33.1777 28.3267C33.1034 28.3606 33.0374 28.4108 32.9843 28.4739C32.9312 28.5369 32.8924 28.6112 32.8707 28.6914C32.8489 28.7716 32.8448 28.8558 32.8585 28.9378C32.893 29.2201 33.0895 29.314 33.3319 29.1658" fill="white"/>
<path d="M39.5237 12.651C39.5358 12.6753 39.5472 12.6993 39.5582 12.7216L39.4775 12.5409C39.4409 12.4511 39.3975 12.3642 39.3479 12.2812C39.3479 12.2858 39.3479 12.2879 39.3675 12.3352C39.3851 12.374 39.3851 12.374 39.5224 12.6492" fill="white"/>
<path d="M39.7963 13.4432C39.8077 13.4563 39.8222 13.4686 39.8225 13.4517C39.8246 13.3811 39.6501 13.0575 39.6243 13.0871C39.6153 13.0977 39.6363 13.1542 39.6429 13.1729C39.6822 13.2691 39.7335 13.3596 39.7956 13.4421" fill="white"/>
<path d="M0.972484 21.2466C1.01041 20.9915 1.0087 20.8059 0.969054 20.7847C0.850078 21.0684 0.807448 21.3794 0.845609 21.6856C0.88526 21.7029 0.944556 21.434 0.972484 21.2463" fill="white"/>
<path d="M1.21968 22.5886C1.27519 22.2967 1.25862 22.2202 1.23759 22.1859C1.15863 22.1199 1.0552 22.7646 1.07658 22.9298C1.0773 22.9483 1.08278 22.9663 1.09245 22.982C1.12279 23.0057 1.16484 22.874 1.21932 22.5889" fill="white"/>
<path d="M0.590783 16.6409C0.617677 16.5103 0.652844 16.2817 0.615952 16.2552C0.566648 16.2722 0.496988 16.5485 0.481817 16.6155C0.387001 17.0548 0.417687 17.1095 0.429754 17.1162H0.435962C0.513511 16.9675 0.565868 16.8065 0.590783 16.6398" fill="white"/>
<path d="M40.1 16.9384C40.1869 16.8371 40.1307 16.4733 39.9966 16.4796C39.907 16.4846 39.8725 16.6137 39.9139 16.7859C39.9621 16.9458 40.05 16.9938 40.099 16.9362" fill="white"/>
<path d="M0.671111 19.9773C0.710761 19.6739 0.689742 19.5235 0.658022 19.5539C0.560094 19.8291 0.526772 20.1241 0.560777 20.4149C0.600427 20.4177 0.653182 20.116 0.671111 19.9773Z" fill="white"/>
<path d="M40.0769 14.5455C40.0883 14.5455 40.1214 14.5378 40.0769 14.3931C40.0221 14.2378 39.9414 14.1814 39.9238 14.2184C39.9101 14.246 39.9321 14.3186 39.9418 14.3486C39.9856 14.4718 40.0504 14.5441 40.0797 14.5462" fill="white"/>
<path d="M1.33704 12.2653C1.39151 12.1432 1.42219 12.0695 1.42875 12.0458C1.42472 12.0482 1.42149 12.0518 1.41944 12.0561C1.30869 12.2717 1.20902 12.4932 1.12085 12.7195C1.12438 12.7176 1.12727 12.7146 1.12912 12.711C1.17084 12.6362 1.29013 12.3737 1.3384 12.265" fill="white"/>
<path d="M38.2744 24.305C38.3282 24.2376 38.3675 24.1595 38.3899 24.0756C38.4122 23.9917 38.417 23.9039 38.4041 23.818C38.3669 23.6366 38.2096 23.6035 38.0803 23.8237C38.0211 23.935 38.0002 24.0635 38.021 24.1885C38.0572 24.3727 38.1841 24.4003 38.2751 24.3078" fill="white"/>
<path d="M39.1623 22.3603C39.3136 22.1796 39.2561 21.777 39.1209 21.7915C39.0441 21.8348 38.984 21.9036 38.9505 21.9865C38.917 22.0694 38.912 22.1615 38.9364 22.2477C38.9709 22.4351 39.0609 22.4803 39.1623 22.3603Z" fill="white"/>
<path d="M37.2306 26.303C37.4464 26.0962 37.3926 25.6819 37.2406 25.6678C37.1388 25.7011 37.0524 25.7711 36.9973 25.8647C36.9423 25.9584 36.9224 26.0694 36.9413 26.177C36.9782 26.4399 37.1199 26.4095 37.2306 26.3044" fill="white"/>
<path d="M0.738989 14.0074C0.769167 13.928 0.789664 13.845 0.800017 13.7604C0.691422 13.9713 0.613149 14.1971 0.567627 14.4309H0.572446L0.576255 14.4263C0.64122 14.2913 0.695865 14.1513 0.738989 14.0074Z" fill="white"/>
<path d="M0.366743 18.8538C0.376052 18.7698 0.39467 18.5486 0.366743 18.5323C0.277293 18.7638 0.244514 19.0142 0.271245 19.2617H0.275727C0.328232 19.1314 0.359222 18.9931 0.367437 18.8524" fill="white"/>
<path d="M39.8244 20.5952C39.8881 20.4847 39.9068 20.353 39.8765 20.2286C39.821 19.9893 39.6806 20.2085 39.6789 20.2113C39.6339 20.3043 39.6218 20.4104 39.6444 20.5116C39.6789 20.6626 39.7651 20.6778 39.823 20.5973" fill="white"/>
<path d="M35.9627 28.3394C36.1537 28.1739 36.1989 27.7621 36.0286 27.737C35.9724 27.7439 35.9182 27.7624 35.8692 27.7914C35.8202 27.8204 35.7775 27.8593 35.7437 27.9058C35.7099 27.9523 35.6857 28.0053 35.6725 28.0616C35.6594 28.118 35.6576 28.1764 35.6673 28.2335C35.6976 28.4227 35.8441 28.4407 35.9621 28.3394" fill="white"/>
<path d="M40.3556 15.9832C40.3601 15.9793 40.397 15.938 40.3556 15.7859C40.3084 15.63 40.2491 15.6801 40.2398 15.6981C40.2236 15.7523 40.2261 15.8107 40.247 15.8632C40.2787 15.9663 40.3298 16.0097 40.3556 15.985" fill="white"/>
<path d="M0.321789 15.9249C0.343957 15.8479 0.352841 15.7676 0.34801 15.6874C0.262259 15.8789 0.214107 16.0857 0.206299 16.2961H0.20975C0.260037 16.1775 0.297592 16.0536 0.321789 15.9267" fill="white"/>
<path d="M0.573858 22.2788C0.58696 22.0176 0.564548 22.0134 0.555929 22.0124C0.509628 22.205 0.500837 22.4052 0.530065 22.6013H0.533517C0.562346 22.4962 0.576045 22.3873 0.574195 22.2781" fill="white"/>
<path d="M40.1805 14.3084L40.185 14.3158C40.1642 14.2444 40.1368 14.1752 40.1033 14.109C40.1033 14.1112 40.0998 14.114 40.1191 14.1697C40.1355 14.2169 40.1554 14.2628 40.1784 14.307" fill="white"/>
<path d="M40.3033 19.0253C40.3435 18.9408 40.3511 18.8439 40.3247 18.7539C40.3164 18.6925 40.2902 18.6583 40.2557 18.6653C40.2557 18.6653 40.1343 18.7155 40.1795 18.9448C40.2057 19.0641 40.2564 19.0973 40.3026 19.0253" fill="white"/>
<path d="M0.28802 21.1591C0.294824 21.0827 0.289591 21.0058 0.272511 20.9311C0.230154 21.0972 0.223446 21.2706 0.252856 21.4396C0.278014 21.3484 0.289649 21.2538 0.287347 21.1591" fill="white"/>
<path d="M0.0705016 18.0087C0.0777421 17.9519 0.0918946 17.8185 0.0743105 17.8054C0.0539682 17.81 0.0343102 17.9236 0.0215531 18.0171C0.00879601 18.1107 -0.0129324 18.2772 0.0101682 18.2829H0.012925C0.043715 18.1938 0.0630675 18.1011 0.0705016 18.0069" fill="white"/>
<path d="M40.6036 17.7119C40.638 17.6413 40.6091 17.4567 40.5663 17.4687C40.5663 17.4687 40.4974 17.5019 40.5291 17.654C40.5525 17.744 40.5839 17.7411 40.5981 17.7172L40.6018 17.7105" fill="white"/>
<path d="M40.4588 15.3243C40.4691 15.3123 40.4357 15.1645 40.405 15.162C40.4016 15.162 40.3867 15.162 40.4078 15.2347C40.4288 15.3074 40.4512 15.3321 40.4588 15.3243Z" fill="white"/>
<path d="M0.603472 13.9414C0.613816 13.9139 0.623816 13.8864 0.634849 13.8585V13.8606L0.598632 13.9573C0.584841 13.9944 0.570719 14.0321 0.557617 14.0699C0.573133 14.0265 0.58898 13.9838 0.60484 13.9411" fill="white"/>
<path d="M17.3636 7.0075C17.3636 6.98562 17.3671 6.98103 17.3895 6.97221C17.2309 6.89635 17.143 6.854 17.0178 6.79578C17.0178 6.81024 17.0347 6.81871 17.0333 6.83424C17.0333 6.84377 17.0233 6.84941 17.012 6.85682C17.1295 6.90764 17.2464 6.95916 17.364 7.01103V7.0075" fill="white"/>
<path d="M22.7551 6.30104C22.8765 6.20435 22.9275 6.16413 22.9965 6.10943C22.9789 6.10943 22.962 6.11614 22.9444 6.11402C22.9388 6.11371 22.9333 6.1122 22.9283 6.10958C22.9233 6.10697 22.919 6.10331 22.9154 6.09885C22.8414 6.16189 22.7676 6.22518 22.6941 6.28869L22.7468 6.30739L22.7544 6.30104" fill="white"/>
<path d="M50.6433 13.2767H47.7054L47.233 14.8011H45.2864L48.1433 6.93201H50.2168L53.0734 14.8011H51.1267L50.6433 13.2767ZM48.1898 11.741H50.1596L49.18 8.42042L48.1898 11.741Z" fill="white"/>
<path d="M55.3793 13.0286C55.3719 13.152 55.4043 13.2744 55.4714 13.3772C55.5177 13.4245 55.5739 13.4603 55.6357 13.4818C55.6976 13.5034 55.7634 13.5103 55.8283 13.5018C55.9596 13.4997 56.0906 13.4879 56.2203 13.4665L56.2779 14.7668C56.106 14.8174 55.9307 14.8549 55.7534 14.879C55.5529 14.9068 55.3507 14.9205 55.1483 14.92C54.8844 14.9285 54.6217 14.8804 54.3771 14.7788C54.1843 14.6958 54.0142 14.5661 53.8813 14.4009C53.7577 14.2422 53.6675 14.0591 53.6161 13.8631C53.5626 13.661 53.5357 13.4525 53.5361 13.2431V6.46091H55.379L55.3793 13.0286Z" fill="white"/>
<path d="M56.9053 9.01146H58.6675V9.69533C58.8604 9.42579 59.1169 9.21071 59.4131 9.07019C59.7093 8.92968 60.0354 8.86831 60.3611 8.89184C60.6683 8.88999 60.9718 8.96075 61.2479 9.09862C61.5273 9.23924 61.7731 9.44089 61.9681 9.68933C62.182 9.96577 62.344 10.2804 62.4456 10.6174C62.5653 11.0111 62.6235 11.4218 62.618 11.8341C62.6277 12.2927 62.5474 12.7487 62.3819 13.175C62.2375 13.5371 62.0217 13.8649 61.7481 14.138C61.483 14.3977 61.167 14.5969 60.821 14.7223C60.4586 14.8539 60.0767 14.9198 59.6922 14.9171C59.5148 14.919 59.3376 14.9052 59.1626 14.8758C59.0227 14.8513 58.8845 14.8176 58.7488 14.7749V17.233H56.9056L56.9053 9.01146ZM59.6932 10.3467C59.508 10.3426 59.3239 10.3767 59.1519 10.4469C58.997 10.5151 58.8591 10.6181 58.7485 10.7483V13.4301C58.842 13.4635 58.9386 13.4871 59.0367 13.5007C59.1588 13.5169 59.2819 13.5246 59.405 13.5236C59.6028 13.542 59.802 13.5101 59.9849 13.4308C60.1679 13.3514 60.3288 13.2271 60.4535 13.0688C60.6849 12.7064 60.7978 12.2781 60.7758 11.8457C60.7886 11.4717 60.6988 11.1014 60.5166 10.7769C60.4304 10.6354 60.3083 10.5206 60.1633 10.4448C60.0182 10.369 59.8557 10.3351 59.6932 10.3467Z" fill="white"/>
<path d="M63.4407 14.8007V6.45953H65.2836V9.69678C65.4396 9.43311 65.6672 9.22161 65.9386 9.08808C66.2048 8.95868 66.496 8.89212 66.7906 8.8933C67.1251 8.88248 67.4561 8.96624 67.7471 9.13537C68.0067 9.29546 68.2259 9.51597 68.3866 9.77901C68.5583 10.0643 68.6792 10.3785 68.7435 10.7071C68.8178 11.0704 68.8546 11.4407 68.8531 11.8119V14.8007H67.0123V11.7756C67.0383 11.4086 66.9624 11.0416 66.7934 10.7169C66.7206 10.606 66.6206 10.5166 66.5035 10.4576C66.3864 10.3986 66.2562 10.3721 66.1259 10.3807C65.9504 10.3764 65.7771 10.4211 65.6246 10.5102C65.4899 10.5902 65.3739 10.6993 65.2846 10.8299V14.7993L63.4407 14.8007Z" fill="white"/>
<path d="M72.9604 14.2344C72.751 14.4375 72.507 14.5995 72.2404 14.7125C71.9262 14.8524 71.5867 14.9228 71.244 14.9193C71.0113 14.9233 70.7802 14.8792 70.5645 14.7898C70.3743 14.71 70.2033 14.589 70.0631 14.4352C69.9269 14.2825 69.8215 14.1038 69.7528 13.9094C69.6788 13.7033 69.6417 13.4853 69.6432 13.2657C69.6276 13.0388 69.6637 12.8113 69.7487 12.601C69.8336 12.3908 69.9651 12.2037 70.1328 12.0543C70.5371 11.7542 71.0212 11.5873 71.5205 11.5758C71.7433 11.5607 71.9794 11.5483 72.2294 11.5405C72.4794 11.5328 72.7 11.5247 72.8914 11.5169V11.3278C72.8914 10.6975 72.5497 10.3825 71.8664 10.3828C71.6044 10.3819 71.3433 10.4136 71.0889 10.4773C70.8509 10.5356 70.6207 10.6229 70.4031 10.7374L70.0693 9.42577C70.3683 9.25555 70.6877 9.12623 71.0196 9.04114C71.4092 8.93953 71.8101 8.88995 72.2122 8.89364C72.8867 8.85257 73.5508 9.07875 74.0668 9.52528C74.3027 9.7752 74.4843 10.0734 74.5994 10.4004C74.7146 10.7273 74.7608 11.0755 74.735 11.422V14.8011H72.9604V14.2344ZM71.9584 13.6786C72.128 13.6797 72.2968 13.6559 72.4597 13.608C72.6107 13.5635 72.7557 13.5 72.8914 13.4189V12.5568C72.7076 12.572 72.5421 12.5921 72.3963 12.6097C72.2505 12.6274 72.1087 12.6468 71.9701 12.6634C71.5934 12.7104 71.4053 12.8913 71.4057 13.2061C71.4033 13.2706 71.4149 13.3349 71.4398 13.3942C71.4646 13.4536 71.5021 13.5065 71.5495 13.5491C71.6655 13.6424 71.8112 13.6885 71.9584 13.6786Z" fill="white"/>
<path d="M75.6917 7.32158C75.6884 7.18228 75.7122 7.0437 75.7617 6.91388C75.8112 6.78407 75.8854 6.6656 75.98 6.56538C76.1817 6.36843 76.4497 6.25854 76.7285 6.25854C77.0073 6.25854 77.2753 6.36843 77.477 6.56538C77.6624 6.77153 77.7652 7.04144 77.7652 7.32158C77.7652 7.60172 77.6624 7.87163 77.477 8.07779C77.2755 8.27506 77.0074 8.38516 76.7285 8.38516C76.4496 8.38516 76.1815 8.27506 75.98 8.07779C75.8853 7.97765 75.811 7.85921 75.7615 7.72937C75.712 7.59954 75.6883 7.46091 75.6917 7.32158ZM75.8069 14.8025V9.01149H77.6498V14.8007L75.8069 14.8025Z" fill="white"/>
<path d="M78.8069 14.8007V9.01148H80.5808V9.76769C80.7344 9.47489 80.9744 9.23916 81.2666 9.09405C81.5459 8.96015 81.8508 8.89144 82.1592 8.89292C82.4935 8.88217 82.8242 8.96593 83.115 9.13499C83.3747 9.29505 83.5938 9.51557 83.7546 9.77863C83.9265 10.0638 84.0473 10.3781 84.1114 10.7067C84.1858 11.07 84.2225 11.4403 84.2211 11.8115V14.8004H82.3782V11.7773C82.4039 11.4104 82.328 11.0435 82.1592 10.7187C82.0862 10.6078 81.9862 10.5184 81.8689 10.4594C81.7517 10.4004 81.6214 10.3739 81.491 10.3824C81.3155 10.3781 81.1422 10.4229 80.9897 10.5119C80.8551 10.5919 80.7391 10.701 80.6498 10.8316V14.8011L78.8069 14.8007Z" fill="white"/>
<path d="M49.8596 25.4225H47.7402L45.1484 17.5535H47.1299L48.8004 23.5445L50.4706 17.5535H52.45L49.8596 25.4225Z" fill="white"/>
<path d="M54.8476 19.5151C55.1686 19.498 55.4896 19.5484 55.7908 19.6631C56.0921 19.7779 56.3672 19.9546 56.5991 20.1824C56.8222 20.4305 56.9943 20.7221 57.1051 21.0397C57.216 21.3573 57.2632 21.6944 57.2442 22.0311C57.2419 22.353 57.2073 22.6738 57.1408 22.9884H53.8691C53.8709 23.3104 53.9972 23.6186 54.2204 23.8455C54.5021 24.0841 54.8638 24.2005 55.2282 24.1698C55.5196 24.1686 55.8104 24.143 56.0978 24.0933C56.3696 24.0516 56.635 23.9741 56.8873 23.8628L57.1173 25.0795C56.8047 25.2366 56.4736 25.3519 56.1323 25.4225C55.759 25.5019 55.3788 25.5415 54.9976 25.5407C54.5542 25.549 54.1131 25.4747 53.6957 25.3216C53.3418 25.1906 53.0196 24.9833 52.7509 24.7136C52.495 24.4489 52.2986 24.1302 52.1752 23.7799C52.0406 23.3933 51.9744 22.9852 51.9797 22.5749C51.9733 22.1405 52.0414 21.7084 52.181 21.2982C52.3038 20.9391 52.5001 20.611 52.7568 20.3359C53.0113 20.0682 53.3199 19.8605 53.6608 19.7272C54.04 19.5811 54.4425 19.5092 54.8476 19.5151ZM54.7903 20.7195C54.6638 20.7117 54.5372 20.7339 54.4203 20.7841C54.3035 20.8344 54.1994 20.9115 54.1163 21.0095C53.9475 21.2382 53.8637 21.5209 53.8801 21.807H55.5158C55.5315 21.7412 55.5393 21.6736 55.5389 21.6059C55.5465 21.3783 55.4774 21.155 55.343 20.9735C55.2773 20.8893 55.1929 20.8222 55.0969 20.7778C55.0009 20.7335 54.8959 20.7131 54.7907 20.7184L54.7903 20.7195Z" fill="white"/>
<path d="M58.1411 25.4225V19.6329H59.9154V20.3891C60.0688 20.0964 60.3085 19.8607 60.6005 19.7155C60.8799 19.5821 61.1848 19.5136 61.4931 19.5151C61.8276 19.5042 62.1585 19.5878 62.4495 19.7568C62.7092 19.917 62.9281 20.1378 63.0884 20.4011C63.2604 20.6861 63.3815 21.0001 63.446 21.3285C63.5202 21.6918 63.5568 22.0621 63.5553 22.4333V25.4229H61.7121V22.3977C61.7382 22.0307 61.6623 21.6637 61.4931 21.3391C61.4203 21.228 61.3203 21.1384 61.203 21.0793C61.0857 21.0202 60.9554 20.9937 60.8249 21.0024C60.6495 20.9981 60.4764 21.0431 60.3243 21.1326C60.1895 21.2116 60.0734 21.32 59.9843 21.4502V25.42L58.1411 25.4225Z" fill="white"/>
<path d="M64.0076 19.633H64.8695V18.1205H66.7127V19.633H68.3374V21.0744H66.7127V23.3328C66.7022 23.5228 66.753 23.711 66.8572 23.8685C66.9237 23.9405 67.0058 23.9956 67.0969 24.0294C67.1879 24.0632 67.2855 24.0746 67.3816 24.0629C67.5221 24.0626 67.6624 24.0526 67.8016 24.0329C67.9399 24.0143 68.0767 23.9847 68.2105 23.9444L68.3374 25.2655C68.1204 25.3629 67.892 25.431 67.6578 25.4681C67.3915 25.5153 67.1217 25.5389 66.8514 25.5386C66.5377 25.5477 66.2257 25.4892 65.9356 25.3668C65.7 25.2637 65.491 25.106 65.325 24.9063C65.1637 24.7056 65.0462 24.4719 64.9802 24.221C64.9054 23.946 64.8685 23.6617 64.8706 23.3762V21.072H64.0086L64.0076 19.633Z" fill="white"/>
<path d="M74.4182 19.6333V25.4232H72.6439V24.667C72.4693 24.9604 72.2179 25.1978 71.9181 25.3523C71.6509 25.4778 71.3602 25.5423 71.0662 25.5414C70.7335 25.5528 70.4044 25.4687 70.1159 25.2986C69.86 25.1393 69.6461 24.918 69.4933 24.6543C69.3286 24.3677 69.2136 24.054 69.1533 23.7273C69.0829 23.3635 69.0483 22.9933 69.0499 22.6225V19.6333H70.8921V22.6584C70.8677 23.0227 70.9352 23.3872 71.0879 23.7171C71.1545 23.8286 71.25 23.9192 71.3638 23.9786C71.4776 24.038 71.6053 24.064 71.7326 24.0537C71.9083 24.0578 72.0818 24.0128 72.2343 23.9235C72.3686 23.8441 72.4843 23.7357 72.5736 23.6059V19.6333H74.4182Z" fill="white"/>
<path d="M79.1754 21.2636H78.9564C78.2268 21.2636 77.7124 21.4526 77.4131 21.8307V25.4229H75.5696V19.6326H77.3556V20.6016C77.4474 20.3099 77.6192 20.0515 77.8507 19.857C78.1035 19.6664 78.4127 19.5706 78.7264 19.5857C78.817 19.5841 78.9075 19.5899 78.9971 19.603C79.073 19.6152 79.148 19.6328 79.2215 19.6559L79.1754 21.2636Z" fill="white"/>
<path d="M82.3166 19.5151C82.6375 19.4979 82.9585 19.5483 83.2596 19.6631C83.5607 19.7779 83.8357 19.9546 84.0675 20.1824C84.2908 20.4304 84.4631 20.7219 84.574 21.0395C84.685 21.3571 84.7323 21.6943 84.7132 22.0311C84.711 22.353 84.6764 22.6738 84.6098 22.9884H81.3381C81.3398 23.3104 81.466 23.6185 81.6891 23.8455C81.9711 24.0841 82.333 24.2005 82.6976 24.1698C82.989 24.1686 83.2799 24.143 83.5672 24.0932C83.8388 24.0517 84.1039 23.9742 84.356 23.8628L84.5864 25.0799C84.2737 25.2369 83.9427 25.3522 83.6013 25.4229C83.228 25.5023 82.8476 25.5419 82.4663 25.5411C82.023 25.5493 81.582 25.4751 81.1647 25.3219C80.8108 25.191 80.4886 24.9836 80.22 24.7139C79.9641 24.4492 79.7676 24.1306 79.6442 23.7802C79.5096 23.3936 79.4433 22.9856 79.4484 22.5752C79.4423 22.1409 79.5104 21.7088 79.6497 21.2985C79.773 20.9395 79.9695 20.6115 80.2262 20.3362C80.4808 20.0684 80.7894 19.8606 81.1306 19.7275C81.5095 19.5813 81.9118 19.5093 82.3166 19.5151ZM82.2591 20.7194C82.1326 20.7118 82.006 20.7339 81.8892 20.7842C81.7724 20.8345 81.6685 20.9116 81.5854 21.0095C81.4166 21.2382 81.3328 21.5209 81.3492 21.807H82.9848C83.0006 21.7412 83.0083 21.6736 83.0079 21.6058C83.0156 21.3783 82.9464 21.155 82.8121 20.9735C82.7462 20.8892 82.6617 20.8222 82.5656 20.7778C82.4694 20.7335 82.3644 20.7131 82.2591 20.7184V20.7194Z" fill="white"/>
<path d="M89.6445 23.5318C89.6499 23.8297 89.5888 24.1249 89.4659 24.3949C89.3488 24.6441 89.1749 24.8607 88.9588 25.0266C88.7253 25.2031 88.4616 25.3333 88.1813 25.4105C87.8585 25.5004 87.5252 25.5442 87.1907 25.5407C86.8662 25.5391 86.5425 25.5093 86.2229 25.4518C85.9069 25.3991 85.5977 25.31 85.3013 25.1861L85.555 23.8745C85.8087 23.9815 86.0733 24.0588 86.3439 24.1049C86.5929 24.1527 86.8454 24.1785 87.0986 24.1822C87.2969 24.1864 87.4941 24.1521 87.6799 24.0812C87.7517 24.0609 87.815 24.0169 87.8599 23.956C87.9048 23.8952 87.9288 23.8208 87.9282 23.7446C87.929 23.6768 87.9081 23.6105 87.8685 23.5561C87.8289 23.5016 87.773 23.462 87.7093 23.4432C87.5633 23.3847 87.3449 23.3 87.0542 23.1892C86.8257 23.1072 86.6025 23.0105 86.386 22.8998C86.19 22.8016 86.0095 22.6741 85.8502 22.5215C85.7026 22.379 85.5833 22.2086 85.4988 22.0198C85.361 21.667 85.3347 21.2789 85.4235 20.9101C85.5123 20.5412 85.7118 20.2101 85.994 19.9632C86.4768 19.6446 87.0447 19.4879 87.6186 19.5151C87.9436 19.512 88.2681 19.5454 88.586 19.6146C88.8815 19.6831 89.1651 19.7968 89.4273 19.9519L89.1743 21.1923C88.9629 21.0961 88.7437 21.0189 88.5192 20.9618C88.2818 20.9016 88.038 20.8719 87.7934 20.8733C87.6202 20.8664 87.447 20.8883 87.2807 20.9382C87.2258 20.955 87.1781 20.9905 87.1456 21.0388C87.1131 21.0871 87.0977 21.1454 87.1021 21.2039C87.1021 21.2693 87.1229 21.3329 87.1613 21.3851C87.1998 21.4373 87.2538 21.4753 87.3152 21.4933C87.4574 21.5523 87.64 21.6251 87.8627 21.7117C88.0312 21.7747 88.2193 21.8516 88.4271 21.9421C88.6344 22.0329 88.8297 22.1501 89.0084 22.2908C89.189 22.4329 89.3431 22.607 89.4635 22.8049C89.5902 23.0246 89.653 23.2768 89.6445 23.5318Z" fill="white"/>
</svg>
