<svg width="16" height="16" viewBox="0 0 16 16" fill="none" xmlns="http://www.w3.org/2000/svg">
<path d="M14.5892 4.48769L10.2815 0.18C10.2243 0.122871 10.1565 0.0775705 10.0818 0.0466855C10.0071 0.0158005 9.92699 -6.33759e-05 9.84616 1.90276e-07H2.46154C2.13512 1.90276e-07 1.82207 0.12967 1.59125 0.360484C1.36044 0.591298 1.23077 0.904349 1.23077 1.23077V14.7692C1.23077 15.0957 1.36044 15.4087 1.59125 15.6395C1.82207 15.8703 2.13512 16 2.46154 16H13.5385C13.8649 16 14.1779 15.8703 14.4087 15.6395C14.6396 15.4087 14.7692 15.0957 14.7692 14.7692V4.92308C14.7693 4.84224 14.7534 4.76218 14.7225 4.68748C14.6917 4.61277 14.6464 4.54488 14.5892 4.48769ZM10.4615 2.10077L12.6685 4.30769H10.4615V2.10077ZM13.5385 14.7692H2.46154V1.23077H9.23077V4.92308C9.23077 5.08629 9.2956 5.24281 9.41101 5.35822C9.52642 5.47363 9.68295 5.53846 9.84616 5.53846H13.5385V14.7692ZM11.0769 8.61539C11.0769 8.77859 11.0121 8.93512 10.8967 9.05053C10.7813 9.16594 10.6248 9.23077 10.4615 9.23077H5.53846C5.37525 9.23077 5.21873 9.16594 5.10332 9.05053C4.98791 8.93512 4.92308 8.77859 4.92308 8.61539C4.92308 8.45218 4.98791 8.29565 5.10332 8.18024C5.21873 8.06483 5.37525 8 5.53846 8H10.4615C10.6248 8 10.7813 8.06483 10.8967 8.18024C11.0121 8.29565 11.0769 8.45218 11.0769 8.61539ZM11.0769 11.0769C11.0769 11.2401 11.0121 11.3967 10.8967 11.5121C10.7813 11.6275 10.6248 11.6923 10.4615 11.6923H5.53846C5.37525 11.6923 5.21873 11.6275 5.10332 11.5121C4.98791 11.3967 4.92308 11.2401 4.92308 11.0769C4.92308 10.9137 4.98791 10.7572 5.10332 10.6418C5.21873 10.5264 5.37525 10.4615 5.53846 10.4615H10.4615C10.6248 10.4615 10.7813 10.5264 10.8967 10.6418C11.0121 10.7572 11.0769 10.9137 11.0769 11.0769Z" fill="white"/>
</svg>
