<svg width="16" height="16" viewBox="0 0 16 16" fill="none" xmlns="http://www.w3.org/2000/svg">
<path d="M14.5894 4.48769L10.2817 0.18C10.2245 0.122871 10.1566 0.0775705 10.0819 0.0466855C10.0072 0.0158005 9.92718 -6.33759e-05 9.84634 1.90276e-07H2.46173C2.13531 1.90276e-07 1.82225 0.12967 1.59144 0.360484C1.36063 0.591298 1.23096 0.904349 1.23096 1.23077V14.7692C1.23096 15.0957 1.36063 15.4087 1.59144 15.6395C1.82225 15.8703 2.13531 16 2.46173 16H13.5386C13.8651 16 14.1781 15.8703 14.4089 15.6395C14.6397 15.4087 14.7694 15.0957 14.7694 14.7692V4.92308C14.7695 4.84224 14.7536 4.76218 14.7227 4.68748C14.6918 4.61277 14.6465 4.54488 14.5894 4.48769ZM10.4617 2.10077L12.6686 4.30769H10.4617V2.10077ZM13.5386 14.7692H2.46173V1.23077H9.23096V4.92308C9.23096 5.08629 9.29579 5.24281 9.4112 5.35822C9.52661 5.47363 9.68313 5.53846 9.84634 5.53846H13.5386V14.7692ZM11.0771 8.61539C11.0771 8.77859 11.0123 8.93512 10.8969 9.05053C10.7815 9.16594 10.6249 9.23077 10.4617 9.23077H5.53865C5.37544 9.23077 5.21891 9.16594 5.10351 9.05053C4.9881 8.93512 4.92326 8.77859 4.92326 8.61539C4.92326 8.45218 4.9881 8.29565 5.10351 8.18024C5.21891 8.06483 5.37544 8 5.53865 8H10.4617C10.6249 8 10.7815 8.06483 10.8969 8.18024C11.0123 8.29565 11.0771 8.45218 11.0771 8.61539ZM11.0771 11.0769C11.0771 11.2401 11.0123 11.3967 10.8969 11.5121C10.7815 11.6275 10.6249 11.6923 10.4617 11.6923H5.53865C5.37544 11.6923 5.21891 11.6275 5.10351 11.5121C4.9881 11.3967 4.92326 11.2401 4.92326 11.0769C4.92326 10.9137 4.9881 10.7572 5.10351 10.6418C5.21891 10.5264 5.37544 10.4615 5.53865 10.4615H10.4617C10.6249 10.4615 10.7815 10.5264 10.8969 10.6418C11.0123 10.7572 11.0771 10.9137 11.0771 11.0769Z" fill="black"/>
</svg>
