<svg width="16" height="16" viewBox="0 0 16 16" fill="none" xmlns="http://www.w3.org/2000/svg">
<path d="M16 7.99746C15.9994 6.52808 15.5941 5.08726 14.8286 3.83303C14.0631 2.5788 12.967 1.55961 11.6605 0.887287C10.3539 0.21496 8.88746 -0.0845294 7.42192 0.0216501C5.95638 0.12783 4.54839 0.635581 3.35241 1.48922C2.15642 2.34286 1.21863 3.5094 0.641926 4.86087C0.065221 6.21235 -0.12813 7.69656 0.0830833 9.15068C0.294297 10.6048 0.901922 11.9726 1.83929 13.1042C2.77666 14.2357 4.00756 15.0873 5.39698 15.5654C5.50932 15.5076 5.60568 15.423 5.67751 15.3191C5.74935 15.2152 5.79446 15.0951 5.80884 14.9696C5.80884 14.5296 5.79914 13.398 5.79914 13.398C5.52003 13.439 5.2382 13.4587 4.9561 13.4569C4.55777 13.4821 4.16228 13.3749 3.83111 13.1521C3.49995 12.9293 3.25167 12.6034 3.12485 12.225C2.95036 11.7808 2.63426 11.4065 2.22551 11.1602C2.01871 11.0264 1.97118 10.8689 2.21054 10.8249C3.31581 10.6181 3.5983 12.0709 4.33661 12.3033C4.84693 12.4622 5.39887 12.4181 5.87745 12.1801C5.94585 11.7668 6.17407 11.3969 6.51282 11.1505C4.63492 10.9745 3.52085 10.3224 2.94534 9.27961L2.88373 9.16346L2.73854 8.83258L2.69542 8.7138C2.50866 8.12839 2.41947 7.51624 2.43142 6.90188C2.41341 6.47937 2.48221 6.05765 2.63356 5.66277C2.78491 5.26789 3.01562 4.90823 3.31141 4.60599C3.06976 3.84688 3.11933 3.02499 3.45045 2.30042C3.45045 2.30042 4.26356 2.13234 5.79914 3.22617C7.14039 2.86797 8.54859 2.84109 9.90253 3.14785C10.5467 2.72369 11.7268 2.12178 12.202 2.29074C12.5196 2.95468 12.5798 3.71281 12.3709 4.41855C13.0425 5.13478 13.4035 6.08763 13.375 7.06908C13.373 7.62391 13.3038 8.17645 13.1691 8.71466L13.1004 8.94961C13.1004 8.94961 13.0608 9.0605 13.0177 9.16698L12.9667 9.28313C12.4096 10.5002 11.2674 10.9551 9.42207 11.1434C10.0205 11.5183 10.1912 11.9882 10.1912 13.2554C10.1912 14.5226 10.1745 14.6977 10.178 14.9908C10.1955 15.1119 10.2402 15.2275 10.3088 15.3288C10.3774 15.4302 10.468 15.5147 10.574 15.5759C12.1562 15.037 13.5301 14.0165 14.5032 12.6575C15.4762 11.2984 15.9996 9.66895 16 7.99746Z" fill="white"/>
</svg>
