<svg width="16" height="16" viewBox="0 0 16 16" fill="none" xmlns="http://www.w3.org/2000/svg">
<path d="M2.6478 2.80261C3.14279 3.20332 3.33136 3.17975 4.26634 3.11689L13.0819 2.59048C13.2704 2.59048 13.1133 2.40191 13.0504 2.37048L11.589 1.30979C11.3062 1.08979 10.9369 0.846228 10.2219 0.901226L1.68925 1.52193C1.37497 1.55335 1.31211 1.71049 1.43783 1.83621L2.6478 2.80261ZM3.17422 4.85328V14.1245C3.17422 14.6195 3.42564 14.8081 3.98348 14.7766L13.6711 14.2188C14.229 14.1874 14.2918 13.8417 14.2918 13.441V4.23258C14.2918 3.83188 14.1347 3.61188 13.7968 3.64331L3.67706 4.23258C3.29993 4.26401 3.17422 4.45258 3.17422 4.85328ZM12.7361 5.35613C12.799 5.63898 12.7361 5.91397 12.4533 5.9454L11.9897 6.03969V12.8831C11.5812 13.1031 11.2119 13.2288 10.8976 13.2288C10.4026 13.2288 10.2769 13.0717 9.89978 12.6081L6.84342 7.81536V12.451L7.80983 12.671C7.80983 12.671 7.80983 13.2288 7.03199 13.2288L4.88704 13.3545C4.82418 13.2288 4.88704 12.9224 5.10703 12.8595L5.66488 12.7024V6.57396L4.88704 6.5111C4.82418 6.22825 4.98132 5.82755 5.41345 5.79612L7.71554 5.63898L10.8898 10.4946V6.19683L10.0805 6.10254C10.0176 5.75683 10.2691 5.51327 10.5755 5.48184L12.7361 5.35613ZM0.966407 0.689088L9.84478 0.0369595C10.9369 -0.0573241 11.2119 0.00553163 11.9033 0.500521L14.7397 2.48833C15.2111 2.83404 15.3604 2.92047 15.3604 3.2976V14.2188C15.3604 14.9023 15.109 15.3109 14.2368 15.3738L3.92849 15.9945C3.27636 16.0259 2.96208 15.9316 2.61637 15.4995L0.526417 12.7888C0.149282 12.2938 0 11.9167 0 11.4846V1.77335C0 1.21551 0.251423 0.751944 0.966407 0.689088Z" fill="white"/>
</svg>
