<svg width="15" height="16" viewBox="0 0 15 16" fill="none" xmlns="http://www.w3.org/2000/svg">
<g id="&#234;&#183;&#184;&#235;&#163;&#185; 5307">
<path id="&#237;&#131;&#128;&#236;&#155;&#144; 8" d="M7.49972 14.8574C11.2868 14.8574 14.3569 11.7873 14.3569 8.00021C14.3569 4.21311 11.2868 1.14307 7.49972 1.14307C3.71263 1.14307 0.642578 4.21311 0.642578 8.00021C0.642578 11.7873 3.71263 14.8574 7.49972 14.8574Z" stroke="#7D899A" stroke-linecap="round" stroke-linejoin="round"/>
<path id="&#237;&#140;&#168;&#236;&#138;&#164; 38" d="M7.50056 9.66204V8.57289C7.95263 8.57289 8.39455 8.43884 8.77044 8.18768C9.14632 7.93653 9.43929 7.57954 9.61229 7.16188C9.78529 6.74422 9.83055 6.28464 9.74235 5.84126C9.65416 5.39787 9.43647 4.9906 9.1168 4.67093C8.79714 4.35127 8.38987 4.13358 7.94648 4.04538C7.5031 3.95719 7.04351 4.00246 6.62585 4.17546C6.20819 4.34846 5.85122 4.64142 5.60006 5.01731C5.34891 5.39319 5.21484 5.83511 5.21484 6.28718" stroke="#7D899A" stroke-linecap="round" stroke-linejoin="round"/>
<path id="&#237;&#131;&#128;&#236;&#155;&#144; 9" d="M7.4993 12.5045C7.95628 12.5045 8.32673 12.134 8.32673 11.677C8.32673 11.2201 7.95628 10.8496 7.4993 10.8496C7.04233 10.8496 6.67188 11.2201 6.67188 11.677C6.67188 12.134 7.04233 12.5045 7.4993 12.5045Z" fill="#7D899A"/>
</g>
</svg>
